<ttFont>
    <TTGlyph name="A" xMin="-17" yMin="-45" xMax="694" yMax="733">
      <contour>
        <pt x="531" y="106" on="1"/>
        <pt x="519" y="97" on="0"/>
        <pt x="465" y="60" on="0"/>
        <pt x="433" y="38" on="0"/>
        <pt x="384" y="5" on="0"/>
        <pt x="350" y="-15" on="0"/>
        <pt x="332" y="-25" on="1"/>
        <pt x="295" y="-45" on="0"/>
        <pt x="277" y="-45" on="1"/>
        <pt x="260" y="-45" on="0"/>
        <pt x="260" y="-26" on="1"/>
        <pt x="260" y="3" on="0"/>
        <pt x="339" y="133" on="0"/>
        <pt x="418" y="242" on="0"/>
        <pt x="418" y="248" on="0"/>
        <pt x="416" y="248" on="1"/>
        <pt x="404" y="237" on="0"/>
        <pt x="365" y="199" on="0"/>
        <pt x="255" y="102" on="0"/>
        <pt x="162" y="28" on="0"/>
        <pt x="59" y="-33" on="0"/>
        <pt x="32" y="-33" on="1"/>
        <pt x="-17" y="-33" on="0"/>
        <pt x="-17" y="35" on="1"/>
        <pt x="-17" y="92" on="0"/>
        <pt x="51" y="266" on="0"/>
        <pt x="179" y="457" on="0"/>
        <pt x="340" y="624" on="0"/>
        <pt x="550" y="733" on="0"/>
        <pt x="654" y="733" on="1"/>
        <pt x="694" y="733" on="0"/>
        <pt x="694" y="703" on="1"/>
        <pt x="694" y="664" on="0"/>
        <pt x="573" y="517" on="0"/>
        <pt x="427" y="401" on="0"/>
        <pt x="394" y="401" on="1"/>
        <pt x="381" y="401" on="0"/>
        <pt x="381" y="428" on="0"/>
        <pt x="426" y="482" on="0"/>
        <pt x="434" y="482" on="1"/>
        <pt x="438" y="482" on="0"/>
        <pt x="438" y="473" on="0"/>
        <pt x="413" y="446" on="0"/>
        <pt x="413" y="438" on="0"/>
        <pt x="419" y="438" on="1"/>
        <pt x="440" y="438" on="0"/>
        <pt x="563" y="544" on="0"/>
        <pt x="672" y="675" on="0"/>
        <pt x="672" y="705" on="1"/>
        <pt x="672" y="724" on="0"/>
        <pt x="647" y="724" on="1"/>
        <pt x="582" y="724" on="0"/>
        <pt x="429" y="641" on="0"/>
        <pt x="291" y="511" on="0"/>
        <pt x="162" y="350" on="0"/>
        <pt x="68" y="195" on="0"/>
        <pt x="11" y="60" on="0"/>
        <pt x="11" y="-18" on="0"/>
        <pt x="42" y="-18" on="1"/>
        <pt x="96" y="-18" on="0"/>
        <pt x="256" y="120" on="1"/>
        <pt x="463" y="299" on="0"/>
        <pt x="611" y="487" on="1"/>
        <pt x="636" y="518" on="0"/>
        <pt x="664" y="518" on="0"/>
        <pt x="664" y="497" on="0"/>
        <pt x="567" y="377" on="1"/>
        <pt x="277" y="18" on="0"/>
        <pt x="277" y="-27" on="1"/>
        <pt x="277" y="-35" on="0"/>
        <pt x="293" y="-35" on="0"/>
        <pt x="320" y="-22" on="0"/>
        <pt x="371" y="11" on="0"/>
        <pt x="390" y="24" on="1"/>
        <pt x="436" y="54" on="0"/>
        <pt x="516" y="110" on="1"/>
        <pt x="583" y="152" on="1"/>
        <pt x="590" y="156" on="0"/>
        <pt x="606" y="156" on="0"/>
        <pt x="606" y="152" on="0"/>
        <pt x="603" y="150" on="1"/>
      </contour>
    </TTGlyph>
    <TTGlyph name="AE" xMin="-17" yMin="-46" xMax="969" yMax="771">
      <contour>
        <pt x="42" y="-18" on="1"/>
        <pt x="82" y="-18" on="0"/>
        <pt x="277" y="135" on="0"/>
        <pt x="380" y="238" on="1"/>
        <pt x="452" y="310" on="0"/>
        <pt x="527" y="347" on="1"/>
        <pt x="491" y="338" on="0"/>
        <pt x="466" y="338" on="1"/>
        <pt x="395" y="338" on="0"/>
        <pt x="395" y="393" on="1"/>
        <pt x="395" y="453" on="0"/>
        <pt x="557" y="636" on="0"/>
        <pt x="671" y="699" on="1"/>
        <pt x="670" y="712" on="0"/>
        <pt x="661" y="724" on="0"/>
        <pt x="647" y="724" on="1"/>
        <pt x="582" y="724" on="0"/>
        <pt x="429" y="641" on="0"/>
        <pt x="291" y="511" on="0"/>
        <pt x="162" y="350" on="0"/>
        <pt x="68" y="195" on="0"/>
        <pt x="11" y="60" on="0"/>
        <pt x="11" y="-18" on="0"/>
      </contour>
      <contour>
        <pt x="654" y="733" on="1"/>
        <pt x="689" y="733" on="0"/>
        <pt x="694" y="711" on="1"/>
        <pt x="814" y="771" on="0"/>
        <pt x="925" y="771" on="1"/>
        <pt x="969" y="771" on="0"/>
        <pt x="969" y="746" on="1"/>
        <pt x="969" y="703" on="0"/>
        <pt x="768" y="547" on="0"/>
        <pt x="717" y="547" on="1"/>
        <pt x="703" y="547" on="0"/>
        <pt x="703" y="578" on="0"/>
        <pt x="745" y="613" on="0"/>
        <pt x="756" y="613" on="0"/>
        <pt x="756" y="604" on="0"/>
        <pt x="737" y="592" on="0"/>
        <pt x="737" y="583" on="0"/>
        <pt x="741" y="583" on="1"/>
        <pt x="769" y="583" on="0"/>
        <pt x="951" y="725" on="0"/>
        <pt x="951" y="752" on="1"/>
        <pt x="951" y="762" on="0"/>
        <pt x="936" y="762" on="1"/>
        <pt x="853" y="762" on="0"/>
        <pt x="664" y="669" on="0"/>
        <pt x="522" y="544" on="0"/>
        <pt x="428" y="416" on="0"/>
        <pt x="428" y="380" on="1"/>
        <pt x="428" y="349" on="0"/>
        <pt x="464" y="349" on="1"/>
        <pt x="546" y="349" on="0"/>
        <pt x="648" y="416" on="1"/>
        <pt x="662" y="425" on="0"/>
        <pt x="693" y="446" on="0"/>
        <pt x="700" y="451" on="0"/>
        <pt x="706" y="451" on="0"/>
        <pt x="706" y="440" on="1"/>
        <pt x="706" y="433" on="0"/>
        <pt x="628" y="386" on="1"/>
        <pt x="603" y="370" on="1"/>
        <pt x="499" y="308" on="0"/>
        <pt x="294" y="67" on="0"/>
        <pt x="294" y="6" on="1"/>
        <pt x="294" y="-29" on="0"/>
        <pt x="335" y="-29" on="1"/>
        <pt x="399" y="-29" on="0"/>
        <pt x="606" y="110" on="1"/>
        <pt x="673" y="152" on="1"/>
        <pt x="680" y="156" on="0"/>
        <pt x="696" y="156" on="0"/>
        <pt x="696" y="152" on="0"/>
        <pt x="693" y="150" on="1"/>
        <pt x="621" y="106" on="1"/>
        <pt x="612" y="100" on="0"/>
        <pt x="518" y="37" on="0"/>
        <pt x="478" y="12" on="0"/>
        <pt x="442" y="-8" on="1"/>
        <pt x="375" y="-46" on="0"/>
        <pt x="334" y="-46" on="1"/>
        <pt x="267" y="-46" on="0"/>
        <pt x="267" y="21" on="1"/>
        <pt x="267" y="79" on="0"/>
        <pt x="314" y="153" on="1"/>
        <pt x="103" y="-33" on="0"/>
        <pt x="32" y="-33" on="1"/>
        <pt x="-17" y="-33" on="0"/>
        <pt x="-17" y="35" on="1"/>
        <pt x="-17" y="92" on="0"/>
        <pt x="51" y="266" on="0"/>
        <pt x="179" y="457" on="0"/>
        <pt x="340" y="624" on="0"/>
        <pt x="550" y="733" on="0"/>
      </contour>
    </TTGlyph>
    <TTGlyph name="Aacute" xMin="-17" yMin="-45" xMax="748" yMax="833">
      <contour>
        <pt x="748" y="833" on="0"/>
        <pt x="748" y="805" on="0"/>
        <pt x="610" y="759" on="0"/>
        <pt x="596" y="759" on="0"/>
        <pt x="596" y="761" on="1"/>
        <pt x="596" y="765" on="0"/>
        <pt x="610" y="770" on="0"/>
        <pt x="641" y="787" on="0"/>
        <pt x="691" y="816" on="0"/>
        <pt x="715" y="828" on="1"/>
        <pt x="728" y="833" on="0"/>
        <pt x="736" y="833" on="1"/>
      </contour>
      <contour>
        <pt x="531" y="106" on="1"/>
        <pt x="519" y="97" on="0"/>
        <pt x="465" y="60" on="0"/>
        <pt x="433" y="38" on="0"/>
        <pt x="384" y="5" on="0"/>
        <pt x="350" y="-15" on="0"/>
        <pt x="332" y="-25" on="1"/>
        <pt x="295" y="-45" on="0"/>
        <pt x="277" y="-45" on="1"/>
        <pt x="260" y="-45" on="0"/>
        <pt x="260" y="-26" on="1"/>
        <pt x="260" y="3" on="0"/>
        <pt x="339" y="133" on="0"/>
        <pt x="418" y="242" on="0"/>
        <pt x="418" y="248" on="0"/>
        <pt x="416" y="248" on="1"/>
        <pt x="404" y="237" on="0"/>
        <pt x="365" y="199" on="0"/>
        <pt x="255" y="102" on="0"/>
        <pt x="162" y="28" on="0"/>
        <pt x="59" y="-33" on="0"/>
        <pt x="32" y="-33" on="1"/>
        <pt x="-17" y="-33" on="0"/>
        <pt x="-17" y="35" on="1"/>
        <pt x="-17" y="92" on="0"/>
        <pt x="51" y="266" on="0"/>
        <pt x="179" y="457" on="0"/>
        <pt x="340" y="624" on="0"/>
        <pt x="550" y="733" on="0"/>
        <pt x="654" y="733" on="1"/>
        <pt x="694" y="733" on="0"/>
        <pt x="694" y="703" on="1"/>
        <pt x="694" y="664" on="0"/>
        <pt x="573" y="517" on="0"/>
        <pt x="427" y="401" on="0"/>
        <pt x="394" y="401" on="1"/>
        <pt x="381" y="401" on="0"/>
        <pt x="381" y="428" on="0"/>
        <pt x="426" y="482" on="0"/>
        <pt x="434" y="482" on="1"/>
        <pt x="438" y="482" on="0"/>
        <pt x="438" y="473" on="0"/>
        <pt x="413" y="446" on="0"/>
        <pt x="413" y="438" on="0"/>
        <pt x="419" y="438" on="1"/>
        <pt x="440" y="438" on="0"/>
        <pt x="563" y="544" on="0"/>
        <pt x="672" y="675" on="0"/>
        <pt x="672" y="705" on="1"/>
        <pt x="672" y="724" on="0"/>
        <pt x="647" y="724" on="1"/>
        <pt x="582" y="724" on="0"/>
        <pt x="429" y="641" on="0"/>
        <pt x="291" y="511" on="0"/>
        <pt x="162" y="350" on="0"/>
        <pt x="68" y="195" on="0"/>
        <pt x="11" y="60" on="0"/>
        <pt x="11" y="-18" on="0"/>
        <pt x="42" y="-18" on="1"/>
        <pt x="96" y="-18" on="0"/>
        <pt x="256" y="120" on="1"/>
        <pt x="463" y="299" on="0"/>
        <pt x="611" y="487" on="1"/>
        <pt x="636" y="518" on="0"/>
        <pt x="664" y="518" on="0"/>
        <pt x="664" y="497" on="0"/>
        <pt x="567" y="377" on="1"/>
        <pt x="277" y="18" on="0"/>
        <pt x="277" y="-27" on="1"/>
        <pt x="277" y="-35" on="0"/>
        <pt x="293" y="-35" on="0"/>
        <pt x="320" y="-22" on="0"/>
        <pt x="371" y="11" on="0"/>
        <pt x="390" y="24" on="1"/>
        <pt x="436" y="54" on="0"/>
        <pt x="516" y="110" on="1"/>
        <pt x="583" y="152" on="1"/>
        <pt x="590" y="156" on="0"/>
        <pt x="606" y="156" on="0"/>
        <pt x="606" y="152" on="0"/>
        <pt x="603" y="150" on="1"/>
      </contour>
    </TTGlyph>
    <TTGlyph name="Acircumflex" xMin="-17" yMin="-45" xMax="728" yMax="848">
      <contour>
        <pt x="652" y="798" on="1"/>
        <pt x="556" y="756" on="0"/>
        <pt x="537" y="756" on="0"/>
        <pt x="537" y="760" on="1"/>
        <pt x="537" y="762" on="1"/>
        <pt x="537" y="765" on="0"/>
        <pt x="570" y="781" on="0"/>
        <pt x="602" y="800" on="1"/>
        <pt x="684" y="848" on="0"/>
        <pt x="701" y="848" on="0"/>
        <pt x="705" y="829" on="0"/>
        <pt x="710" y="799" on="0"/>
        <pt x="711" y="794" on="1"/>
        <pt x="714" y="779" on="0"/>
        <pt x="727" y="760" on="1"/>
        <pt x="728" y="758" on="1"/>
        <pt x="728" y="755" on="0"/>
        <pt x="712" y="755" on="0"/>
        <pt x="690" y="791" on="0"/>
        <pt x="684" y="811" on="1"/>
      </contour>
      <contour>
        <pt x="531" y="106" on="1"/>
        <pt x="519" y="97" on="0"/>
        <pt x="465" y="60" on="0"/>
        <pt x="433" y="38" on="0"/>
        <pt x="384" y="5" on="0"/>
        <pt x="350" y="-15" on="0"/>
        <pt x="332" y="-25" on="1"/>
        <pt x="295" y="-45" on="0"/>
        <pt x="277" y="-45" on="1"/>
        <pt x="260" y="-45" on="0"/>
        <pt x="260" y="-26" on="1"/>
        <pt x="260" y="3" on="0"/>
        <pt x="339" y="133" on="0"/>
        <pt x="418" y="242" on="0"/>
        <pt x="418" y="248" on="0"/>
        <pt x="416" y="248" on="1"/>
        <pt x="404" y="237" on="0"/>
        <pt x="365" y="199" on="0"/>
        <pt x="255" y="102" on="0"/>
        <pt x="162" y="28" on="0"/>
        <pt x="59" y="-33" on="0"/>
        <pt x="32" y="-33" on="1"/>
        <pt x="-17" y="-33" on="0"/>
        <pt x="-17" y="35" on="1"/>
        <pt x="-17" y="92" on="0"/>
        <pt x="51" y="266" on="0"/>
        <pt x="179" y="457" on="0"/>
        <pt x="340" y="624" on="0"/>
        <pt x="550" y="733" on="0"/>
        <pt x="654" y="733" on="1"/>
        <pt x="694" y="733" on="0"/>
        <pt x="694" y="703" on="1"/>
        <pt x="694" y="664" on="0"/>
        <pt x="573" y="517" on="0"/>
        <pt x="427" y="401" on="0"/>
        <pt x="394" y="401" on="1"/>
        <pt x="381" y="401" on="0"/>
        <pt x="381" y="428" on="0"/>
        <pt x="426" y="482" on="0"/>
        <pt x="434" y="482" on="1"/>
        <pt x="438" y="482" on="0"/>
        <pt x="438" y="473" on="0"/>
        <pt x="413" y="446" on="0"/>
        <pt x="413" y="438" on="0"/>
        <pt x="419" y="438" on="1"/>
        <pt x="440" y="438" on="0"/>
        <pt x="563" y="544" on="0"/>
        <pt x="672" y="675" on="0"/>
        <pt x="672" y="705" on="1"/>
        <pt x="672" y="724" on="0"/>
        <pt x="647" y="724" on="1"/>
        <pt x="582" y="724" on="0"/>
        <pt x="429" y="641" on="0"/>
        <pt x="291" y="511" on="0"/>
        <pt x="162" y="350" on="0"/>
        <pt x="68" y="195" on="0"/>
        <pt x="11" y="60" on="0"/>
        <pt x="11" y="-18" on="0"/>
        <pt x="42" y="-18" on="1"/>
        <pt x="96" y="-18" on="0"/>
        <pt x="256" y="120" on="1"/>
        <pt x="463" y="299" on="0"/>
        <pt x="611" y="487" on="1"/>
        <pt x="636" y="518" on="0"/>
        <pt x="664" y="518" on="0"/>
        <pt x="664" y="497" on="0"/>
        <pt x="567" y="377" on="1"/>
        <pt x="277" y="18" on="0"/>
        <pt x="277" y="-27" on="1"/>
        <pt x="277" y="-35" on="0"/>
        <pt x="293" y="-35" on="0"/>
        <pt x="320" y="-22" on="0"/>
        <pt x="371" y="11" on="0"/>
        <pt x="390" y="24" on="1"/>
        <pt x="436" y="54" on="0"/>
        <pt x="516" y="110" on="1"/>
        <pt x="583" y="152" on="1"/>
        <pt x="590" y="156" on="0"/>
        <pt x="606" y="156" on="0"/>
        <pt x="606" y="152" on="0"/>
        <pt x="603" y="150" on="1"/>
      </contour>
    </TTGlyph>
    <TTGlyph name="Adieresis" xMin="-17" yMin="-44" xMax="710" yMax="826">
      <contour>
        <pt x="568" y="767" on="0"/>
        <pt x="568" y="798" on="0"/>
        <pt x="598" y="826" on="0"/>
        <pt x="619" y="826" on="0"/>
        <pt x="630" y="814" on="0"/>
        <pt x="630" y="798" on="0"/>
        <pt x="602" y="767" on="0"/>
      </contour>
      <contour>
        <pt x="648" y="767" on="0"/>
        <pt x="648" y="798" on="0"/>
        <pt x="678" y="826" on="0"/>
        <pt x="699" y="826" on="0"/>
        <pt x="710" y="814" on="0"/>
        <pt x="710" y="798" on="0"/>
        <pt x="682" y="767" on="0"/>
      </contour>
      <contour>
        <pt x="531" y="106" on="1"/>
        <pt x="565" y="127" on="0"/>
        <pt x="606" y="152" on="0"/>
        <pt x="606" y="156" on="0"/>
        <pt x="590" y="156" on="0"/>
        <pt x="583" y="152" on="1"/>
        <pt x="516" y="110" on="1"/>
        <pt x="340" y="-12" on="0"/>
        <pt x="293" y="-35" on="0"/>
        <pt x="277" y="-35" on="0"/>
        <pt x="277" y="-27" on="1"/>
        <pt x="277" y="18" on="0"/>
        <pt x="567" y="377" on="1"/>
        <pt x="664" y="497" on="0"/>
        <pt x="664" y="518" on="0"/>
        <pt x="636" y="518" on="0"/>
        <pt x="611" y="487" on="1"/>
        <pt x="463" y="299" on="0"/>
        <pt x="256" y="120" on="1"/>
        <pt x="96" y="-18" on="0"/>
        <pt x="42" y="-18" on="1"/>
        <pt x="11" y="-18" on="0"/>
        <pt x="11" y="60" on="0"/>
        <pt x="68" y="195" on="0"/>
        <pt x="162" y="350" on="0"/>
        <pt x="291" y="511" on="0"/>
        <pt x="429" y="641" on="0"/>
        <pt x="582" y="724" on="0"/>
        <pt x="647" y="724" on="1"/>
        <pt x="672" y="724" on="0"/>
        <pt x="672" y="705" on="1"/>
        <pt x="672" y="675" on="0"/>
        <pt x="563" y="544" on="0"/>
        <pt x="440" y="438" on="0"/>
        <pt x="419" y="438" on="1"/>
        <pt x="413" y="438" on="0"/>
        <pt x="413" y="446" on="0"/>
        <pt x="438" y="473" on="0"/>
        <pt x="438" y="482" on="0"/>
        <pt x="426" y="482" on="0"/>
        <pt x="381" y="428" on="0"/>
        <pt x="381" y="401" on="0"/>
        <pt x="394" y="401" on="1"/>
        <pt x="427" y="401" on="0"/>
        <pt x="573" y="517" on="0"/>
        <pt x="694" y="664" on="0"/>
        <pt x="694" y="703" on="1"/>
        <pt x="694" y="733" on="0"/>
        <pt x="654" y="733" on="1"/>
        <pt x="550" y="733" on="0"/>
        <pt x="340" y="624" on="0"/>
        <pt x="179" y="457" on="0"/>
        <pt x="51" y="266" on="0"/>
        <pt x="-17" y="92" on="0"/>
        <pt x="-17" y="35" on="1"/>
        <pt x="-17" y="-33" on="0"/>
        <pt x="32" y="-33" on="1"/>
        <pt x="76" y="-33" on="0"/>
        <pt x="268" y="108" on="0"/>
        <pt x="342" y="178" on="1"/>
        <pt x="416" y="248" on="1"/>
        <pt x="418" y="248" on="0"/>
        <pt x="418" y="242" on="0"/>
        <pt x="339" y="133" on="0"/>
        <pt x="260" y="3" on="0"/>
        <pt x="260" y="-26" on="1"/>
        <pt x="260" y="-44" on="0"/>
        <pt x="277" y="-44" on="1"/>
        <pt x="296" y="-44" on="0"/>
        <pt x="350" y="-15" on="0"/>
        <pt x="384" y="5" on="0"/>
        <pt x="433" y="38" on="0"/>
        <pt x="465" y="60" on="0"/>
        <pt x="519" y="97" on="0"/>
      </contour>
    </TTGlyph>
    <TTGlyph name="Agrave" xMin="-17" yMin="-44" xMax="717" yMax="843">
      <contour>
        <pt x="587" y="832" on="1"/>
        <pt x="587" y="843" on="0"/>
        <pt x="611" y="843" on="0"/>
        <pt x="616" y="838" on="1"/>
        <pt x="704" y="768" on="0"/>
        <pt x="717" y="761" on="0"/>
        <pt x="717" y="757" on="0"/>
        <pt x="702" y="757" on="0"/>
        <pt x="587" y="816" on="0"/>
      </contour>
      <contour>
        <pt x="531" y="106" on="1"/>
        <pt x="565" y="127" on="0"/>
        <pt x="606" y="152" on="0"/>
        <pt x="606" y="156" on="0"/>
        <pt x="590" y="156" on="0"/>
        <pt x="583" y="152" on="1"/>
        <pt x="516" y="110" on="1"/>
        <pt x="340" y="-12" on="0"/>
        <pt x="293" y="-35" on="0"/>
        <pt x="277" y="-35" on="0"/>
        <pt x="277" y="-27" on="1"/>
        <pt x="277" y="18" on="0"/>
        <pt x="567" y="377" on="1"/>
        <pt x="664" y="497" on="0"/>
        <pt x="664" y="518" on="0"/>
        <pt x="636" y="518" on="0"/>
        <pt x="611" y="487" on="1"/>
        <pt x="463" y="299" on="0"/>
        <pt x="256" y="120" on="1"/>
        <pt x="96" y="-18" on="0"/>
        <pt x="42" y="-18" on="1"/>
        <pt x="11" y="-18" on="0"/>
        <pt x="11" y="60" on="0"/>
        <pt x="68" y="195" on="0"/>
        <pt x="162" y="350" on="0"/>
        <pt x="291" y="511" on="0"/>
        <pt x="429" y="641" on="0"/>
        <pt x="582" y="724" on="0"/>
        <pt x="647" y="724" on="1"/>
        <pt x="672" y="724" on="0"/>
        <pt x="672" y="705" on="1"/>
        <pt x="672" y="675" on="0"/>
        <pt x="563" y="544" on="0"/>
        <pt x="440" y="438" on="0"/>
        <pt x="419" y="438" on="1"/>
        <pt x="413" y="438" on="0"/>
        <pt x="413" y="446" on="0"/>
        <pt x="438" y="473" on="0"/>
        <pt x="438" y="482" on="0"/>
        <pt x="426" y="482" on="0"/>
        <pt x="381" y="428" on="0"/>
        <pt x="381" y="401" on="0"/>
        <pt x="394" y="401" on="1"/>
        <pt x="427" y="401" on="0"/>
        <pt x="573" y="517" on="0"/>
        <pt x="694" y="664" on="0"/>
        <pt x="694" y="703" on="1"/>
        <pt x="694" y="733" on="0"/>
        <pt x="654" y="733" on="1"/>
        <pt x="550" y="733" on="0"/>
        <pt x="340" y="624" on="0"/>
        <pt x="179" y="457" on="0"/>
        <pt x="51" y="266" on="0"/>
        <pt x="-17" y="92" on="0"/>
        <pt x="-17" y="35" on="1"/>
        <pt x="-17" y="-33" on="0"/>
        <pt x="32" y="-33" on="1"/>
        <pt x="76" y="-33" on="0"/>
        <pt x="268" y="108" on="0"/>
        <pt x="342" y="178" on="1"/>
        <pt x="416" y="248" on="1"/>
        <pt x="418" y="248" on="0"/>
        <pt x="418" y="242" on="0"/>
        <pt x="339" y="133" on="0"/>
        <pt x="260" y="3" on="0"/>
        <pt x="260" y="-26" on="1"/>
        <pt x="260" y="-44" on="0"/>
        <pt x="277" y="-44" on="1"/>
        <pt x="296" y="-44" on="0"/>
        <pt x="350" y="-15" on="0"/>
        <pt x="384" y="5" on="0"/>
        <pt x="433" y="38" on="0"/>
        <pt x="465" y="60" on="0"/>
        <pt x="519" y="97" on="0"/>
      </contour>
    </TTGlyph>
    <TTGlyph name="Aring" xMin="-17" yMin="-45" xMax="723" yMax="851">
      <contour>
        <pt x="647" y="760" on="1"/>
        <pt x="668" y="760" on="0"/>
        <pt x="702" y="803" on="0"/>
        <pt x="702" y="841" on="0"/>
        <pt x="670" y="841" on="0"/>
        <pt x="638" y="791" on="0"/>
        <pt x="638" y="760" on="0"/>
      </contour>
      <contour>
        <pt x="641" y="749" on="1"/>
        <pt x="630" y="749" on="0"/>
        <pt x="617" y="767" on="0"/>
        <pt x="617" y="778" on="1"/>
        <pt x="617" y="802" on="0"/>
        <pt x="669" y="851" on="0"/>
        <pt x="706" y="851" on="0"/>
        <pt x="723" y="832" on="0"/>
        <pt x="723" y="802" on="0"/>
        <pt x="675" y="749" on="0"/>
      </contour>
      <contour>
        <pt x="531" y="106" on="1"/>
        <pt x="519" y="97" on="0"/>
        <pt x="465" y="60" on="0"/>
        <pt x="433" y="38" on="0"/>
        <pt x="384" y="5" on="0"/>
        <pt x="350" y="-15" on="0"/>
        <pt x="332" y="-25" on="1"/>
        <pt x="295" y="-45" on="0"/>
        <pt x="277" y="-45" on="1"/>
        <pt x="260" y="-45" on="0"/>
        <pt x="260" y="-26" on="1"/>
        <pt x="260" y="3" on="0"/>
        <pt x="339" y="133" on="0"/>
        <pt x="418" y="242" on="0"/>
        <pt x="418" y="248" on="0"/>
        <pt x="416" y="248" on="1"/>
        <pt x="404" y="237" on="0"/>
        <pt x="365" y="199" on="0"/>
        <pt x="255" y="102" on="0"/>
        <pt x="162" y="28" on="0"/>
        <pt x="59" y="-33" on="0"/>
        <pt x="32" y="-33" on="1"/>
        <pt x="-17" y="-33" on="0"/>
        <pt x="-17" y="35" on="1"/>
        <pt x="-17" y="92" on="0"/>
        <pt x="51" y="266" on="0"/>
        <pt x="179" y="457" on="0"/>
        <pt x="340" y="624" on="0"/>
        <pt x="550" y="733" on="0"/>
        <pt x="654" y="733" on="1"/>
        <pt x="694" y="733" on="0"/>
        <pt x="694" y="703" on="1"/>
        <pt x="694" y="664" on="0"/>
        <pt x="573" y="517" on="0"/>
        <pt x="427" y="401" on="0"/>
        <pt x="394" y="401" on="1"/>
        <pt x="381" y="401" on="0"/>
        <pt x="381" y="428" on="0"/>
        <pt x="426" y="482" on="0"/>
        <pt x="434" y="482" on="1"/>
        <pt x="438" y="482" on="0"/>
        <pt x="438" y="473" on="0"/>
        <pt x="413" y="446" on="0"/>
        <pt x="413" y="438" on="0"/>
        <pt x="419" y="438" on="1"/>
        <pt x="440" y="438" on="0"/>
        <pt x="563" y="544" on="0"/>
        <pt x="672" y="675" on="0"/>
        <pt x="672" y="705" on="1"/>
        <pt x="672" y="724" on="0"/>
        <pt x="647" y="724" on="1"/>
        <pt x="582" y="724" on="0"/>
        <pt x="429" y="641" on="0"/>
        <pt x="291" y="511" on="0"/>
        <pt x="162" y="350" on="0"/>
        <pt x="68" y="195" on="0"/>
        <pt x="11" y="60" on="0"/>
        <pt x="11" y="-18" on="0"/>
        <pt x="42" y="-18" on="1"/>
        <pt x="96" y="-18" on="0"/>
        <pt x="256" y="120" on="1"/>
        <pt x="463" y="299" on="0"/>
        <pt x="611" y="487" on="1"/>
        <pt x="636" y="518" on="0"/>
        <pt x="664" y="518" on="0"/>
        <pt x="664" y="497" on="0"/>
        <pt x="567" y="377" on="1"/>
        <pt x="277" y="18" on="0"/>
        <pt x="277" y="-27" on="1"/>
        <pt x="277" y="-35" on="0"/>
        <pt x="293" y="-35" on="0"/>
        <pt x="320" y="-22" on="0"/>
        <pt x="371" y="11" on="0"/>
        <pt x="390" y="24" on="1"/>
        <pt x="436" y="54" on="0"/>
        <pt x="516" y="110" on="1"/>
        <pt x="583" y="152" on="1"/>
        <pt x="590" y="156" on="0"/>
        <pt x="606" y="156" on="0"/>
        <pt x="606" y="152" on="0"/>
        <pt x="603" y="150" on="1"/>
      </contour>
    </TTGlyph>
    <TTGlyph name="Atilde" xMin="-17" yMin="-45" xMax="733" yMax="803">
      <contour>
        <pt x="658" y="758" on="0"/>
        <pt x="608" y="780" on="0"/>
        <pt x="588" y="780" on="0"/>
        <pt x="578" y="770" on="0"/>
        <pt x="567" y="770" on="0"/>
        <pt x="567" y="777" on="0"/>
        <pt x="571" y="781" on="1"/>
        <pt x="593" y="803" on="0"/>
        <pt x="630" y="803" on="0"/>
        <pt x="678" y="778" on="0"/>
        <pt x="706" y="778" on="0"/>
        <pt x="724" y="799" on="1"/>
        <pt x="725" y="801" on="0"/>
        <pt x="733" y="801" on="0"/>
        <pt x="733" y="790" on="0"/>
        <pt x="732" y="789" on="1"/>
        <pt x="706" y="758" on="0"/>
        <pt x="674" y="758" on="1"/>
      </contour>
      <contour>
        <pt x="531" y="106" on="1"/>
        <pt x="519" y="97" on="0"/>
        <pt x="465" y="60" on="0"/>
        <pt x="433" y="38" on="0"/>
        <pt x="384" y="5" on="0"/>
        <pt x="350" y="-15" on="0"/>
        <pt x="332" y="-25" on="1"/>
        <pt x="295" y="-45" on="0"/>
        <pt x="277" y="-45" on="1"/>
        <pt x="260" y="-45" on="0"/>
        <pt x="260" y="-26" on="1"/>
        <pt x="260" y="3" on="0"/>
        <pt x="339" y="133" on="0"/>
        <pt x="418" y="242" on="0"/>
        <pt x="418" y="248" on="0"/>
        <pt x="416" y="248" on="1"/>
        <pt x="404" y="237" on="0"/>
        <pt x="365" y="199" on="0"/>
        <pt x="255" y="102" on="0"/>
        <pt x="162" y="28" on="0"/>
        <pt x="59" y="-33" on="0"/>
        <pt x="32" y="-33" on="1"/>
        <pt x="-17" y="-33" on="0"/>
        <pt x="-17" y="35" on="1"/>
        <pt x="-17" y="92" on="0"/>
        <pt x="51" y="266" on="0"/>
        <pt x="179" y="457" on="0"/>
        <pt x="340" y="624" on="0"/>
        <pt x="550" y="733" on="0"/>
        <pt x="654" y="733" on="1"/>
        <pt x="694" y="733" on="0"/>
        <pt x="694" y="703" on="1"/>
        <pt x="694" y="664" on="0"/>
        <pt x="573" y="517" on="0"/>
        <pt x="427" y="401" on="0"/>
        <pt x="394" y="401" on="1"/>
        <pt x="381" y="401" on="0"/>
        <pt x="381" y="428" on="0"/>
        <pt x="426" y="482" on="0"/>
        <pt x="434" y="482" on="1"/>
        <pt x="438" y="482" on="0"/>
        <pt x="438" y="473" on="0"/>
        <pt x="413" y="446" on="0"/>
        <pt x="413" y="438" on="0"/>
        <pt x="419" y="438" on="1"/>
        <pt x="440" y="438" on="0"/>
        <pt x="563" y="544" on="0"/>
        <pt x="672" y="675" on="0"/>
        <pt x="672" y="705" on="1"/>
        <pt x="672" y="724" on="0"/>
        <pt x="647" y="724" on="1"/>
        <pt x="582" y="724" on="0"/>
        <pt x="429" y="641" on="0"/>
        <pt x="291" y="511" on="0"/>
        <pt x="162" y="350" on="0"/>
        <pt x="68" y="195" on="0"/>
        <pt x="11" y="60" on="0"/>
        <pt x="11" y="-18" on="0"/>
        <pt x="42" y="-18" on="1"/>
        <pt x="96" y="-18" on="0"/>
        <pt x="256" y="120" on="1"/>
        <pt x="463" y="299" on="0"/>
        <pt x="611" y="487" on="1"/>
        <pt x="636" y="518" on="0"/>
        <pt x="664" y="518" on="0"/>
        <pt x="664" y="497" on="0"/>
        <pt x="567" y="377" on="1"/>
        <pt x="277" y="18" on="0"/>
        <pt x="277" y="-27" on="1"/>
        <pt x="277" y="-35" on="0"/>
        <pt x="293" y="-35" on="0"/>
        <pt x="320" y="-22" on="0"/>
        <pt x="371" y="11" on="0"/>
        <pt x="390" y="24" on="1"/>
        <pt x="436" y="54" on="0"/>
        <pt x="516" y="110" on="1"/>
        <pt x="583" y="152" on="1"/>
        <pt x="590" y="156" on="0"/>
        <pt x="606" y="156" on="0"/>
        <pt x="606" y="152" on="0"/>
        <pt x="603" y="150" on="1"/>
      </contour>
    </TTGlyph>
    <TTGlyph name="B" xMin="-47" yMin="-41" xMax="831" yMax="738">
      <contour>
        <pt x="369" y="496" on="1"/>
        <pt x="372" y="496" on="0"/>
        <pt x="374" y="485" on="1"/>
        <pt x="374" y="438" on="0"/>
        <pt x="210" y="186" on="0"/>
        <pt x="10" y="-32" on="0"/>
        <pt x="-35" y="-32" on="1"/>
        <pt x="-47" y="-32" on="0"/>
        <pt x="-47" y="-17" on="1"/>
        <pt x="-47" y="46" on="0"/>
        <pt x="59" y="241" on="0"/>
        <pt x="237" y="444" on="0"/>
        <pt x="445" y="624" on="0"/>
        <pt x="672" y="738" on="0"/>
        <pt x="762" y="738" on="1"/>
        <pt x="831" y="738" on="0"/>
        <pt x="831" y="703" on="1"/>
        <pt x="831" y="651" on="0"/>
        <pt x="566" y="441" on="0"/>
        <pt x="466" y="394" on="1"/>
        <pt x="466" y="392" on="0"/>
        <pt x="470" y="392" on="1"/>
        <pt x="514" y="398" on="0"/>
        <pt x="544" y="398" on="1"/>
        <pt x="640" y="398" on="0"/>
        <pt x="640" y="333" on="1"/>
        <pt x="640" y="273" on="0"/>
        <pt x="492" y="95" on="0"/>
        <pt x="279" y="-41" on="0"/>
        <pt x="198" y="-41" on="1"/>
        <pt x="139" y="-41" on="0"/>
        <pt x="139" y="10" on="1"/>
        <pt x="139" y="45" on="0"/>
        <pt x="189" y="140" on="0"/>
        <pt x="215" y="164" on="1"/>
        <pt x="221" y="168" on="0"/>
        <pt x="225" y="168" on="0"/>
        <pt x="225" y="167" on="1"/>
        <pt x="203" y="137" on="0"/>
        <pt x="165" y="48" on="0"/>
        <pt x="165" y="14" on="1"/>
        <pt x="165" y="-30" on="0"/>
        <pt x="204" y="-30" on="1"/>
        <pt x="257" y="-30" on="0"/>
        <pt x="451" y="110" on="0"/>
        <pt x="605" y="291" on="0"/>
        <pt x="605" y="343" on="1"/>
        <pt x="605" y="388" on="0"/>
        <pt x="540" y="388" on="1"/>
        <pt x="472" y="388" on="0"/>
        <pt x="434" y="372" on="1"/>
        <pt x="420" y="367" on="1"/>
        <pt x="353" y="340" on="0"/>
        <pt x="343" y="340" on="0"/>
        <pt x="343" y="345" on="0"/>
        <pt x="351" y="350" on="1"/>
        <pt x="444" y="388" on="0"/>
        <pt x="646" y="538" on="0"/>
        <pt x="772" y="677" on="0"/>
        <pt x="772" y="709" on="1"/>
        <pt x="772" y="726" on="0"/>
        <pt x="750" y="726" on="1"/>
        <pt x="648" y="726" on="0"/>
        <pt x="367" y="545" on="0"/>
        <pt x="134" y="303" on="0"/>
        <pt x="-32" y="57" on="0"/>
        <pt x="-32" y="-7" on="1"/>
        <pt x="-32" y="-18" on="0"/>
        <pt x="-26" y="-18" on="1"/>
        <pt x="-7" y="-18" on="0"/>
        <pt x="168" y="187" on="0"/>
        <pt x="344" y="437" on="0"/>
        <pt x="360" y="489" on="1"/>
        <pt x="362" y="496" on="0"/>
      </contour>
    </TTGlyph>
    <TTGlyph name="C" xMin="-18" yMin="-43" xMax="735" yMax="733">
      <contour>
        <pt x="98" y="275" on="0"/>
        <pt x="22" y="103" on="0"/>
        <pt x="22" y="-14" on="0"/>
        <pt x="67" y="-14" on="1"/>
        <pt x="128" y="-14" on="0"/>
        <pt x="312" y="110" on="1"/>
        <pt x="379" y="152" on="1"/>
        <pt x="386" y="156" on="0"/>
        <pt x="402" y="156" on="0"/>
        <pt x="402" y="152" on="0"/>
        <pt x="399" y="150" on="1"/>
        <pt x="327" y="106" on="1"/>
        <pt x="315" y="98" on="0"/>
        <pt x="227" y="39" on="0"/>
        <pt x="185" y="13" on="0"/>
        <pt x="151" y="-6" on="1"/>
        <pt x="87" y="-43" on="0"/>
        <pt x="46" y="-43" on="1"/>
        <pt x="-18" y="-43" on="0"/>
        <pt x="-18" y="53" on="1"/>
        <pt x="-18" y="116" on="0"/>
        <pt x="58" y="292" on="0"/>
        <pt x="195" y="474" on="0"/>
        <pt x="366" y="632" on="0"/>
        <pt x="579" y="733" on="0"/>
        <pt x="680" y="733" on="1"/>
        <pt x="735" y="733" on="0"/>
        <pt x="735" y="691" on="1"/>
        <pt x="735" y="641" on="0"/>
        <pt x="601" y="468" on="0"/>
        <pt x="424" y="332" on="0"/>
        <pt x="371" y="332" on="1"/>
        <pt x="347" y="332" on="0"/>
        <pt x="347" y="346" on="1"/>
        <pt x="347" y="356" on="0"/>
        <pt x="390" y="401" on="0"/>
        <pt x="403" y="401" on="1"/>
        <pt x="407" y="401" on="0"/>
        <pt x="407" y="394" on="0"/>
        <pt x="382" y="371" on="0"/>
        <pt x="382" y="364" on="0"/>
        <pt x="384" y="364" on="1"/>
        <pt x="414" y="364" on="0"/>
        <pt x="578" y="488" on="0"/>
        <pt x="722" y="647" on="0"/>
        <pt x="722" y="688" on="1"/>
        <pt x="722" y="721" on="0"/>
        <pt x="672" y="721" on="1"/>
        <pt x="586" y="721" on="0"/>
        <pt x="393" y="618" on="0"/>
        <pt x="231" y="457" on="0"/>
      </contour>
    </TTGlyph>
    <TTGlyph name="Ccedilla" xMin="-45" yMin="-147" xMax="735" yMax="733">
      <contour>
        <pt x="98" y="275" on="0"/>
        <pt x="22" y="103" on="0"/>
        <pt x="22" y="-14" on="0"/>
        <pt x="67" y="-14" on="1"/>
        <pt x="128" y="-14" on="0"/>
        <pt x="312" y="110" on="1"/>
        <pt x="379" y="152" on="1"/>
        <pt x="386" y="156" on="0"/>
        <pt x="402" y="156" on="0"/>
        <pt x="402" y="152" on="0"/>
        <pt x="399" y="150" on="1"/>
        <pt x="327" y="106" on="1"/>
        <pt x="315" y="98" on="0"/>
        <pt x="227" y="39" on="0"/>
        <pt x="185" y="13" on="0"/>
        <pt x="151" y="-6" on="1"/>
        <pt x="87" y="-43" on="0"/>
        <pt x="46" y="-43" on="1"/>
        <pt x="41" y="-43" on="1"/>
        <pt x="32" y="-58" on="1"/>
        <pt x="83" y="-59" on="0"/>
        <pt x="83" y="-84" on="1"/>
        <pt x="83" y="-105" on="0"/>
        <pt x="22" y="-147" on="0"/>
        <pt x="-30" y="-147" on="0"/>
        <pt x="-43" y="-135" on="1"/>
        <pt x="-45" y="-133" on="0"/>
        <pt x="-45" y="-127" on="0"/>
        <pt x="-37" y="-127" on="0"/>
        <pt x="-23" y="-140" on="0"/>
        <pt x="19" y="-140" on="0"/>
        <pt x="59" y="-110" on="0"/>
        <pt x="59" y="-93" on="1"/>
        <pt x="59" y="-67" on="0"/>
        <pt x="15" y="-66" on="1"/>
        <pt x="29" y="-41" on="1"/>
        <pt x="-18" y="-30" on="0"/>
        <pt x="-18" y="53" on="1"/>
        <pt x="-18" y="116" on="0"/>
        <pt x="58" y="292" on="0"/>
        <pt x="195" y="474" on="0"/>
        <pt x="366" y="632" on="0"/>
        <pt x="579" y="733" on="0"/>
        <pt x="680" y="733" on="1"/>
        <pt x="735" y="733" on="0"/>
        <pt x="735" y="691" on="1"/>
        <pt x="735" y="641" on="0"/>
        <pt x="601" y="468" on="0"/>
        <pt x="424" y="332" on="0"/>
        <pt x="371" y="332" on="1"/>
        <pt x="347" y="332" on="0"/>
        <pt x="347" y="346" on="1"/>
        <pt x="347" y="356" on="0"/>
        <pt x="390" y="401" on="0"/>
        <pt x="403" y="401" on="1"/>
        <pt x="407" y="401" on="0"/>
        <pt x="407" y="394" on="0"/>
        <pt x="382" y="371" on="0"/>
        <pt x="382" y="364" on="0"/>
        <pt x="384" y="364" on="1"/>
        <pt x="414" y="364" on="0"/>
        <pt x="578" y="488" on="0"/>
        <pt x="722" y="647" on="0"/>
        <pt x="722" y="688" on="1"/>
        <pt x="722" y="721" on="0"/>
        <pt x="672" y="721" on="1"/>
        <pt x="586" y="721" on="0"/>
        <pt x="393" y="618" on="0"/>
        <pt x="231" y="457" on="0"/>
      </contour>
    </TTGlyph>
    <TTGlyph name="D" xMin="-1" yMin="-148" xMax="943" yMax="743">
      <contour>
        <pt x="64" y="113" on="1"/>
        <pt x="60" y="125" on="1"/>
        <pt x="57" y="125" on="0"/>
        <pt x="49" y="93" on="1"/>
        <pt x="26" y="1" on="0"/>
        <pt x="26" y="-122" on="0"/>
        <pt x="47" y="-122" on="1"/>
        <pt x="50" y="-122" on="0"/>
        <pt x="154" y="2" on="1"/>
        <pt x="118" y="20" on="0"/>
        <pt x="70" y="80" on="0"/>
      </contour>
      <contour>
        <pt x="621" y="596" on="1"/>
        <pt x="635" y="616" on="0"/>
        <pt x="653" y="616" on="0"/>
        <pt x="653" y="591" on="1"/>
        <pt x="653" y="547" on="0"/>
        <pt x="279" y="114" on="1"/>
        <pt x="292" y="114" on="1"/>
        <pt x="331" y="114" on="0"/>
        <pt x="425" y="154" on="0"/>
        <pt x="464" y="182" on="1"/>
        <pt x="541" y="236" on="0"/>
        <pt x="590" y="287" on="1"/>
        <pt x="610" y="307" on="1"/>
        <pt x="619" y="317" on="0"/>
        <pt x="631" y="317" on="0"/>
        <pt x="631" y="313" on="1"/>
        <pt x="631" y="307" on="0"/>
        <pt x="623" y="299" on="1"/>
        <pt x="602" y="278" on="1"/>
        <pt x="588" y="264" on="0"/>
        <pt x="507" y="196" on="0"/>
        <pt x="430" y="144" on="0"/>
        <pt x="329" y="101" on="0"/>
        <pt x="289" y="101" on="1"/>
        <pt x="275" y="101" on="0"/>
        <pt x="269" y="102" on="1"/>
        <pt x="228" y="59" on="0"/>
        <pt x="185" y="7" on="1"/>
        <pt x="218" y="-5" on="0"/>
        <pt x="248" y="-5" on="1"/>
        <pt x="346" y="-5" on="0"/>
        <pt x="590" y="134" on="0"/>
        <pt x="786" y="328" on="0"/>
        <pt x="921" y="546" on="0"/>
        <pt x="921" y="621" on="1"/>
        <pt x="921" y="731" on="0"/>
        <pt x="779" y="731" on="1"/>
        <pt x="692" y="731" on="0"/>
        <pt x="515" y="654" on="0"/>
        <pt x="379" y="532" on="0"/>
        <pt x="270" y="389" on="0"/>
        <pt x="212" y="251" on="0"/>
        <pt x="212" y="141" on="0"/>
        <pt x="251" y="122" on="1"/>
        <pt x="564" y="513" on="0"/>
      </contour>
      <contour>
        <pt x="97" y="195" on="1"/>
        <pt x="91" y="153" on="1"/>
        <pt x="91" y="112" on="0"/>
        <pt x="131" y="38" on="0"/>
        <pt x="166" y="17" on="1"/>
        <pt x="240" y="109" on="1"/>
        <pt x="181" y="134" on="0"/>
        <pt x="181" y="288" on="0"/>
        <pt x="271" y="467" on="0"/>
        <pt x="424" y="631" on="0"/>
        <pt x="660" y="743" on="0"/>
        <pt x="789" y="743" on="1"/>
        <pt x="867" y="743" on="0"/>
        <pt x="943" y="673" on="0"/>
        <pt x="943" y="546" on="0"/>
        <pt x="866" y="379" on="0"/>
        <pt x="726" y="212" on="0"/>
        <pt x="554" y="71" on="0"/>
        <pt x="340" y="-17" on="0"/>
        <pt x="239" y="-17" on="1"/>
        <pt x="204" y="-17" on="0"/>
        <pt x="174" y="-6" on="1"/>
        <pt x="100" y="-88" on="0"/>
        <pt x="61" y="-128" on="1"/>
        <pt x="41" y="-148" on="0"/>
        <pt x="26" y="-148" on="1"/>
        <pt x="-1" y="-148" on="0"/>
        <pt x="-1" y="-11" on="0"/>
        <pt x="65" y="204" on="0"/>
        <pt x="90" y="204" on="1"/>
        <pt x="97" y="204" on="0"/>
      </contour>
    </TTGlyph>
    <TTGlyph name="E" xMin="-6" yMin="-46" xMax="696" yMax="771">
      <contour>
        <pt x="61" y="-46" on="1"/>
        <pt x="-6" y="-46" on="0"/>
        <pt x="-6" y="94" on="0"/>
        <pt x="143" y="292" on="0"/>
        <pt x="254" y="347" on="1"/>
        <pt x="218" y="338" on="0"/>
        <pt x="193" y="338" on="1"/>
        <pt x="122" y="338" on="0"/>
        <pt x="122" y="393" on="1"/>
        <pt x="122" y="437" on="0"/>
        <pt x="215" y="565" on="0"/>
        <pt x="359" y="686" on="0"/>
        <pt x="558" y="771" on="0"/>
        <pt x="652" y="771" on="1"/>
        <pt x="696" y="771" on="0"/>
        <pt x="696" y="746" on="1"/>
        <pt x="696" y="703" on="0"/>
        <pt x="495" y="547" on="0"/>
        <pt x="444" y="547" on="1"/>
        <pt x="430" y="547" on="0"/>
        <pt x="430" y="578" on="0"/>
        <pt x="472" y="613" on="0"/>
        <pt x="483" y="613" on="0"/>
        <pt x="483" y="604" on="0"/>
        <pt x="464" y="592" on="0"/>
        <pt x="464" y="583" on="0"/>
        <pt x="468" y="583" on="1"/>
        <pt x="496" y="583" on="0"/>
        <pt x="678" y="725" on="0"/>
        <pt x="678" y="752" on="1"/>
        <pt x="678" y="762" on="0"/>
        <pt x="663" y="762" on="1"/>
        <pt x="580" y="762" on="0"/>
        <pt x="391" y="669" on="0"/>
        <pt x="249" y="544" on="0"/>
        <pt x="155" y="416" on="0"/>
        <pt x="155" y="380" on="1"/>
        <pt x="155" y="349" on="0"/>
        <pt x="191" y="349" on="1"/>
        <pt x="273" y="349" on="0"/>
        <pt x="374" y="416" on="1"/>
        <pt x="389" y="425" on="0"/>
        <pt x="420" y="446" on="0"/>
        <pt x="427" y="451" on="0"/>
        <pt x="433" y="451" on="0"/>
        <pt x="433" y="443" on="1"/>
        <pt x="433" y="440" on="1"/>
        <pt x="433" y="431" on="0"/>
        <pt x="356" y="386" on="1"/>
        <pt x="330" y="370" on="1"/>
        <pt x="226" y="308" on="0"/>
        <pt x="21" y="67" on="0"/>
        <pt x="21" y="6" on="1"/>
        <pt x="21" y="-29" on="0"/>
        <pt x="62" y="-29" on="1"/>
        <pt x="126" y="-29" on="0"/>
        <pt x="333" y="110" on="1"/>
        <pt x="400" y="152" on="1"/>
        <pt x="407" y="156" on="0"/>
        <pt x="423" y="156" on="0"/>
        <pt x="423" y="152" on="0"/>
        <pt x="420" y="150" on="1"/>
        <pt x="348" y="106" on="1"/>
        <pt x="339" y="100" on="0"/>
        <pt x="245" y="37" on="0"/>
        <pt x="205" y="12" on="0"/>
        <pt x="168" y="-8" on="1"/>
        <pt x="80" y="-46" on="0"/>
        <pt x="63" y="-46" on="1"/>
        <pt x="62" y="-46" on="0"/>
      </contour>
    </TTGlyph>
    <TTGlyph name="Eacute" xMin="-6" yMin="-46" xMax="716" yMax="878">
      <contour>
        <pt x="716" y="878" on="0"/>
        <pt x="716" y="850" on="0"/>
        <pt x="578" y="804" on="0"/>
        <pt x="564" y="804" on="0"/>
        <pt x="564" y="806" on="1"/>
        <pt x="564" y="810" on="0"/>
        <pt x="578" y="815" on="0"/>
        <pt x="609" y="832" on="0"/>
        <pt x="659" y="861" on="0"/>
        <pt x="683" y="873" on="1"/>
        <pt x="696" y="878" on="0"/>
        <pt x="704" y="878" on="1"/>
      </contour>
      <contour>
        <pt x="61" y="-46" on="1"/>
        <pt x="-6" y="-46" on="0"/>
        <pt x="-6" y="94" on="0"/>
        <pt x="143" y="292" on="0"/>
        <pt x="254" y="347" on="1"/>
        <pt x="218" y="338" on="0"/>
        <pt x="193" y="338" on="1"/>
        <pt x="122" y="338" on="0"/>
        <pt x="122" y="393" on="1"/>
        <pt x="122" y="437" on="0"/>
        <pt x="215" y="565" on="0"/>
        <pt x="359" y="686" on="0"/>
        <pt x="558" y="771" on="0"/>
        <pt x="652" y="771" on="1"/>
        <pt x="696" y="771" on="0"/>
        <pt x="696" y="746" on="1"/>
        <pt x="696" y="703" on="0"/>
        <pt x="495" y="547" on="0"/>
        <pt x="444" y="547" on="1"/>
        <pt x="430" y="547" on="0"/>
        <pt x="430" y="578" on="0"/>
        <pt x="472" y="613" on="0"/>
        <pt x="483" y="613" on="0"/>
        <pt x="483" y="604" on="0"/>
        <pt x="464" y="592" on="0"/>
        <pt x="464" y="583" on="0"/>
        <pt x="468" y="583" on="1"/>
        <pt x="496" y="583" on="0"/>
        <pt x="678" y="725" on="0"/>
        <pt x="678" y="752" on="1"/>
        <pt x="678" y="762" on="0"/>
        <pt x="663" y="762" on="1"/>
        <pt x="580" y="762" on="0"/>
        <pt x="391" y="669" on="0"/>
        <pt x="249" y="544" on="0"/>
        <pt x="155" y="416" on="0"/>
        <pt x="155" y="380" on="1"/>
        <pt x="155" y="349" on="0"/>
        <pt x="191" y="349" on="1"/>
        <pt x="273" y="349" on="0"/>
        <pt x="374" y="416" on="1"/>
        <pt x="389" y="425" on="0"/>
        <pt x="420" y="446" on="0"/>
        <pt x="427" y="451" on="0"/>
        <pt x="433" y="451" on="0"/>
        <pt x="433" y="443" on="1"/>
        <pt x="433" y="440" on="1"/>
        <pt x="433" y="431" on="0"/>
        <pt x="356" y="386" on="1"/>
        <pt x="330" y="370" on="1"/>
        <pt x="226" y="308" on="0"/>
        <pt x="21" y="67" on="0"/>
        <pt x="21" y="6" on="1"/>
        <pt x="21" y="-29" on="0"/>
        <pt x="62" y="-29" on="1"/>
        <pt x="126" y="-29" on="0"/>
        <pt x="333" y="110" on="1"/>
        <pt x="400" y="152" on="1"/>
        <pt x="407" y="156" on="0"/>
        <pt x="423" y="156" on="0"/>
        <pt x="423" y="152" on="0"/>
        <pt x="420" y="150" on="1"/>
        <pt x="348" y="106" on="1"/>
        <pt x="339" y="100" on="0"/>
        <pt x="245" y="37" on="0"/>
        <pt x="205" y="12" on="0"/>
        <pt x="168" y="-8" on="1"/>
        <pt x="80" y="-46" on="0"/>
        <pt x="63" y="-46" on="1"/>
        <pt x="62" y="-46" on="0"/>
      </contour>
    </TTGlyph>
    <TTGlyph name="Ecircumflex" xMin="-6" yMin="-46" xMax="726" yMax="878">
      <contour>
        <pt x="650" y="828" on="1"/>
        <pt x="547" y="785" on="0"/>
        <pt x="544" y="786" on="1"/>
        <pt x="535" y="786" on="0"/>
        <pt x="535" y="790" on="1"/>
        <pt x="535" y="792" on="1"/>
        <pt x="535" y="795" on="0"/>
        <pt x="568" y="811" on="0"/>
        <pt x="600" y="830" on="1"/>
        <pt x="682" y="878" on="0"/>
        <pt x="699" y="878" on="0"/>
        <pt x="703" y="859" on="0"/>
        <pt x="708" y="829" on="0"/>
        <pt x="709" y="824" on="1"/>
        <pt x="712" y="809" on="0"/>
        <pt x="725" y="790" on="1"/>
        <pt x="726" y="788" on="1"/>
        <pt x="726" y="785" on="0"/>
        <pt x="710" y="785" on="0"/>
        <pt x="688" y="821" on="0"/>
        <pt x="682" y="841" on="1"/>
      </contour>
      <contour>
        <pt x="61" y="-46" on="1"/>
        <pt x="-6" y="-46" on="0"/>
        <pt x="-6" y="94" on="0"/>
        <pt x="143" y="292" on="0"/>
        <pt x="254" y="347" on="1"/>
        <pt x="218" y="338" on="0"/>
        <pt x="193" y="338" on="1"/>
        <pt x="122" y="338" on="0"/>
        <pt x="122" y="393" on="1"/>
        <pt x="122" y="437" on="0"/>
        <pt x="215" y="565" on="0"/>
        <pt x="359" y="686" on="0"/>
        <pt x="558" y="771" on="0"/>
        <pt x="652" y="771" on="1"/>
        <pt x="696" y="771" on="0"/>
        <pt x="696" y="746" on="1"/>
        <pt x="696" y="703" on="0"/>
        <pt x="495" y="547" on="0"/>
        <pt x="444" y="547" on="1"/>
        <pt x="430" y="547" on="0"/>
        <pt x="430" y="578" on="0"/>
        <pt x="472" y="613" on="0"/>
        <pt x="483" y="613" on="0"/>
        <pt x="483" y="604" on="0"/>
        <pt x="464" y="592" on="0"/>
        <pt x="464" y="583" on="0"/>
        <pt x="468" y="583" on="1"/>
        <pt x="496" y="583" on="0"/>
        <pt x="678" y="725" on="0"/>
        <pt x="678" y="752" on="1"/>
        <pt x="678" y="762" on="0"/>
        <pt x="663" y="762" on="1"/>
        <pt x="580" y="762" on="0"/>
        <pt x="391" y="669" on="0"/>
        <pt x="249" y="544" on="0"/>
        <pt x="155" y="416" on="0"/>
        <pt x="155" y="380" on="1"/>
        <pt x="155" y="349" on="0"/>
        <pt x="191" y="349" on="1"/>
        <pt x="273" y="349" on="0"/>
        <pt x="374" y="416" on="1"/>
        <pt x="389" y="425" on="0"/>
        <pt x="420" y="446" on="0"/>
        <pt x="427" y="451" on="0"/>
        <pt x="433" y="451" on="0"/>
        <pt x="433" y="443" on="1"/>
        <pt x="433" y="440" on="1"/>
        <pt x="433" y="431" on="0"/>
        <pt x="356" y="386" on="1"/>
        <pt x="330" y="370" on="1"/>
        <pt x="226" y="308" on="0"/>
        <pt x="21" y="67" on="0"/>
        <pt x="21" y="6" on="1"/>
        <pt x="21" y="-29" on="0"/>
        <pt x="62" y="-29" on="1"/>
        <pt x="126" y="-29" on="0"/>
        <pt x="333" y="110" on="1"/>
        <pt x="400" y="152" on="1"/>
        <pt x="407" y="156" on="0"/>
        <pt x="423" y="156" on="0"/>
        <pt x="423" y="152" on="0"/>
        <pt x="420" y="150" on="1"/>
        <pt x="348" y="106" on="1"/>
        <pt x="339" y="100" on="0"/>
        <pt x="245" y="37" on="0"/>
        <pt x="205" y="12" on="0"/>
        <pt x="168" y="-8" on="1"/>
        <pt x="80" y="-46" on="0"/>
        <pt x="63" y="-46" on="1"/>
        <pt x="62" y="-46" on="0"/>
      </contour>
    </TTGlyph>
    <TTGlyph name="Edieresis" xMin="-6" yMin="-46" xMax="696" yMax="855">
      <contour>
        <pt x="536" y="796" on="0"/>
        <pt x="536" y="827" on="0"/>
        <pt x="566" y="855" on="0"/>
        <pt x="587" y="855" on="0"/>
        <pt x="598" y="843" on="0"/>
        <pt x="598" y="827" on="0"/>
        <pt x="570" y="796" on="0"/>
      </contour>
      <contour>
        <pt x="616" y="796" on="0"/>
        <pt x="616" y="827" on="0"/>
        <pt x="646" y="855" on="0"/>
        <pt x="667" y="855" on="0"/>
        <pt x="678" y="843" on="0"/>
        <pt x="678" y="827" on="0"/>
        <pt x="650" y="796" on="0"/>
      </contour>
      <contour>
        <pt x="143" y="292" on="0"/>
        <pt x="-6" y="94" on="0"/>
        <pt x="-6" y="-46" on="0"/>
        <pt x="61" y="-46" on="1"/>
        <pt x="102" y="-46" on="0"/>
        <pt x="205" y="12" on="0"/>
        <pt x="245" y="37" on="0"/>
        <pt x="292" y="68" on="1"/>
        <pt x="354" y="110" on="0"/>
        <pt x="423" y="152" on="0"/>
        <pt x="423" y="156" on="0"/>
        <pt x="407" y="156" on="0"/>
        <pt x="400" y="152" on="1"/>
        <pt x="333" y="110" on="1"/>
        <pt x="126" y="-29" on="0"/>
        <pt x="62" y="-29" on="1"/>
        <pt x="21" y="-29" on="0"/>
        <pt x="21" y="6" on="1"/>
        <pt x="21" y="67" on="0"/>
        <pt x="226" y="308" on="0"/>
        <pt x="433" y="432" on="0"/>
        <pt x="433" y="440" on="1"/>
        <pt x="433" y="443" on="1"/>
        <pt x="433" y="451" on="0"/>
        <pt x="427" y="451" on="0"/>
        <pt x="420" y="446" on="0"/>
        <pt x="389" y="425" on="0"/>
        <pt x="360" y="406" on="0"/>
        <pt x="312" y="380" on="0"/>
        <pt x="290" y="371" on="1"/>
        <pt x="236" y="349" on="0"/>
        <pt x="155" y="349" on="0"/>
        <pt x="155" y="380" on="1"/>
        <pt x="155" y="416" on="0"/>
        <pt x="249" y="544" on="0"/>
        <pt x="391" y="669" on="0"/>
        <pt x="580" y="762" on="0"/>
        <pt x="663" y="762" on="1"/>
        <pt x="678" y="762" on="0"/>
        <pt x="678" y="752" on="1"/>
        <pt x="678" y="725" on="0"/>
        <pt x="496" y="583" on="0"/>
        <pt x="468" y="583" on="1"/>
        <pt x="464" y="583" on="0"/>
        <pt x="464" y="592" on="0"/>
        <pt x="483" y="604" on="0"/>
        <pt x="483" y="613" on="0"/>
        <pt x="472" y="613" on="0"/>
        <pt x="430" y="578" on="0"/>
        <pt x="430" y="547" on="0"/>
        <pt x="444" y="547" on="1"/>
        <pt x="495" y="547" on="0"/>
        <pt x="696" y="703" on="0"/>
        <pt x="696" y="746" on="1"/>
        <pt x="696" y="771" on="0"/>
        <pt x="652" y="771" on="1"/>
        <pt x="558" y="771" on="0"/>
        <pt x="359" y="686" on="0"/>
        <pt x="215" y="565" on="0"/>
        <pt x="122" y="437" on="0"/>
        <pt x="122" y="393" on="1"/>
        <pt x="122" y="338" on="0"/>
        <pt x="193" y="338" on="1"/>
        <pt x="218" y="338" on="0"/>
        <pt x="254" y="347" on="1"/>
      </contour>
    </TTGlyph>
    <TTGlyph name="Egrave" xMin="-6" yMin="-46" xMax="710" yMax="881">
      <contour>
        <pt x="580" y="870" on="1"/>
        <pt x="580" y="881" on="0"/>
        <pt x="604" y="881" on="0"/>
        <pt x="609" y="876" on="1"/>
        <pt x="697" y="806" on="0"/>
        <pt x="710" y="799" on="0"/>
        <pt x="710" y="795" on="0"/>
        <pt x="695" y="795" on="0"/>
        <pt x="580" y="854" on="0"/>
      </contour>
      <contour>
        <pt x="143" y="292" on="0"/>
        <pt x="-6" y="94" on="0"/>
        <pt x="-6" y="-46" on="0"/>
        <pt x="61" y="-46" on="1"/>
        <pt x="102" y="-46" on="0"/>
        <pt x="205" y="12" on="0"/>
        <pt x="245" y="37" on="0"/>
        <pt x="292" y="68" on="1"/>
        <pt x="354" y="110" on="0"/>
        <pt x="423" y="152" on="0"/>
        <pt x="423" y="156" on="0"/>
        <pt x="407" y="156" on="0"/>
        <pt x="400" y="152" on="1"/>
        <pt x="333" y="110" on="1"/>
        <pt x="126" y="-29" on="0"/>
        <pt x="62" y="-29" on="1"/>
        <pt x="21" y="-29" on="0"/>
        <pt x="21" y="6" on="1"/>
        <pt x="21" y="67" on="0"/>
        <pt x="226" y="308" on="0"/>
        <pt x="433" y="432" on="0"/>
        <pt x="433" y="440" on="1"/>
        <pt x="433" y="443" on="1"/>
        <pt x="433" y="451" on="0"/>
        <pt x="427" y="451" on="0"/>
        <pt x="420" y="446" on="0"/>
        <pt x="389" y="425" on="0"/>
        <pt x="360" y="406" on="0"/>
        <pt x="312" y="380" on="0"/>
        <pt x="290" y="371" on="1"/>
        <pt x="236" y="349" on="0"/>
        <pt x="155" y="349" on="0"/>
        <pt x="155" y="380" on="1"/>
        <pt x="155" y="416" on="0"/>
        <pt x="249" y="544" on="0"/>
        <pt x="391" y="669" on="0"/>
        <pt x="580" y="762" on="0"/>
        <pt x="663" y="762" on="1"/>
        <pt x="678" y="762" on="0"/>
        <pt x="678" y="752" on="1"/>
        <pt x="678" y="725" on="0"/>
        <pt x="496" y="583" on="0"/>
        <pt x="468" y="583" on="1"/>
        <pt x="464" y="583" on="0"/>
        <pt x="464" y="592" on="0"/>
        <pt x="483" y="604" on="0"/>
        <pt x="483" y="613" on="0"/>
        <pt x="472" y="613" on="0"/>
        <pt x="430" y="578" on="0"/>
        <pt x="430" y="547" on="0"/>
        <pt x="444" y="547" on="1"/>
        <pt x="495" y="547" on="0"/>
        <pt x="696" y="703" on="0"/>
        <pt x="696" y="746" on="1"/>
        <pt x="696" y="771" on="0"/>
        <pt x="652" y="771" on="1"/>
        <pt x="558" y="771" on="0"/>
        <pt x="359" y="686" on="0"/>
        <pt x="215" y="565" on="0"/>
        <pt x="122" y="437" on="0"/>
        <pt x="122" y="393" on="1"/>
        <pt x="122" y="338" on="0"/>
        <pt x="193" y="338" on="1"/>
        <pt x="218" y="338" on="0"/>
        <pt x="254" y="347" on="1"/>
      </contour>
    </TTGlyph>
    <TTGlyph name="Eth" xMin="-1" yMin="-148" xMax="943" yMax="743">
      <contour>
        <pt x="64" y="113" on="1"/>
        <pt x="60" y="125" on="1"/>
        <pt x="57" y="125" on="0"/>
        <pt x="49" y="93" on="1"/>
        <pt x="26" y="1" on="0"/>
        <pt x="26" y="-122" on="0"/>
        <pt x="47" y="-122" on="1"/>
        <pt x="50" y="-122" on="0"/>
        <pt x="154" y="2" on="1"/>
        <pt x="118" y="20" on="0"/>
        <pt x="70" y="80" on="0"/>
      </contour>
      <contour>
        <pt x="415" y="329" on="1"/>
        <pt x="597" y="562" on="0"/>
        <pt x="635" y="616" on="0"/>
        <pt x="653" y="616" on="0"/>
        <pt x="653" y="561" on="0"/>
        <pt x="459" y="327" on="1"/>
        <pt x="524" y="324" on="1"/>
        <pt x="555" y="324" on="0"/>
        <pt x="555" y="306" on="0"/>
        <pt x="519" y="304" on="1"/>
        <pt x="518" y="304" on="0"/>
        <pt x="442" y="306" on="1"/>
        <pt x="360" y="207" on="0"/>
        <pt x="279" y="114" on="1"/>
        <pt x="292" y="114" on="1"/>
        <pt x="331" y="114" on="0"/>
        <pt x="425" y="154" on="0"/>
        <pt x="464" y="182" on="1"/>
        <pt x="541" y="236" on="0"/>
        <pt x="590" y="287" on="1"/>
        <pt x="610" y="307" on="1"/>
        <pt x="619" y="317" on="0"/>
        <pt x="631" y="317" on="0"/>
        <pt x="631" y="313" on="1"/>
        <pt x="631" y="307" on="0"/>
        <pt x="623" y="299" on="1"/>
        <pt x="602" y="278" on="1"/>
        <pt x="588" y="264" on="0"/>
        <pt x="507" y="196" on="0"/>
        <pt x="430" y="144" on="0"/>
        <pt x="329" y="101" on="0"/>
        <pt x="289" y="101" on="1"/>
        <pt x="275" y="101" on="0"/>
        <pt x="269" y="102" on="1"/>
        <pt x="228" y="59" on="0"/>
        <pt x="185" y="7" on="1"/>
        <pt x="218" y="-5" on="0"/>
        <pt x="248" y="-5" on="1"/>
        <pt x="346" y="-5" on="0"/>
        <pt x="590" y="134" on="0"/>
        <pt x="786" y="328" on="0"/>
        <pt x="921" y="546" on="0"/>
        <pt x="921" y="621" on="1"/>
        <pt x="921" y="731" on="0"/>
        <pt x="779" y="731" on="1"/>
        <pt x="692" y="731" on="0"/>
        <pt x="515" y="654" on="0"/>
        <pt x="379" y="532" on="0"/>
        <pt x="270" y="389" on="0"/>
        <pt x="212" y="251" on="0"/>
        <pt x="212" y="141" on="0"/>
        <pt x="251" y="122" on="1"/>
        <pt x="397" y="306" on="1"/>
        <pt x="299" y="306" on="1"/>
        <pt x="290" y="306" on="0"/>
        <pt x="290" y="313" on="1"/>
        <pt x="290" y="322" on="0"/>
        <pt x="305" y="332" on="0"/>
        <pt x="313" y="332" on="1"/>
        <pt x="360" y="332" on="0"/>
      </contour>
      <contour>
        <pt x="97" y="195" on="1"/>
        <pt x="91" y="153" on="1"/>
        <pt x="91" y="112" on="0"/>
        <pt x="131" y="38" on="0"/>
        <pt x="166" y="17" on="1"/>
        <pt x="240" y="109" on="1"/>
        <pt x="181" y="134" on="0"/>
        <pt x="181" y="288" on="0"/>
        <pt x="271" y="467" on="0"/>
        <pt x="424" y="631" on="0"/>
        <pt x="660" y="743" on="0"/>
        <pt x="789" y="743" on="1"/>
        <pt x="867" y="743" on="0"/>
        <pt x="943" y="673" on="0"/>
        <pt x="943" y="546" on="0"/>
        <pt x="866" y="379" on="0"/>
        <pt x="726" y="212" on="0"/>
        <pt x="554" y="71" on="0"/>
        <pt x="340" y="-17" on="0"/>
        <pt x="239" y="-17" on="1"/>
        <pt x="204" y="-17" on="0"/>
        <pt x="174" y="-6" on="1"/>
        <pt x="100" y="-88" on="0"/>
        <pt x="61" y="-128" on="1"/>
        <pt x="41" y="-148" on="0"/>
        <pt x="26" y="-148" on="1"/>
        <pt x="-1" y="-148" on="0"/>
        <pt x="-1" y="-11" on="0"/>
        <pt x="65" y="204" on="0"/>
        <pt x="90" y="204" on="1"/>
        <pt x="97" y="204" on="0"/>
      </contour>
    </TTGlyph>
    <TTGlyph name="Euro" xMin="29" yMin="-30" xMax="648" yMax="522">
      <contour>
        <pt x="77" y="302" on="1"/>
        <pt x="134" y="301" on="1"/>
        <pt x="211" y="398" on="0"/>
        <pt x="441" y="522" on="0"/>
        <pt x="582" y="522" on="1"/>
        <pt x="648" y="522" on="0"/>
        <pt x="648" y="493" on="1"/>
        <pt x="648" y="457" on="0"/>
        <pt x="480" y="354" on="0"/>
        <pt x="420" y="352" on="1"/>
        <pt x="396" y="352" on="0"/>
        <pt x="396" y="366" on="1"/>
        <pt x="396" y="375" on="0"/>
        <pt x="439" y="412" on="0"/>
        <pt x="456" y="412" on="0"/>
        <pt x="456" y="405" on="0"/>
        <pt x="431" y="382" on="0"/>
        <pt x="431" y="375" on="0"/>
        <pt x="433" y="375" on="1"/>
        <pt x="466" y="376" on="0"/>
        <pt x="630" y="465" on="0"/>
        <pt x="630" y="491" on="1"/>
        <pt x="630" y="510" on="0"/>
        <pt x="574" y="510" on="1"/>
        <pt x="463" y="510" on="0"/>
        <pt x="256" y="391" on="0"/>
        <pt x="179" y="300" on="1"/>
        <pt x="294" y="295" on="1"/>
        <pt x="314" y="295" on="0"/>
        <pt x="314" y="286" on="0"/>
        <pt x="292" y="277" on="0"/>
        <pt x="281" y="277" on="1"/>
        <pt x="161" y="278" on="1"/>
        <pt x="159" y="275" on="0"/>
        <pt x="139" y="247" on="1"/>
        <pt x="270" y="242" on="1"/>
        <pt x="290" y="242" on="0"/>
        <pt x="290" y="233" on="0"/>
        <pt x="266" y="224" on="0"/>
        <pt x="254" y="224" on="1"/>
        <pt x="124" y="226" on="1"/>
        <pt x="63" y="129" on="0"/>
        <pt x="63" y="-11" on="0"/>
        <pt x="132" y="-11" on="1"/>
        <pt x="232" y="-11" on="0"/>
        <pt x="381" y="82" on="1"/>
        <pt x="386" y="86" on="0"/>
        <pt x="400" y="86" on="0"/>
        <pt x="400" y="81" on="0"/>
        <pt x="396" y="78" on="1"/>
        <pt x="325" y="31" on="0"/>
        <pt x="169" y="-30" on="0"/>
        <pt x="122" y="-30" on="1"/>
        <pt x="34" y="-30" on="0"/>
        <pt x="34" y="65" on="1"/>
        <pt x="34" y="137" on="0"/>
        <pt x="84" y="226" on="1"/>
        <pt x="38" y="226" on="1"/>
        <pt x="29" y="226" on="0"/>
        <pt x="29" y="232" on="1"/>
        <pt x="29" y="249" on="0"/>
        <pt x="79" y="249" on="0"/>
        <pt x="97" y="248" on="1"/>
        <pt x="103" y="258" on="0"/>
        <pt x="117" y="278" on="1"/>
        <pt x="65" y="278" on="1"/>
        <pt x="56" y="278" on="0"/>
        <pt x="56" y="293" on="0"/>
        <pt x="70" y="302" on="0"/>
      </contour>
    </TTGlyph>
    <TTGlyph name="F" xMin="1" yMin="-92" xMax="801" yMax="790">
      <contour>
        <pt x="783" y="767" on="1"/>
        <pt x="783" y="776" on="0"/>
        <pt x="773" y="776" on="1"/>
        <pt x="734" y="776" on="0"/>
        <pt x="591" y="626" on="1"/>
        <pt x="659" y="638" on="0"/>
        <pt x="783" y="740" on="0"/>
      </contour>
      <contour>
        <pt x="531" y="249" on="1"/>
        <pt x="281" y="255" on="1"/>
        <pt x="275" y="255" on="1"/>
        <pt x="70" y="-5" on="0"/>
        <pt x="70" y="-38" on="1"/>
        <pt x="70" y="-41" on="0"/>
        <pt x="75" y="-41" on="0"/>
        <pt x="82" y="-37" on="0"/>
        <pt x="91" y="-32" on="0"/>
        <pt x="97" y="-28" on="0"/>
        <pt x="99" y="-28" on="0"/>
        <pt x="99" y="-31" on="1"/>
        <pt x="99" y="-42" on="0"/>
        <pt x="30" y="-92" on="0"/>
        <pt x="17" y="-92" on="1"/>
        <pt x="1" y="-92" on="0"/>
        <pt x="1" y="-48" on="0"/>
        <pt x="124" y="134" on="0"/>
        <pt x="221" y="255" on="1"/>
        <pt x="15" y="254" on="1"/>
        <pt x="2" y="254" on="0"/>
        <pt x="2" y="261" on="1"/>
        <pt x="2" y="273" on="0"/>
        <pt x="28" y="287" on="0"/>
        <pt x="44" y="287" on="1"/>
        <pt x="130" y="287" on="0"/>
        <pt x="242" y="281" on="1"/>
        <pt x="392" y="466" on="0"/>
        <pt x="536" y="612" on="1"/>
        <pt x="478" y="613" on="0"/>
        <pt x="385" y="648" on="0"/>
        <pt x="360" y="668" on="1"/>
        <pt x="292" y="722" on="0"/>
        <pt x="163" y="722" on="0"/>
        <pt x="47" y="602" on="0"/>
        <pt x="47" y="564" on="1"/>
        <pt x="47" y="552" on="0"/>
        <pt x="57" y="552" on="1"/>
        <pt x="85" y="552" on="0"/>
        <pt x="166" y="638" on="0"/>
        <pt x="182" y="676" on="1"/>
        <pt x="186" y="685" on="0"/>
        <pt x="189" y="685" on="1"/>
        <pt x="195" y="685" on="0"/>
        <pt x="195" y="680" on="1"/>
        <pt x="195" y="652" on="0"/>
        <pt x="84" y="535" on="0"/>
        <pt x="45" y="535" on="1"/>
        <pt x="17" y="535" on="0"/>
        <pt x="17" y="560" on="1"/>
        <pt x="17" y="609" on="0"/>
        <pt x="171" y="742" on="0"/>
        <pt x="265" y="742" on="1"/>
        <pt x="297" y="742" on="0"/>
        <pt x="393" y="689" on="0"/>
        <pt x="504" y="629" on="0"/>
        <pt x="549" y="624" on="1"/>
        <pt x="717" y="790" on="0"/>
        <pt x="777" y="790" on="1"/>
        <pt x="801" y="790" on="0"/>
        <pt x="801" y="772" on="1"/>
        <pt x="801" y="737" on="0"/>
        <pt x="662" y="628" on="0"/>
        <pt x="581" y="615" on="1"/>
        <pt x="457" y="483" on="0"/>
        <pt x="294" y="279" on="1"/>
        <pt x="403" y="274" on="0"/>
        <pt x="533" y="264" on="1"/>
        <pt x="552" y="264" on="0"/>
        <pt x="554" y="257" on="1"/>
        <pt x="554" y="249" on="0"/>
      </contour>
    </TTGlyph>
    <TTGlyph name="G" xMin="-6" yMin="-149" xMax="636" yMax="738">
      <contour>
        <pt x="47" y="-120" on="1"/>
        <pt x="51" y="-120" on="0"/>
        <pt x="73" y="-98" on="0"/>
        <pt x="139" y="-16" on="1"/>
        <pt x="98" y="-13" on="0"/>
        <pt x="36" y="36" on="0"/>
        <pt x="25" y="70" on="1"/>
        <pt x="24" y="73" on="0"/>
        <pt x="21" y="73" on="0"/>
        <pt x="16" y="18" on="0"/>
        <pt x="16" y="-27" on="1"/>
        <pt x="16" y="-120" on="0"/>
      </contour>
      <contour>
        <pt x="441" y="106" on="1"/>
        <pt x="373" y="61" on="0"/>
        <pt x="218" y="-9" on="0"/>
        <pt x="165" y="-15" on="1"/>
        <pt x="60" y="-133" on="1"/>
        <pt x="45" y="-149" on="0"/>
        <pt x="34" y="-149" on="1"/>
        <pt x="-6" y="-149" on="0"/>
        <pt x="-6" y="-54" on="1"/>
        <pt x="-6" y="38" on="0"/>
        <pt x="21" y="132" on="1"/>
        <pt x="31" y="167" on="0"/>
        <pt x="38" y="167" on="1"/>
        <pt x="48" y="157" on="1"/>
        <pt x="43" y="134" on="0"/>
        <pt x="43" y="117" on="1"/>
        <pt x="43" y="65" on="0"/>
        <pt x="105" y="3" on="0"/>
        <pt x="151" y="0" on="1"/>
        <pt x="359" y="257" on="0"/>
        <pt x="561" y="519" on="1"/>
        <pt x="538" y="503" on="0"/>
        <pt x="504" y="479" on="0"/>
        <pt x="376" y="397" on="0"/>
        <pt x="275" y="344" on="0"/>
        <pt x="150" y="297" on="0"/>
        <pt x="108" y="297" on="1"/>
        <pt x="49" y="297" on="0"/>
        <pt x="49" y="357" on="1"/>
        <pt x="49" y="394" on="0"/>
        <pt x="95" y="492" on="0"/>
        <pt x="188" y="595" on="0"/>
        <pt x="309" y="682" on="0"/>
        <pt x="478" y="738" on="0"/>
        <pt x="568" y="738" on="1"/>
        <pt x="613" y="738" on="0"/>
        <pt x="613" y="709" on="1"/>
        <pt x="613" y="678" on="0"/>
        <pt x="524" y="583" on="0"/>
        <pt x="394" y="509" on="0"/>
        <pt x="343" y="509" on="1"/>
        <pt x="325" y="510" on="0"/>
        <pt x="325" y="538" on="0"/>
        <pt x="350" y="566" on="0"/>
        <pt x="365" y="566" on="0"/>
        <pt x="365" y="560" on="0"/>
        <pt x="355" y="551" on="0"/>
        <pt x="355" y="544" on="0"/>
        <pt x="361" y="544" on="1"/>
        <pt x="398" y="544" on="0"/>
        <pt x="514" y="606" on="0"/>
        <pt x="600" y="685" on="0"/>
        <pt x="600" y="707" on="1"/>
        <pt x="600" y="726" on="0"/>
        <pt x="567" y="726" on="1"/>
        <pt x="493" y="726" on="0"/>
        <pt x="311" y="635" on="0"/>
        <pt x="168" y="511" on="0"/>
        <pt x="70" y="382" on="0"/>
        <pt x="70" y="345" on="1"/>
        <pt x="70" y="310" on="0"/>
        <pt x="115" y="310" on="1"/>
        <pt x="181" y="310" on="0"/>
        <pt x="410" y="427" on="0"/>
        <pt x="580" y="547" on="0"/>
        <pt x="594" y="567" on="1"/>
        <pt x="601" y="576" on="0"/>
        <pt x="636" y="576" on="0"/>
        <pt x="636" y="556" on="0"/>
        <pt x="625" y="540" on="1"/>
        <pt x="441" y="296" on="0"/>
        <pt x="179" y="0" on="1"/>
        <pt x="280" y="12" on="0"/>
        <pt x="426" y="110" on="1"/>
        <pt x="493" y="152" on="1"/>
        <pt x="500" y="156" on="0"/>
        <pt x="516" y="156" on="0"/>
        <pt x="516" y="152" on="0"/>
        <pt x="513" y="150" on="1"/>
      </contour>
    </TTGlyph>
    <TTGlyph name="H" xMin="0" yMin="-106" xMax="1018" yMax="854">
      <contour>
        <pt x="240" y="-94" on="1"/>
        <pt x="269" y="-94" on="0"/>
        <pt x="334" y="35" on="0"/>
        <pt x="358" y="128" on="1"/>
        <pt x="235" y="-42" on="0"/>
        <pt x="235" y="-85" on="1"/>
        <pt x="235" y="-92" on="0"/>
      </contour>
      <contour>
        <pt x="350" y="345" on="1"/>
        <pt x="350" y="243" on="0"/>
        <pt x="370" y="177" on="1"/>
        <pt x="393" y="280" on="0"/>
        <pt x="393" y="409" on="0"/>
        <pt x="370" y="409" on="1"/>
        <pt x="350" y="409" on="0"/>
      </contour>
      <contour>
        <pt x="61" y="11" on="1"/>
        <pt x="75" y="19" on="1"/>
        <pt x="78" y="19" on="0"/>
        <pt x="78" y="16" on="1"/>
        <pt x="78" y="8" on="0"/>
        <pt x="28" y="-28" on="0"/>
        <pt x="0" y="-28" on="0"/>
        <pt x="0" y="-14" on="1"/>
        <pt x="0" y="39" on="0"/>
        <pt x="291" y="431" on="0"/>
        <pt x="391" y="539" on="1"/>
        <pt x="393" y="543" on="1"/>
        <pt x="393" y="545" on="0"/>
        <pt x="390" y="545" on="1"/>
        <pt x="351" y="519" on="0"/>
        <pt x="103" y="410" on="0"/>
        <pt x="49" y="410" on="1"/>
        <pt x="19" y="410" on="0"/>
        <pt x="19" y="430" on="1"/>
        <pt x="19" y="436" on="0"/>
        <pt x="36" y="457" on="0"/>
        <pt x="43" y="457" on="0"/>
        <pt x="57" y="444" on="0"/>
        <pt x="130" y="444" on="0"/>
        <pt x="304" y="509" on="0"/>
        <pt x="398" y="563" on="1"/>
        <pt x="430" y="582" on="0"/>
        <pt x="472" y="620" on="0"/>
        <pt x="527" y="678" on="0"/>
        <pt x="544" y="695" on="0"/>
        <pt x="591" y="746" on="0"/>
        <pt x="605" y="760" on="1"/>
        <pt x="644" y="797" on="0"/>
        <pt x="669" y="797" on="1"/>
        <pt x="677" y="797" on="0"/>
        <pt x="677" y="790" on="1"/>
        <pt x="677" y="750" on="0"/>
        <pt x="548" y="656" on="1"/>
        <pt x="499" y="619" on="0"/>
        <pt x="491" y="610" on="1"/>
        <pt x="378" y="486" on="0"/>
        <pt x="60" y="65" on="0"/>
        <pt x="59" y="14" on="1"/>
        <pt x="59" y="11" on="0"/>
      </contour>
      <contour>
        <pt x="571" y="150" on="1"/>
        <pt x="499" y="106" on="1"/>
        <pt x="461" y="82" on="0"/>
        <pt x="402" y="82" on="0"/>
        <pt x="379" y="103" on="1"/>
        <pt x="351" y="14" on="0"/>
        <pt x="272" y="-106" on="0"/>
        <pt x="234" y="-106" on="1"/>
        <pt x="221" y="-106" on="0"/>
        <pt x="221" y="-94" on="1"/>
        <pt x="221" y="-31" on="0"/>
        <pt x="351" y="149" on="1"/>
        <pt x="325" y="212" on="0"/>
        <pt x="325" y="327" on="1"/>
        <pt x="325" y="366" on="0"/>
        <pt x="349" y="418" on="0"/>
        <pt x="370" y="418" on="1"/>
        <pt x="418" y="418" on="0"/>
        <pt x="418" y="318" on="1"/>
        <pt x="418" y="276" on="0"/>
        <pt x="409" y="228" on="1"/>
        <pt x="548" y="409" on="0"/>
        <pt x="904" y="801" on="0"/>
        <pt x="964" y="845" on="1"/>
        <pt x="978" y="854" on="0"/>
        <pt x="998" y="854" on="1"/>
        <pt x="1018" y="854" on="0"/>
        <pt x="1018" y="847" on="1"/>
        <pt x="1018" y="842" on="0"/>
        <pt x="1014" y="838" on="1"/>
        <pt x="1009" y="833" on="0"/>
        <pt x="987" y="813" on="0"/>
        <pt x="979" y="805" on="1"/>
        <pt x="629" y="455" on="0"/>
        <pt x="413" y="198" on="1"/>
        <pt x="401" y="183" on="1"/>
        <pt x="400" y="180" on="0"/>
        <pt x="392" y="143" on="0"/>
        <pt x="389" y="134" on="1"/>
        <pt x="410" y="98" on="0"/>
        <pt x="443" y="98" on="1"/>
        <pt x="462" y="98" on="0"/>
        <pt x="480" y="108" on="1"/>
        <pt x="510" y="125" on="0"/>
        <pt x="551" y="152" on="1"/>
        <pt x="558" y="156" on="0"/>
        <pt x="574" y="156" on="0"/>
        <pt x="574" y="152" on="0"/>
      </contour>
    </TTGlyph>
    <TTGlyph name="I" xMin="-58" yMin="-137" xMax="661" yMax="759">
      <contour>
        <pt x="473" y="470" on="0"/>
        <pt x="473" y="462" on="0"/>
        <pt x="408" y="403" on="0"/>
        <pt x="317" y="330" on="0"/>
        <pt x="208" y="277" on="0"/>
        <pt x="166" y="277" on="1"/>
        <pt x="115" y="277" on="0"/>
        <pt x="115" y="328" on="1"/>
        <pt x="115" y="375" on="0"/>
        <pt x="202" y="520" on="0"/>
        <pt x="336" y="659" on="0"/>
        <pt x="524" y="759" on="0"/>
        <pt x="612" y="759" on="1"/>
        <pt x="661" y="759" on="0"/>
        <pt x="661" y="697" on="1"/>
        <pt x="650" y="617" on="0"/>
        <pt x="552" y="436" on="0"/>
        <pt x="419" y="273" on="0"/>
        <pt x="231" y="91" on="0"/>
        <pt x="61" y="-51" on="0"/>
        <pt x="-42" y="-130" on="1"/>
        <pt x="-52" y="-137" on="0"/>
        <pt x="-56" y="-137" on="1"/>
        <pt x="-58" y="-136" on="1"/>
        <pt x="-58" y="-134" on="1"/>
        <pt x="-58" y="-130" on="0"/>
        <pt x="-48" y="-122" on="1"/>
        <pt x="148" y="40" on="0"/>
        <pt x="381" y="298" on="1"/>
        <pt x="492" y="421" on="0"/>
        <pt x="641" y="653" on="0"/>
        <pt x="641" y="719" on="1"/>
        <pt x="641" y="748" on="0"/>
        <pt x="608" y="748" on="1"/>
        <pt x="540" y="748" on="0"/>
        <pt x="368" y="643" on="0"/>
        <pt x="232" y="502" on="0"/>
        <pt x="137" y="358" on="0"/>
        <pt x="137" y="285" on="0"/>
        <pt x="171" y="285" on="1"/>
        <pt x="220" y="285" on="0"/>
        <pt x="383" y="384" on="0"/>
        <pt x="460" y="465" on="1"/>
        <pt x="465" y="470" on="0"/>
      </contour>
    </TTGlyph>
    <TTGlyph name="Iacute" xMin="1" yMin="-137" xMax="745" yMax="847">
      <contour>
        <pt x="745" y="847" on="0"/>
        <pt x="745" y="819" on="0"/>
        <pt x="607" y="773" on="0"/>
        <pt x="593" y="773" on="0"/>
        <pt x="593" y="775" on="1"/>
        <pt x="593" y="779" on="0"/>
        <pt x="607" y="784" on="0"/>
        <pt x="638" y="801" on="0"/>
        <pt x="688" y="830" on="0"/>
        <pt x="712" y="842" on="1"/>
        <pt x="725" y="847" on="0"/>
        <pt x="733" y="847" on="1"/>
      </contour>
      <contour>
        <pt x="532" y="470" on="0"/>
        <pt x="532" y="462" on="0"/>
        <pt x="467" y="403" on="0"/>
        <pt x="376" y="330" on="0"/>
        <pt x="267" y="277" on="0"/>
        <pt x="225" y="277" on="1"/>
        <pt x="174" y="277" on="0"/>
        <pt x="174" y="328" on="1"/>
        <pt x="174" y="375" on="0"/>
        <pt x="261" y="520" on="0"/>
        <pt x="395" y="659" on="0"/>
        <pt x="583" y="759" on="0"/>
        <pt x="671" y="759" on="1"/>
        <pt x="720" y="759" on="0"/>
        <pt x="720" y="697" on="1"/>
        <pt x="709" y="617" on="0"/>
        <pt x="611" y="436" on="0"/>
        <pt x="478" y="273" on="0"/>
        <pt x="290" y="91" on="0"/>
        <pt x="120" y="-51" on="0"/>
        <pt x="17" y="-130" on="1"/>
        <pt x="7" y="-137" on="0"/>
        <pt x="3" y="-137" on="1"/>
        <pt x="1" y="-136" on="1"/>
        <pt x="1" y="-134" on="1"/>
        <pt x="1" y="-130" on="0"/>
        <pt x="11" y="-122" on="1"/>
        <pt x="207" y="40" on="0"/>
        <pt x="440" y="298" on="1"/>
        <pt x="551" y="421" on="0"/>
        <pt x="700" y="653" on="0"/>
        <pt x="700" y="719" on="1"/>
        <pt x="700" y="748" on="0"/>
        <pt x="667" y="748" on="1"/>
        <pt x="599" y="748" on="0"/>
        <pt x="427" y="643" on="0"/>
        <pt x="291" y="502" on="0"/>
        <pt x="196" y="358" on="0"/>
        <pt x="196" y="285" on="0"/>
        <pt x="230" y="285" on="1"/>
        <pt x="279" y="285" on="0"/>
        <pt x="442" y="384" on="0"/>
        <pt x="519" y="465" on="1"/>
        <pt x="524" y="470" on="0"/>
      </contour>
    </TTGlyph>
    <TTGlyph name="Icircumflex" xMin="1" yMin="-137" xMax="758" yMax="869">
      <contour>
        <pt x="682" y="818" on="1"/>
        <pt x="590" y="777" on="0"/>
        <pt x="567" y="777" on="0"/>
        <pt x="567" y="782" on="1"/>
        <pt x="567" y="783" on="1"/>
        <pt x="567" y="786" on="0"/>
        <pt x="600" y="802" on="0"/>
        <pt x="632" y="820" on="1"/>
        <pt x="714" y="869" on="0"/>
        <pt x="731" y="869" on="0"/>
        <pt x="735" y="850" on="0"/>
        <pt x="740" y="820" on="0"/>
        <pt x="741" y="814" on="1"/>
        <pt x="744" y="800" on="0"/>
        <pt x="757" y="781" on="1"/>
        <pt x="758" y="779" on="1"/>
        <pt x="758" y="776" on="0"/>
        <pt x="742" y="776" on="0"/>
        <pt x="720" y="812" on="0"/>
        <pt x="714" y="832" on="1"/>
      </contour>
      <contour>
        <pt x="532" y="470" on="0"/>
        <pt x="532" y="462" on="0"/>
        <pt x="467" y="403" on="0"/>
        <pt x="376" y="330" on="0"/>
        <pt x="267" y="277" on="0"/>
        <pt x="225" y="277" on="1"/>
        <pt x="174" y="277" on="0"/>
        <pt x="174" y="328" on="1"/>
        <pt x="174" y="375" on="0"/>
        <pt x="261" y="520" on="0"/>
        <pt x="395" y="659" on="0"/>
        <pt x="583" y="759" on="0"/>
        <pt x="671" y="759" on="1"/>
        <pt x="720" y="759" on="0"/>
        <pt x="720" y="697" on="1"/>
        <pt x="709" y="617" on="0"/>
        <pt x="611" y="436" on="0"/>
        <pt x="478" y="273" on="0"/>
        <pt x="290" y="91" on="0"/>
        <pt x="120" y="-51" on="0"/>
        <pt x="17" y="-130" on="1"/>
        <pt x="7" y="-137" on="0"/>
        <pt x="3" y="-137" on="1"/>
        <pt x="1" y="-136" on="1"/>
        <pt x="1" y="-134" on="1"/>
        <pt x="1" y="-130" on="0"/>
        <pt x="11" y="-122" on="1"/>
        <pt x="207" y="40" on="0"/>
        <pt x="440" y="298" on="1"/>
        <pt x="551" y="421" on="0"/>
        <pt x="700" y="653" on="0"/>
        <pt x="700" y="719" on="1"/>
        <pt x="700" y="748" on="0"/>
        <pt x="667" y="748" on="1"/>
        <pt x="599" y="748" on="0"/>
        <pt x="427" y="643" on="0"/>
        <pt x="291" y="502" on="0"/>
        <pt x="196" y="358" on="0"/>
        <pt x="196" y="285" on="0"/>
        <pt x="230" y="285" on="1"/>
        <pt x="279" y="285" on="0"/>
        <pt x="442" y="384" on="0"/>
        <pt x="519" y="465" on="1"/>
        <pt x="524" y="470" on="0"/>
      </contour>
    </TTGlyph>
    <TTGlyph name="Idieresis" xMin="1" yMin="-137" xMax="744" yMax="850">
      <contour>
        <pt x="682" y="791" on="0"/>
        <pt x="682" y="822" on="0"/>
        <pt x="712" y="850" on="0"/>
        <pt x="733" y="850" on="0"/>
        <pt x="744" y="838" on="0"/>
        <pt x="744" y="822" on="0"/>
        <pt x="716" y="791" on="0"/>
      </contour>
      <contour>
        <pt x="602" y="791" on="0"/>
        <pt x="602" y="822" on="0"/>
        <pt x="632" y="850" on="0"/>
        <pt x="653" y="850" on="0"/>
        <pt x="664" y="838" on="0"/>
        <pt x="664" y="822" on="0"/>
        <pt x="636" y="791" on="0"/>
      </contour>
      <contour>
        <pt x="532" y="470" on="0"/>
        <pt x="532" y="462" on="0"/>
        <pt x="467" y="403" on="0"/>
        <pt x="376" y="330" on="0"/>
        <pt x="267" y="277" on="0"/>
        <pt x="225" y="277" on="1"/>
        <pt x="174" y="277" on="0"/>
        <pt x="174" y="328" on="1"/>
        <pt x="174" y="375" on="0"/>
        <pt x="261" y="520" on="0"/>
        <pt x="395" y="659" on="0"/>
        <pt x="583" y="759" on="0"/>
        <pt x="671" y="759" on="1"/>
        <pt x="720" y="759" on="0"/>
        <pt x="720" y="697" on="1"/>
        <pt x="709" y="617" on="0"/>
        <pt x="611" y="436" on="0"/>
        <pt x="478" y="273" on="0"/>
        <pt x="290" y="91" on="0"/>
        <pt x="120" y="-51" on="0"/>
        <pt x="17" y="-130" on="1"/>
        <pt x="7" y="-137" on="0"/>
        <pt x="3" y="-137" on="1"/>
        <pt x="1" y="-136" on="1"/>
        <pt x="1" y="-134" on="1"/>
        <pt x="1" y="-130" on="0"/>
        <pt x="11" y="-122" on="1"/>
        <pt x="207" y="40" on="0"/>
        <pt x="440" y="298" on="1"/>
        <pt x="551" y="421" on="0"/>
        <pt x="700" y="653" on="0"/>
        <pt x="700" y="719" on="1"/>
        <pt x="700" y="748" on="0"/>
        <pt x="667" y="748" on="1"/>
        <pt x="599" y="748" on="0"/>
        <pt x="427" y="643" on="0"/>
        <pt x="291" y="502" on="0"/>
        <pt x="196" y="358" on="0"/>
        <pt x="196" y="285" on="0"/>
        <pt x="230" y="285" on="1"/>
        <pt x="279" y="285" on="0"/>
        <pt x="442" y="384" on="0"/>
        <pt x="519" y="465" on="1"/>
        <pt x="524" y="470" on="0"/>
      </contour>
    </TTGlyph>
    <TTGlyph name="Igrave" xMin="1" yMin="-137" xMax="734" yMax="863">
      <contour>
        <pt x="604" y="852" on="1"/>
        <pt x="604" y="863" on="0"/>
        <pt x="628" y="863" on="0"/>
        <pt x="633" y="858" on="1"/>
        <pt x="721" y="788" on="0"/>
        <pt x="734" y="781" on="0"/>
        <pt x="734" y="777" on="0"/>
        <pt x="719" y="777" on="0"/>
        <pt x="604" y="836" on="0"/>
      </contour>
      <contour>
        <pt x="532" y="470" on="0"/>
        <pt x="532" y="462" on="0"/>
        <pt x="467" y="403" on="0"/>
        <pt x="376" y="330" on="0"/>
        <pt x="267" y="277" on="0"/>
        <pt x="225" y="277" on="1"/>
        <pt x="174" y="277" on="0"/>
        <pt x="174" y="328" on="1"/>
        <pt x="174" y="375" on="0"/>
        <pt x="261" y="520" on="0"/>
        <pt x="395" y="659" on="0"/>
        <pt x="583" y="759" on="0"/>
        <pt x="671" y="759" on="1"/>
        <pt x="720" y="759" on="0"/>
        <pt x="720" y="697" on="1"/>
        <pt x="709" y="617" on="0"/>
        <pt x="611" y="436" on="0"/>
        <pt x="478" y="273" on="0"/>
        <pt x="290" y="91" on="0"/>
        <pt x="120" y="-51" on="0"/>
        <pt x="17" y="-130" on="1"/>
        <pt x="7" y="-137" on="0"/>
        <pt x="3" y="-137" on="1"/>
        <pt x="1" y="-136" on="1"/>
        <pt x="1" y="-134" on="1"/>
        <pt x="1" y="-130" on="0"/>
        <pt x="11" y="-122" on="1"/>
        <pt x="207" y="40" on="0"/>
        <pt x="440" y="298" on="1"/>
        <pt x="551" y="421" on="0"/>
        <pt x="700" y="653" on="0"/>
        <pt x="700" y="719" on="1"/>
        <pt x="700" y="748" on="0"/>
        <pt x="667" y="748" on="1"/>
        <pt x="599" y="748" on="0"/>
        <pt x="427" y="643" on="0"/>
        <pt x="291" y="502" on="0"/>
        <pt x="196" y="358" on="0"/>
        <pt x="196" y="285" on="0"/>
        <pt x="230" y="285" on="1"/>
        <pt x="279" y="285" on="0"/>
        <pt x="442" y="384" on="0"/>
        <pt x="519" y="465" on="1"/>
        <pt x="524" y="470" on="0"/>
      </contour>
    </TTGlyph>
    <TTGlyph name="J" xMin="-301" yMin="-481" xMax="670" yMax="745">
      <contour>
        <pt x="-270" y="-455" on="1"/>
        <pt x="-270" y="-459" on="0"/>
        <pt x="-267" y="-459" on="1"/>
        <pt x="-238" y="-459" on="0"/>
        <pt x="81" y="-110" on="0"/>
        <pt x="264" y="118" on="1"/>
        <pt x="112" y="17" on="0"/>
        <pt x="-18" y="-97" on="1"/>
        <pt x="-173" y="-231" on="0"/>
        <pt x="-235" y="-342" on="1"/>
        <pt x="-270" y="-405" on="0"/>
      </contour>
      <contour>
        <pt x="-291" y="-481" on="1"/>
        <pt x="-301" y="-481" on="0"/>
        <pt x="-301" y="-468" on="1"/>
        <pt x="-301" y="-401" on="0"/>
        <pt x="-190" y="-233" on="0"/>
        <pt x="-98" y="-150" on="1"/>
        <pt x="70" y="4" on="0"/>
        <pt x="284" y="142" on="1"/>
        <pt x="447" y="347" on="0"/>
        <pt x="658" y="660" on="0"/>
        <pt x="658" y="709" on="1"/>
        <pt x="658" y="724" on="0"/>
        <pt x="649" y="730" on="0"/>
        <pt x="632" y="730" on="1"/>
        <pt x="557" y="730" on="0"/>
        <pt x="342" y="615" on="0"/>
        <pt x="160" y="462" on="0"/>
        <pt x="30" y="302" on="0"/>
        <pt x="30" y="259" on="1"/>
        <pt x="30" y="222" on="0"/>
        <pt x="126" y="222" on="0"/>
        <pt x="280" y="302" on="0"/>
        <pt x="334" y="342" on="1"/>
        <pt x="389" y="382" on="1"/>
        <pt x="398" y="380" on="1"/>
        <pt x="332" y="322" on="0"/>
        <pt x="242" y="270" on="1"/>
        <pt x="204" y="248" on="0"/>
        <pt x="107" y="211" on="0"/>
        <pt x="71" y="211" on="1"/>
        <pt x="12" y="211" on="0"/>
        <pt x="12" y="311" on="0"/>
        <pt x="126" y="474" on="0"/>
        <pt x="298" y="631" on="0"/>
        <pt x="528" y="745" on="0"/>
        <pt x="629" y="745" on="1"/>
        <pt x="654" y="745" on="0"/>
        <pt x="670" y="725" on="0"/>
        <pt x="670" y="700" on="1"/>
        <pt x="670" y="571" on="0"/>
        <pt x="381" y="202" on="1"/>
        <pt x="451" y="245" on="0"/>
        <pt x="464" y="245" on="0"/>
        <pt x="464" y="239" on="0"/>
        <pt x="460" y="236" on="1"/>
        <pt x="433" y="224" on="0"/>
        <pt x="366" y="183" on="1"/>
        <pt x="172" y="-61" on="0"/>
        <pt x="-242" y="-481" on="0"/>
      </contour>
    </TTGlyph>
    <TTGlyph name="K" xMin="1" yMin="-29" xMax="1003" yMax="788">
      <contour>
        <pt x="49" y="449" on="1"/>
        <pt x="45" y="441" on="1"/>
        <pt x="45" y="433" on="0"/>
        <pt x="103" y="433" on="0"/>
        <pt x="174" y="443" on="0"/>
        <pt x="320" y="496" on="0"/>
        <pt x="373" y="525" on="1"/>
        <pt x="445" y="564" on="0"/>
        <pt x="466" y="582" on="1"/>
        <pt x="628" y="749" on="0"/>
        <pt x="664" y="775" on="1"/>
        <pt x="681" y="788" on="0"/>
        <pt x="704" y="788" on="0"/>
        <pt x="704" y="780" on="1"/>
        <pt x="704" y="759" on="0"/>
        <pt x="556" y="626" on="0"/>
        <pt x="515" y="603" on="1"/>
        <pt x="502" y="587" on="0"/>
        <pt x="382" y="443" on="0"/>
        <pt x="271" y="307" on="0"/>
        <pt x="210" y="230" on="1"/>
        <pt x="75" y="58" on="0"/>
        <pt x="75" y="15" on="1"/>
        <pt x="75" y="13" on="0"/>
        <pt x="78" y="13" on="1"/>
        <pt x="90" y="17" on="0"/>
        <pt x="98" y="17" on="0"/>
        <pt x="98" y="14" on="1"/>
        <pt x="98" y="5" on="0"/>
        <pt x="40" y="-29" on="0"/>
        <pt x="26" y="-29" on="1"/>
        <pt x="17" y="-29" on="0"/>
        <pt x="17" y="-12" on="1"/>
        <pt x="17" y="33" on="0"/>
        <pt x="141" y="215" on="0"/>
        <pt x="289" y="381" on="0"/>
        <pt x="424" y="528" on="0"/>
        <pt x="429" y="538" on="1"/>
        <pt x="429" y="539" on="0"/>
        <pt x="427" y="539" on="1"/>
        <pt x="282" y="452" on="0"/>
        <pt x="138" y="412" on="1"/>
        <pt x="82" y="396" on="0"/>
        <pt x="1" y="396" on="0"/>
        <pt x="1" y="421" on="1"/>
        <pt x="1" y="434" on="0"/>
        <pt x="32" y="456" on="0"/>
        <pt x="49" y="456" on="0"/>
      </contour>
      <contour>
        <pt x="479" y="-18" on="1"/>
        <pt x="512" y="-18" on="0"/>
        <pt x="609" y="23" on="0"/>
        <pt x="679" y="66" on="0"/>
        <pt x="774" y="127" on="0"/>
        <pt x="815" y="152" on="0"/>
        <pt x="815" y="156" on="0"/>
        <pt x="799" y="156" on="0"/>
        <pt x="792" y="152" on="1"/>
        <pt x="725" y="110" on="1"/>
        <pt x="551" y="-7" on="0"/>
        <pt x="480" y="-7" on="1"/>
        <pt x="397" y="-7" on="0"/>
        <pt x="397" y="162" on="1"/>
        <pt x="397" y="267" on="0"/>
        <pt x="425" y="390" on="1"/>
        <pt x="439" y="354" on="0"/>
        <pt x="539" y="354" on="0"/>
        <pt x="721" y="454" on="0"/>
        <pt x="883" y="582" on="0"/>
        <pt x="1003" y="705" on="0"/>
        <pt x="1003" y="727" on="1"/>
        <pt x="1003" y="742" on="0"/>
        <pt x="971" y="742" on="1"/>
        <pt x="957" y="742" on="0"/>
        <pt x="902" y="676" on="1"/>
        <pt x="877" y="646" on="1"/>
        <pt x="787" y="549" on="0"/>
        <pt x="550" y="376" on="0"/>
        <pt x="484" y="376" on="1"/>
        <pt x="442" y="376" on="0"/>
        <pt x="431" y="416" on="1"/>
        <pt x="449" y="484" on="0"/>
        <pt x="459" y="495" on="1"/>
        <pt x="461" y="499" on="1"/>
        <pt x="461" y="501" on="0"/>
        <pt x="459" y="501" on="1"/>
        <pt x="445" y="501" on="0"/>
        <pt x="396" y="414" on="0"/>
        <pt x="353" y="256" on="0"/>
        <pt x="353" y="91" on="0"/>
        <pt x="414" y="-18" on="0"/>
      </contour>
    </TTGlyph>
    <TTGlyph name="L" xMin="-26" yMin="-208" xMax="802" yMax="733">
      <contour>
        <pt x="164" y="-2" on="1"/>
        <pt x="103" y="38" on="0"/>
        <pt x="81" y="110" on="1"/>
        <pt x="41" y="54" on="0"/>
        <pt x="6" y="-87" on="0"/>
        <pt x="6" y="-171" on="0"/>
        <pt x="13" y="-174" on="1"/>
        <pt x="38" y="-174" on="0"/>
      </contour>
      <contour>
        <pt x="107" y="155" on="1"/>
        <pt x="106" y="144" on="1"/>
        <pt x="123" y="68" on="0"/>
        <pt x="185" y="26" on="1"/>
        <pt x="213" y="64" on="0"/>
        <pt x="333" y="231" on="0"/>
        <pt x="411" y="338" on="0"/>
        <pt x="525" y="491" on="0"/>
        <pt x="608" y="590" on="0"/>
        <pt x="652" y="638" on="1"/>
        <pt x="739" y="733" on="0"/>
        <pt x="783" y="733" on="1"/>
        <pt x="802" y="733" on="0"/>
        <pt x="802" y="702" on="1"/>
        <pt x="802" y="651" on="0"/>
        <pt x="715" y="438" on="0"/>
        <pt x="600" y="263" on="0"/>
        <pt x="567" y="263" on="1"/>
        <pt x="547" y="263" on="0"/>
        <pt x="547" y="344" on="0"/>
        <pt x="609" y="489" on="0"/>
        <pt x="628" y="489" on="1"/>
        <pt x="635" y="489" on="0"/>
        <pt x="635" y="480" on="1"/>
        <pt x="635" y="477" on="0"/>
        <pt x="634" y="475" on="1"/>
        <pt x="610" y="445" on="0"/>
        <pt x="572" y="340" on="0"/>
        <pt x="572" y="285" on="0"/>
        <pt x="584" y="285" on="1"/>
        <pt x="607" y="285" on="0"/>
        <pt x="705" y="459" on="0"/>
        <pt x="784" y="661" on="0"/>
        <pt x="784" y="700" on="1"/>
        <pt x="784" y="717" on="0"/>
        <pt x="775" y="717" on="1"/>
        <pt x="755" y="717" on="0"/>
        <pt x="580" y="501" on="0"/>
        <pt x="281" y="105" on="0"/>
        <pt x="207" y="13" on="1"/>
        <pt x="266" y="-18" on="0"/>
        <pt x="398" y="-18" on="0"/>
        <pt x="544" y="6" on="0"/>
        <pt x="582" y="18" on="1"/>
        <pt x="621" y="31" on="1"/>
        <pt x="624" y="31" on="1"/>
        <pt x="630" y="31" on="0"/>
        <pt x="630" y="27" on="1"/>
        <pt x="630" y="20" on="0"/>
        <pt x="623" y="18" on="1"/>
        <pt x="433" y="-42" on="0"/>
        <pt x="307" y="-42" on="1"/>
        <pt x="238" y="-42" on="0"/>
        <pt x="185" y="-14" on="1"/>
        <pt x="27" y="-208" on="0"/>
        <pt x="-9" y="-208" on="1"/>
        <pt x="-26" y="-208" on="0"/>
        <pt x="-26" y="-86" on="0"/>
        <pt x="35" y="73" on="0"/>
        <pt x="96" y="160" on="0"/>
        <pt x="104" y="160" on="1"/>
        <pt x="107" y="160" on="0"/>
      </contour>
    </TTGlyph>
    <TTGlyph name="Lslash" xMin="-26" yMin="-208" xMax="802" yMax="733">
      <contour>
        <pt x="164" y="-2" on="1"/>
        <pt x="103" y="38" on="0"/>
        <pt x="81" y="110" on="1"/>
        <pt x="41" y="54" on="0"/>
        <pt x="6" y="-87" on="0"/>
        <pt x="6" y="-171" on="0"/>
        <pt x="13" y="-174" on="1"/>
        <pt x="38" y="-174" on="0"/>
      </contour>
      <contour>
        <pt x="250" y="264" on="1"/>
        <pt x="355" y="261" on="1"/>
        <pt x="608" y="609" on="0"/>
        <pt x="710" y="694" on="1"/>
        <pt x="755" y="733" on="0"/>
        <pt x="783" y="733" on="1"/>
        <pt x="802" y="733" on="0"/>
        <pt x="802" y="702" on="1"/>
        <pt x="802" y="651" on="0"/>
        <pt x="715" y="438" on="0"/>
        <pt x="600" y="263" on="0"/>
        <pt x="567" y="263" on="1"/>
        <pt x="547" y="263" on="0"/>
        <pt x="547" y="344" on="0"/>
        <pt x="609" y="489" on="0"/>
        <pt x="628" y="489" on="1"/>
        <pt x="635" y="489" on="0"/>
        <pt x="635" y="480" on="1"/>
        <pt x="635" y="477" on="0"/>
        <pt x="634" y="475" on="1"/>
        <pt x="610" y="445" on="0"/>
        <pt x="572" y="340" on="0"/>
        <pt x="572" y="285" on="0"/>
        <pt x="584" y="285" on="1"/>
        <pt x="607" y="285" on="0"/>
        <pt x="705" y="459" on="0"/>
        <pt x="784" y="661" on="0"/>
        <pt x="784" y="700" on="1"/>
        <pt x="784" y="717" on="0"/>
        <pt x="775" y="717" on="1"/>
        <pt x="751" y="717" on="0"/>
        <pt x="635" y="568" on="1"/>
        <pt x="537" y="443" on="0"/>
        <pt x="398" y="259" on="1"/>
        <pt x="461" y="256" on="1"/>
        <pt x="492" y="256" on="0"/>
        <pt x="492" y="238" on="0"/>
        <pt x="456" y="236" on="1"/>
        <pt x="454" y="236" on="0"/>
        <pt x="382" y="238" on="1"/>
        <pt x="274" y="96" on="0"/>
        <pt x="207" y="13" on="1"/>
        <pt x="266" y="-18" on="0"/>
        <pt x="398" y="-18" on="0"/>
        <pt x="544" y="6" on="0"/>
        <pt x="582" y="18" on="1"/>
        <pt x="621" y="31" on="1"/>
        <pt x="624" y="31" on="1"/>
        <pt x="630" y="31" on="0"/>
        <pt x="630" y="27" on="1"/>
        <pt x="630" y="20" on="0"/>
        <pt x="623" y="18" on="1"/>
        <pt x="433" y="-42" on="0"/>
        <pt x="307" y="-42" on="1"/>
        <pt x="238" y="-42" on="0"/>
        <pt x="185" y="-14" on="1"/>
        <pt x="27" y="-208" on="0"/>
        <pt x="-9" y="-208" on="1"/>
        <pt x="-26" y="-208" on="0"/>
        <pt x="-26" y="-86" on="0"/>
        <pt x="35" y="73" on="0"/>
        <pt x="96" y="160" on="0"/>
        <pt x="104" y="160" on="1"/>
        <pt x="107" y="160" on="0"/>
        <pt x="107" y="155" on="1"/>
        <pt x="106" y="144" on="1"/>
        <pt x="123" y="68" on="0"/>
        <pt x="185" y="26" on="1"/>
        <pt x="338" y="238" on="1"/>
        <pt x="236" y="238" on="1"/>
        <pt x="227" y="238" on="0"/>
        <pt x="227" y="245" on="1"/>
        <pt x="227" y="254" on="0"/>
        <pt x="242" y="264" on="0"/>
      </contour>
    </TTGlyph>
    <TTGlyph name="M" xMin="0" yMin="-211" xMax="1145" yMax="823">
      <contour>
        <pt x="27" y="5" on="1"/>
        <pt x="4" y="5" on="0"/>
        <pt x="0" y="17" on="1"/>
        <pt x="0" y="30" on="0"/>
        <pt x="172" y="236" on="0"/>
        <pt x="378" y="477" on="0"/>
        <pt x="550" y="726" on="0"/>
        <pt x="550" y="777" on="1"/>
        <pt x="550" y="809" on="0"/>
        <pt x="517" y="809" on="1"/>
        <pt x="463" y="809" on="0"/>
        <pt x="343" y="752" on="0"/>
        <pt x="238" y="661" on="0"/>
        <pt x="140" y="549" on="0"/>
        <pt x="106" y="494" on="1"/>
        <pt x="29" y="374" on="0"/>
        <pt x="29" y="319" on="1"/>
        <pt x="29" y="290" on="0"/>
        <pt x="53" y="290" on="1"/>
        <pt x="86" y="290" on="0"/>
        <pt x="234" y="402" on="0"/>
        <pt x="291" y="458" on="1"/>
        <pt x="348" y="513" on="1"/>
        <pt x="350" y="515" on="0"/>
        <pt x="359" y="515" on="0"/>
        <pt x="359" y="512" on="1"/>
        <pt x="357" y="508" on="1"/>
        <pt x="348" y="499" on="0"/>
        <pt x="317" y="467" on="0"/>
        <pt x="231" y="388" on="0"/>
        <pt x="156" y="327" on="0"/>
        <pt x="70" y="277" on="0"/>
        <pt x="45" y="277" on="1"/>
        <pt x="9" y="277" on="0"/>
        <pt x="9" y="364" on="0"/>
        <pt x="60" y="489" on="0"/>
        <pt x="157" y="625" on="0"/>
        <pt x="278" y="745" on="0"/>
        <pt x="436" y="823" on="0"/>
        <pt x="514" y="823" on="1"/>
        <pt x="534" y="823" on="0"/>
        <pt x="572" y="794" on="0"/>
        <pt x="572" y="735" on="0"/>
        <pt x="529" y="639" on="0"/>
        <pt x="443" y="511" on="0"/>
        <pt x="370" y="408" on="0"/>
        <pt x="249" y="260" on="0"/>
        <pt x="201" y="203" on="0"/>
        <pt x="154" y="147" on="1"/>
        <pt x="155" y="146" on="0"/>
        <pt x="163" y="152" on="1"/>
        <pt x="589" y="538" on="0"/>
        <pt x="699" y="636" on="0"/>
        <pt x="708" y="646" on="0"/>
        <pt x="710" y="648" on="1"/>
        <pt x="718" y="656" on="0"/>
        <pt x="743" y="656" on="0"/>
        <pt x="743" y="644" on="1"/>
        <pt x="743" y="614" on="0"/>
        <pt x="568" y="370" on="0"/>
        <pt x="394" y="148" on="0"/>
        <pt x="394" y="144" on="1"/>
        <pt x="395" y="143" on="1"/>
        <pt x="456" y="196" on="0"/>
        <pt x="835" y="549" on="0"/>
        <pt x="1118" y="805" on="0"/>
        <pt x="1134" y="805" on="1"/>
        <pt x="1145" y="805" on="0"/>
        <pt x="1145" y="791" on="1"/>
        <pt x="1145" y="764" on="0"/>
        <pt x="1054" y="626" on="0"/>
        <pt x="937" y="478" on="1"/>
        <pt x="932" y="472" on="0"/>
        <pt x="775" y="284" on="1"/>
        <pt x="429" y="-129" on="0"/>
        <pt x="429" y="-193" on="1"/>
        <pt x="429" y="-197" on="0"/>
        <pt x="442" y="-197" on="0"/>
        <pt x="529" y="-152" on="0"/>
        <pt x="563" y="-122" on="0"/>
        <pt x="569" y="-122" on="0"/>
        <pt x="569" y="-131" on="0"/>
        <pt x="567" y="-133" on="1"/>
        <pt x="556" y="-147" on="0"/>
        <pt x="443" y="-211" on="0"/>
        <pt x="413" y="-211" on="0"/>
        <pt x="413" y="-198" on="1"/>
        <pt x="413" y="-135" on="0"/>
        <pt x="520" y="24" on="1"/>
        <pt x="688" y="275" on="0"/>
        <pt x="927" y="539" on="1"/>
        <pt x="957" y="573" on="0"/>
        <pt x="1119" y="773" on="0"/>
        <pt x="1119" y="781" on="1"/>
        <pt x="1119" y="783" on="0"/>
        <pt x="1118" y="783" on="1"/>
        <pt x="1112" y="783" on="0"/>
        <pt x="385" y="115" on="0"/>
        <pt x="278" y="13" on="1"/>
        <pt x="266" y="1" on="0"/>
        <pt x="255" y="1" on="1"/>
        <pt x="226" y="1" on="0"/>
        <pt x="226" y="15" on="0"/>
        <pt x="254" y="50" on="0"/>
        <pt x="390" y="216" on="1"/>
        <pt x="710" y="607" on="0"/>
        <pt x="710" y="626" on="1"/>
        <pt x="709" y="627" on="1"/>
        <pt x="700" y="623" on="0"/>
        <pt x="447" y="393" on="1"/>
        <pt x="77" y="59" on="0"/>
      </contour>
    </TTGlyph>
    <TTGlyph name="N" xMin="0" yMin="-221" xMax="950" yMax="810">
      <contour>
        <pt x="41" y="255" on="1"/>
        <pt x="0" y="255" on="0"/>
        <pt x="0" y="300" on="1"/>
        <pt x="0" y="397" on="0"/>
        <pt x="169" y="627" on="0"/>
        <pt x="416" y="785" on="0"/>
        <pt x="520" y="785" on="1"/>
        <pt x="545" y="785" on="0"/>
        <pt x="564" y="763" on="0"/>
        <pt x="564" y="738" on="1"/>
        <pt x="564" y="680" on="0"/>
        <pt x="488" y="554" on="1"/>
        <pt x="362" y="347" on="0"/>
        <pt x="170" y="126" on="1"/>
        <pt x="167" y="123" on="0"/>
        <pt x="167" y="116" on="0"/>
        <pt x="171" y="116" on="0"/>
        <pt x="177" y="122" on="1"/>
        <pt x="423" y="347" on="0"/>
        <pt x="481" y="405" on="0"/>
        <pt x="930" y="810" on="0"/>
        <pt x="950" y="810" on="0"/>
        <pt x="950" y="799" on="1"/>
        <pt x="950" y="763" on="0"/>
        <pt x="722" y="464" on="0"/>
        <pt x="447" y="140" on="0"/>
        <pt x="219" y="-163" on="0"/>
        <pt x="219" y="-202" on="1"/>
        <pt x="219" y="-206" on="0"/>
        <pt x="228" y="-206" on="0"/>
        <pt x="262" y="-184" on="0"/>
        <pt x="264" y="-184" on="1"/>
        <pt x="272" y="-184" on="0"/>
        <pt x="272" y="-189" on="1"/>
        <pt x="272" y="-191" on="0"/>
        <pt x="268" y="-194" on="1"/>
        <pt x="227" y="-221" on="0"/>
        <pt x="214" y="-221" on="1"/>
        <pt x="203" y="-221" on="0"/>
        <pt x="203" y="-208" on="1"/>
        <pt x="203" y="-155" on="0"/>
        <pt x="352" y="83" on="0"/>
        <pt x="564" y="350" on="0"/>
        <pt x="777" y="603" on="0"/>
        <pt x="926" y="781" on="0"/>
        <pt x="926" y="790" on="1"/>
        <pt x="926" y="791" on="0"/>
        <pt x="922" y="791" on="0"/>
        <pt x="798" y="679" on="0"/>
        <pt x="616" y="512" on="0"/>
        <pt x="438" y="349" on="0"/>
        <pt x="296" y="219" on="0"/>
        <pt x="44" y="-18" on="0"/>
        <pt x="43" y="-19" on="1"/>
        <pt x="33" y="-29" on="0"/>
        <pt x="6" y="-29" on="0"/>
        <pt x="6" y="-20" on="0"/>
        <pt x="50" y="38" on="0"/>
        <pt x="257" y="294" on="0"/>
        <pt x="417" y="497" on="0"/>
        <pt x="553" y="707" on="0"/>
        <pt x="553" y="746" on="1"/>
        <pt x="553" y="762" on="0"/>
        <pt x="538" y="775" on="0"/>
        <pt x="520" y="775" on="1"/>
        <pt x="458" y="775" on="0"/>
        <pt x="311" y="697" on="0"/>
        <pt x="183" y="580" on="0"/>
        <pt x="75" y="449" on="0"/>
        <pt x="12" y="331" on="0"/>
        <pt x="12" y="264" on="0"/>
        <pt x="73" y="264" on="0"/>
        <pt x="152" y="304" on="0"/>
        <pt x="187" y="332" on="1"/>
        <pt x="260" y="390" on="0"/>
        <pt x="301" y="436" on="1"/>
        <pt x="319" y="456" on="1"/>
        <pt x="324" y="462" on="0"/>
        <pt x="331" y="462" on="0"/>
        <pt x="331" y="453" on="0"/>
        <pt x="319" y="440" on="0"/>
        <pt x="296" y="414" on="0"/>
        <pt x="226" y="348" on="0"/>
        <pt x="160" y="297" on="0"/>
        <pt x="75" y="255" on="0"/>
      </contour>
    </TTGlyph>
    <TTGlyph name="Ntilde" xMin="0" yMin="-221" xMax="950" yMax="852">
      <contour>
        <pt x="763" y="807" on="0"/>
        <pt x="713" y="829" on="0"/>
        <pt x="693" y="829" on="0"/>
        <pt x="683" y="819" on="0"/>
        <pt x="672" y="819" on="0"/>
        <pt x="672" y="826" on="0"/>
        <pt x="676" y="830" on="1"/>
        <pt x="698" y="852" on="0"/>
        <pt x="736" y="852" on="0"/>
        <pt x="782" y="827" on="0"/>
        <pt x="811" y="827" on="0"/>
        <pt x="829" y="848" on="1"/>
        <pt x="830" y="850" on="0"/>
        <pt x="838" y="850" on="0"/>
        <pt x="838" y="839" on="0"/>
        <pt x="837" y="838" on="1"/>
        <pt x="811" y="807" on="0"/>
        <pt x="779" y="807" on="1"/>
      </contour>
      <contour>
        <pt x="41" y="255" on="1"/>
        <pt x="0" y="255" on="0"/>
        <pt x="0" y="300" on="1"/>
        <pt x="0" y="397" on="0"/>
        <pt x="169" y="627" on="0"/>
        <pt x="416" y="785" on="0"/>
        <pt x="520" y="785" on="1"/>
        <pt x="545" y="785" on="0"/>
        <pt x="564" y="763" on="0"/>
        <pt x="564" y="738" on="1"/>
        <pt x="564" y="680" on="0"/>
        <pt x="488" y="554" on="1"/>
        <pt x="362" y="347" on="0"/>
        <pt x="170" y="126" on="1"/>
        <pt x="167" y="123" on="0"/>
        <pt x="167" y="116" on="0"/>
        <pt x="171" y="116" on="0"/>
        <pt x="177" y="122" on="1"/>
        <pt x="423" y="347" on="0"/>
        <pt x="481" y="405" on="0"/>
        <pt x="930" y="810" on="0"/>
        <pt x="950" y="810" on="0"/>
        <pt x="950" y="799" on="1"/>
        <pt x="950" y="763" on="0"/>
        <pt x="722" y="464" on="0"/>
        <pt x="447" y="140" on="0"/>
        <pt x="219" y="-163" on="0"/>
        <pt x="219" y="-202" on="1"/>
        <pt x="219" y="-206" on="0"/>
        <pt x="228" y="-206" on="0"/>
        <pt x="262" y="-184" on="0"/>
        <pt x="264" y="-184" on="1"/>
        <pt x="272" y="-184" on="0"/>
        <pt x="272" y="-189" on="1"/>
        <pt x="272" y="-191" on="0"/>
        <pt x="268" y="-194" on="1"/>
        <pt x="227" y="-221" on="0"/>
        <pt x="214" y="-221" on="1"/>
        <pt x="203" y="-221" on="0"/>
        <pt x="203" y="-208" on="1"/>
        <pt x="203" y="-155" on="0"/>
        <pt x="352" y="83" on="0"/>
        <pt x="564" y="350" on="0"/>
        <pt x="777" y="603" on="0"/>
        <pt x="926" y="781" on="0"/>
        <pt x="926" y="790" on="1"/>
        <pt x="926" y="791" on="0"/>
        <pt x="922" y="791" on="0"/>
        <pt x="798" y="679" on="0"/>
        <pt x="616" y="512" on="0"/>
        <pt x="438" y="349" on="0"/>
        <pt x="296" y="219" on="0"/>
        <pt x="44" y="-18" on="0"/>
        <pt x="43" y="-19" on="1"/>
        <pt x="33" y="-29" on="0"/>
        <pt x="6" y="-29" on="0"/>
        <pt x="6" y="-20" on="0"/>
        <pt x="50" y="38" on="0"/>
        <pt x="257" y="294" on="0"/>
        <pt x="417" y="497" on="0"/>
        <pt x="553" y="707" on="0"/>
        <pt x="553" y="746" on="1"/>
        <pt x="553" y="762" on="0"/>
        <pt x="538" y="775" on="0"/>
        <pt x="520" y="775" on="1"/>
        <pt x="458" y="775" on="0"/>
        <pt x="311" y="697" on="0"/>
        <pt x="183" y="580" on="0"/>
        <pt x="75" y="449" on="0"/>
        <pt x="12" y="331" on="0"/>
        <pt x="12" y="264" on="0"/>
        <pt x="73" y="264" on="0"/>
        <pt x="152" y="304" on="0"/>
        <pt x="187" y="332" on="1"/>
        <pt x="260" y="390" on="0"/>
        <pt x="301" y="436" on="1"/>
        <pt x="319" y="456" on="1"/>
        <pt x="324" y="462" on="0"/>
        <pt x="331" y="462" on="0"/>
        <pt x="331" y="453" on="0"/>
        <pt x="319" y="440" on="0"/>
        <pt x="296" y="414" on="0"/>
        <pt x="226" y="348" on="0"/>
        <pt x="160" y="297" on="0"/>
        <pt x="75" y="255" on="0"/>
      </contour>
    </TTGlyph>
    <TTGlyph name="O" xMin="-17" yMin="-26" xMax="719" yMax="739">
      <contour>
        <pt x="719" y="648" on="1"/>
        <pt x="707" y="555" on="0"/>
        <pt x="580" y="322" on="0"/>
        <pt x="399" y="116" on="0"/>
        <pt x="161" y="-26" on="0"/>
        <pt x="51" y="-26" on="1"/>
        <pt x="-17" y="-26" on="0"/>
        <pt x="-17" y="65" on="1"/>
        <pt x="-17" y="127" on="0"/>
        <pt x="47" y="299" on="0"/>
        <pt x="171" y="482" on="0"/>
        <pt x="331" y="638" on="0"/>
        <pt x="548" y="739" on="0"/>
        <pt x="660" y="739" on="1"/>
        <pt x="692" y="739" on="0"/>
        <pt x="692" y="710" on="1"/>
        <pt x="692" y="655" on="0"/>
        <pt x="526" y="483" on="0"/>
        <pt x="452" y="482" on="1"/>
        <pt x="434" y="486" on="0"/>
        <pt x="434" y="501" on="0"/>
        <pt x="459" y="531" on="0"/>
        <pt x="470" y="531" on="0"/>
        <pt x="470" y="524" on="0"/>
        <pt x="462" y="516" on="0"/>
        <pt x="462" y="512" on="1"/>
        <pt x="462" y="510" on="0"/>
        <pt x="466" y="510" on="1"/>
        <pt x="493" y="510" on="0"/>
        <pt x="596" y="590" on="0"/>
        <pt x="678" y="688" on="0"/>
        <pt x="678" y="712" on="1"/>
        <pt x="678" y="727" on="0"/>
        <pt x="660" y="727" on="1"/>
        <pt x="554" y="727" on="0"/>
        <pt x="348" y="619" on="0"/>
        <pt x="197" y="455" on="0"/>
        <pt x="79" y="266" on="0"/>
        <pt x="19" y="98" on="0"/>
        <pt x="19" y="-16" on="0"/>
        <pt x="56" y="-16" on="1"/>
        <pt x="115" y="-16" on="0"/>
        <pt x="308" y="97" on="0"/>
        <pt x="503" y="270" on="0"/>
        <pt x="669" y="502" on="0"/>
        <pt x="697" y="608" on="1"/>
        <pt x="709" y="656" on="0"/>
        <pt x="712" y="656" on="1"/>
        <pt x="719" y="656" on="0"/>
      </contour>
    </TTGlyph>
    <TTGlyph name="OE" xMin="-17" yMin="-46" xMax="1051" yMax="771">
      <contour>
        <pt x="134" y="-15" on="0"/>
        <pt x="381" y="156" on="0"/>
        <pt x="532" y="310" on="0"/>
        <pt x="609" y="347" on="1"/>
        <pt x="573" y="338" on="0"/>
        <pt x="548" y="338" on="1"/>
        <pt x="477" y="338" on="0"/>
        <pt x="477" y="393" on="1"/>
        <pt x="477" y="437" on="0"/>
        <pt x="524" y="503" on="1"/>
        <pt x="485" y="482" on="0"/>
        <pt x="452" y="482" on="1"/>
        <pt x="434" y="486" on="0"/>
        <pt x="434" y="501" on="0"/>
        <pt x="459" y="531" on="0"/>
        <pt x="470" y="531" on="0"/>
        <pt x="470" y="524" on="0"/>
        <pt x="462" y="516" on="0"/>
        <pt x="462" y="512" on="1"/>
        <pt x="462" y="510" on="0"/>
        <pt x="466" y="510" on="1"/>
        <pt x="493" y="510" on="0"/>
        <pt x="596" y="590" on="0"/>
        <pt x="678" y="688" on="0"/>
        <pt x="678" y="712" on="1"/>
        <pt x="678" y="727" on="0"/>
        <pt x="660" y="727" on="1"/>
        <pt x="571" y="727" on="0"/>
        <pt x="396" y="650" on="0"/>
        <pt x="259" y="527" on="0"/>
        <pt x="141" y="375" on="0"/>
        <pt x="102" y="298" on="1"/>
        <pt x="19" y="134" on="0"/>
        <pt x="19" y="43" on="1"/>
        <pt x="19" y="-15" on="0"/>
        <pt x="69" y="-15" on="1"/>
      </contour>
      <contour>
        <pt x="349" y="21" on="1"/>
        <pt x="349" y="58" on="0"/>
        <pt x="371" y="108" on="1"/>
        <pt x="315" y="62" on="0"/>
        <pt x="134" y="-29" on="0"/>
        <pt x="70" y="-29" on="1"/>
        <pt x="-17" y="-29" on="0"/>
        <pt x="-17" y="65" on="1"/>
        <pt x="-17" y="127" on="0"/>
        <pt x="47" y="299" on="0"/>
        <pt x="171" y="482" on="0"/>
        <pt x="331" y="638" on="0"/>
        <pt x="548" y="739" on="0"/>
        <pt x="660" y="739" on="1"/>
        <pt x="692" y="739" on="0"/>
        <pt x="692" y="710" on="1"/>
        <pt x="692" y="685" on="0"/>
        <pt x="668" y="645" on="1"/>
        <pt x="838" y="771" on="0"/>
        <pt x="1007" y="771" on="1"/>
        <pt x="1051" y="771" on="0"/>
        <pt x="1051" y="746" on="1"/>
        <pt x="1051" y="703" on="0"/>
        <pt x="850" y="547" on="0"/>
        <pt x="799" y="547" on="1"/>
        <pt x="785" y="547" on="0"/>
        <pt x="785" y="578" on="0"/>
        <pt x="827" y="613" on="0"/>
        <pt x="838" y="613" on="0"/>
        <pt x="838" y="604" on="0"/>
        <pt x="819" y="592" on="0"/>
        <pt x="819" y="583" on="0"/>
        <pt x="823" y="583" on="1"/>
        <pt x="851" y="583" on="0"/>
        <pt x="1033" y="725" on="0"/>
        <pt x="1033" y="752" on="1"/>
        <pt x="1033" y="762" on="0"/>
        <pt x="1018" y="762" on="1"/>
        <pt x="935" y="762" on="0"/>
        <pt x="746" y="669" on="0"/>
        <pt x="604" y="544" on="0"/>
        <pt x="510" y="416" on="0"/>
        <pt x="510" y="380" on="1"/>
        <pt x="510" y="349" on="0"/>
        <pt x="546" y="349" on="1"/>
        <pt x="628" y="349" on="0"/>
        <pt x="730" y="416" on="1"/>
        <pt x="744" y="425" on="0"/>
        <pt x="775" y="446" on="0"/>
        <pt x="782" y="451" on="0"/>
        <pt x="788" y="451" on="0"/>
        <pt x="788" y="443" on="1"/>
        <pt x="788" y="440" on="1"/>
        <pt x="788" y="433" on="0"/>
        <pt x="710" y="386" on="1"/>
        <pt x="685" y="370" on="1"/>
        <pt x="581" y="308" on="0"/>
        <pt x="376" y="67" on="0"/>
        <pt x="376" y="6" on="1"/>
        <pt x="376" y="-29" on="0"/>
        <pt x="417" y="-29" on="1"/>
        <pt x="481" y="-29" on="0"/>
        <pt x="688" y="110" on="1"/>
        <pt x="755" y="152" on="1"/>
        <pt x="762" y="156" on="0"/>
        <pt x="778" y="156" on="0"/>
        <pt x="778" y="152" on="0"/>
        <pt x="775" y="150" on="1"/>
        <pt x="703" y="106" on="1"/>
        <pt x="694" y="100" on="0"/>
        <pt x="600" y="37" on="0"/>
        <pt x="560" y="12" on="0"/>
        <pt x="524" y="-8" on="1"/>
        <pt x="435" y="-46" on="0"/>
        <pt x="418" y="-46" on="1"/>
        <pt x="417" y="-46" on="0"/>
        <pt x="416" y="-46" on="1"/>
        <pt x="349" y="-46" on="0"/>
      </contour>
    </TTGlyph>
    <TTGlyph name="Oacute" xMin="-17" yMin="-26" xMax="753" yMax="841">
      <contour>
        <pt x="753" y="841" on="0"/>
        <pt x="753" y="813" on="0"/>
        <pt x="615" y="767" on="0"/>
        <pt x="601" y="767" on="0"/>
        <pt x="601" y="769" on="1"/>
        <pt x="601" y="773" on="0"/>
        <pt x="615" y="778" on="0"/>
        <pt x="646" y="795" on="0"/>
        <pt x="696" y="824" on="0"/>
        <pt x="720" y="836" on="1"/>
        <pt x="733" y="841" on="0"/>
        <pt x="741" y="841" on="1"/>
      </contour>
      <contour>
        <pt x="719" y="648" on="1"/>
        <pt x="707" y="555" on="0"/>
        <pt x="580" y="322" on="0"/>
        <pt x="399" y="116" on="0"/>
        <pt x="161" y="-26" on="0"/>
        <pt x="51" y="-26" on="1"/>
        <pt x="-17" y="-26" on="0"/>
        <pt x="-17" y="65" on="1"/>
        <pt x="-17" y="127" on="0"/>
        <pt x="47" y="299" on="0"/>
        <pt x="171" y="482" on="0"/>
        <pt x="331" y="638" on="0"/>
        <pt x="548" y="739" on="0"/>
        <pt x="660" y="739" on="1"/>
        <pt x="692" y="739" on="0"/>
        <pt x="692" y="710" on="1"/>
        <pt x="692" y="655" on="0"/>
        <pt x="526" y="483" on="0"/>
        <pt x="452" y="482" on="1"/>
        <pt x="434" y="486" on="0"/>
        <pt x="434" y="501" on="0"/>
        <pt x="459" y="531" on="0"/>
        <pt x="470" y="531" on="0"/>
        <pt x="470" y="524" on="0"/>
        <pt x="462" y="516" on="0"/>
        <pt x="462" y="512" on="1"/>
        <pt x="462" y="510" on="0"/>
        <pt x="466" y="510" on="1"/>
        <pt x="493" y="510" on="0"/>
        <pt x="596" y="590" on="0"/>
        <pt x="678" y="688" on="0"/>
        <pt x="678" y="712" on="1"/>
        <pt x="678" y="727" on="0"/>
        <pt x="660" y="727" on="1"/>
        <pt x="554" y="727" on="0"/>
        <pt x="348" y="619" on="0"/>
        <pt x="197" y="455" on="0"/>
        <pt x="79" y="266" on="0"/>
        <pt x="19" y="98" on="0"/>
        <pt x="19" y="-16" on="0"/>
        <pt x="56" y="-16" on="1"/>
        <pt x="115" y="-16" on="0"/>
        <pt x="308" y="97" on="0"/>
        <pt x="503" y="270" on="0"/>
        <pt x="669" y="502" on="0"/>
        <pt x="697" y="608" on="1"/>
        <pt x="709" y="656" on="0"/>
        <pt x="712" y="656" on="1"/>
        <pt x="719" y="656" on="0"/>
      </contour>
    </TTGlyph>
    <TTGlyph name="Ocircumflex" xMin="-17" yMin="-26" xMax="732" yMax="846">
      <contour>
        <pt x="656" y="796" on="1"/>
        <pt x="560" y="754" on="0"/>
        <pt x="541" y="754" on="0"/>
        <pt x="541" y="758" on="1"/>
        <pt x="541" y="760" on="1"/>
        <pt x="541" y="763" on="0"/>
        <pt x="574" y="779" on="0"/>
        <pt x="606" y="798" on="1"/>
        <pt x="688" y="846" on="0"/>
        <pt x="705" y="846" on="0"/>
        <pt x="709" y="827" on="0"/>
        <pt x="714" y="797" on="0"/>
        <pt x="715" y="792" on="1"/>
        <pt x="718" y="777" on="0"/>
        <pt x="731" y="758" on="1"/>
        <pt x="732" y="756" on="1"/>
        <pt x="732" y="753" on="0"/>
        <pt x="716" y="753" on="0"/>
        <pt x="694" y="789" on="0"/>
        <pt x="688" y="809" on="1"/>
      </contour>
      <contour>
        <pt x="719" y="648" on="1"/>
        <pt x="707" y="555" on="0"/>
        <pt x="580" y="322" on="0"/>
        <pt x="399" y="116" on="0"/>
        <pt x="161" y="-26" on="0"/>
        <pt x="51" y="-26" on="1"/>
        <pt x="-17" y="-26" on="0"/>
        <pt x="-17" y="65" on="1"/>
        <pt x="-17" y="127" on="0"/>
        <pt x="47" y="299" on="0"/>
        <pt x="171" y="482" on="0"/>
        <pt x="331" y="638" on="0"/>
        <pt x="548" y="739" on="0"/>
        <pt x="660" y="739" on="1"/>
        <pt x="692" y="739" on="0"/>
        <pt x="692" y="710" on="1"/>
        <pt x="692" y="655" on="0"/>
        <pt x="526" y="483" on="0"/>
        <pt x="452" y="482" on="1"/>
        <pt x="434" y="486" on="0"/>
        <pt x="434" y="501" on="0"/>
        <pt x="459" y="531" on="0"/>
        <pt x="470" y="531" on="0"/>
        <pt x="470" y="524" on="0"/>
        <pt x="462" y="516" on="0"/>
        <pt x="462" y="512" on="1"/>
        <pt x="462" y="510" on="0"/>
        <pt x="466" y="510" on="1"/>
        <pt x="493" y="510" on="0"/>
        <pt x="596" y="590" on="0"/>
        <pt x="678" y="688" on="0"/>
        <pt x="678" y="712" on="1"/>
        <pt x="678" y="727" on="0"/>
        <pt x="660" y="727" on="1"/>
        <pt x="554" y="727" on="0"/>
        <pt x="348" y="619" on="0"/>
        <pt x="197" y="455" on="0"/>
        <pt x="79" y="266" on="0"/>
        <pt x="19" y="98" on="0"/>
        <pt x="19" y="-16" on="0"/>
        <pt x="56" y="-16" on="1"/>
        <pt x="115" y="-16" on="0"/>
        <pt x="308" y="97" on="0"/>
        <pt x="503" y="270" on="0"/>
        <pt x="669" y="502" on="0"/>
        <pt x="697" y="608" on="1"/>
        <pt x="709" y="656" on="0"/>
        <pt x="712" y="656" on="1"/>
        <pt x="719" y="656" on="0"/>
      </contour>
    </TTGlyph>
    <TTGlyph name="Odieresis" xMin="-17" yMin="-26" xMax="740" yMax="839">
      <contour>
        <pt x="678" y="780" on="0"/>
        <pt x="678" y="811" on="0"/>
        <pt x="708" y="839" on="0"/>
        <pt x="729" y="839" on="0"/>
        <pt x="740" y="827" on="0"/>
        <pt x="740" y="811" on="0"/>
        <pt x="712" y="780" on="0"/>
      </contour>
      <contour>
        <pt x="598" y="780" on="0"/>
        <pt x="598" y="811" on="0"/>
        <pt x="628" y="839" on="0"/>
        <pt x="649" y="839" on="0"/>
        <pt x="660" y="827" on="0"/>
        <pt x="660" y="811" on="0"/>
        <pt x="632" y="780" on="0"/>
      </contour>
      <contour>
        <pt x="719" y="648" on="1"/>
        <pt x="707" y="555" on="0"/>
        <pt x="580" y="322" on="0"/>
        <pt x="399" y="116" on="0"/>
        <pt x="161" y="-26" on="0"/>
        <pt x="51" y="-26" on="1"/>
        <pt x="-17" y="-26" on="0"/>
        <pt x="-17" y="65" on="1"/>
        <pt x="-17" y="127" on="0"/>
        <pt x="47" y="299" on="0"/>
        <pt x="171" y="482" on="0"/>
        <pt x="331" y="638" on="0"/>
        <pt x="548" y="739" on="0"/>
        <pt x="660" y="739" on="1"/>
        <pt x="692" y="739" on="0"/>
        <pt x="692" y="710" on="1"/>
        <pt x="692" y="655" on="0"/>
        <pt x="526" y="483" on="0"/>
        <pt x="452" y="482" on="1"/>
        <pt x="434" y="486" on="0"/>
        <pt x="434" y="501" on="0"/>
        <pt x="459" y="531" on="0"/>
        <pt x="470" y="531" on="0"/>
        <pt x="470" y="524" on="0"/>
        <pt x="462" y="516" on="0"/>
        <pt x="462" y="512" on="1"/>
        <pt x="462" y="510" on="0"/>
        <pt x="466" y="510" on="1"/>
        <pt x="493" y="510" on="0"/>
        <pt x="596" y="590" on="0"/>
        <pt x="678" y="688" on="0"/>
        <pt x="678" y="712" on="1"/>
        <pt x="678" y="727" on="0"/>
        <pt x="660" y="727" on="1"/>
        <pt x="554" y="727" on="0"/>
        <pt x="348" y="619" on="0"/>
        <pt x="197" y="455" on="0"/>
        <pt x="79" y="266" on="0"/>
        <pt x="19" y="98" on="0"/>
        <pt x="19" y="-16" on="0"/>
        <pt x="56" y="-16" on="1"/>
        <pt x="115" y="-16" on="0"/>
        <pt x="308" y="97" on="0"/>
        <pt x="503" y="270" on="0"/>
        <pt x="669" y="502" on="0"/>
        <pt x="697" y="608" on="1"/>
        <pt x="709" y="656" on="0"/>
        <pt x="712" y="656" on="1"/>
        <pt x="719" y="656" on="0"/>
      </contour>
    </TTGlyph>
    <TTGlyph name="Ograve" xMin="-17" yMin="-26" xMax="728" yMax="851">
      <contour>
        <pt x="598" y="840" on="1"/>
        <pt x="598" y="851" on="0"/>
        <pt x="622" y="851" on="0"/>
        <pt x="627" y="846" on="1"/>
        <pt x="715" y="776" on="0"/>
        <pt x="728" y="769" on="0"/>
        <pt x="728" y="765" on="0"/>
        <pt x="713" y="765" on="0"/>
        <pt x="598" y="824" on="0"/>
      </contour>
      <contour>
        <pt x="719" y="648" on="1"/>
        <pt x="707" y="555" on="0"/>
        <pt x="580" y="322" on="0"/>
        <pt x="399" y="116" on="0"/>
        <pt x="161" y="-26" on="0"/>
        <pt x="51" y="-26" on="1"/>
        <pt x="-17" y="-26" on="0"/>
        <pt x="-17" y="65" on="1"/>
        <pt x="-17" y="127" on="0"/>
        <pt x="47" y="299" on="0"/>
        <pt x="171" y="482" on="0"/>
        <pt x="331" y="638" on="0"/>
        <pt x="548" y="739" on="0"/>
        <pt x="660" y="739" on="1"/>
        <pt x="692" y="739" on="0"/>
        <pt x="692" y="710" on="1"/>
        <pt x="692" y="655" on="0"/>
        <pt x="526" y="483" on="0"/>
        <pt x="452" y="482" on="1"/>
        <pt x="434" y="486" on="0"/>
        <pt x="434" y="501" on="0"/>
        <pt x="459" y="531" on="0"/>
        <pt x="470" y="531" on="0"/>
        <pt x="470" y="524" on="0"/>
        <pt x="462" y="516" on="0"/>
        <pt x="462" y="512" on="1"/>
        <pt x="462" y="510" on="0"/>
        <pt x="466" y="510" on="1"/>
        <pt x="493" y="510" on="0"/>
        <pt x="596" y="590" on="0"/>
        <pt x="678" y="688" on="0"/>
        <pt x="678" y="712" on="1"/>
        <pt x="678" y="727" on="0"/>
        <pt x="660" y="727" on="1"/>
        <pt x="554" y="727" on="0"/>
        <pt x="348" y="619" on="0"/>
        <pt x="197" y="455" on="0"/>
        <pt x="79" y="266" on="0"/>
        <pt x="19" y="98" on="0"/>
        <pt x="19" y="-16" on="0"/>
        <pt x="56" y="-16" on="1"/>
        <pt x="115" y="-16" on="0"/>
        <pt x="308" y="97" on="0"/>
        <pt x="503" y="270" on="0"/>
        <pt x="669" y="502" on="0"/>
        <pt x="697" y="608" on="1"/>
        <pt x="709" y="656" on="0"/>
        <pt x="712" y="656" on="1"/>
        <pt x="719" y="656" on="0"/>
      </contour>
    </TTGlyph>
    <TTGlyph name="Oslash" xMin="-17" yMin="-115" xMax="719" yMax="825">
      <contour>
        <pt x="532" y="541" on="1"/>
        <pt x="583" y="577" on="0"/>
        <pt x="678" y="687" on="0"/>
        <pt x="678" y="712" on="1"/>
        <pt x="678" y="723" on="0"/>
        <pt x="668" y="726" on="1"/>
        <pt x="642" y="690" on="0"/>
      </contour>
      <contour>
        <pt x="452" y="482" on="1"/>
        <pt x="434" y="486" on="0"/>
        <pt x="434" y="501" on="0"/>
        <pt x="459" y="531" on="0"/>
        <pt x="470" y="531" on="0"/>
        <pt x="470" y="524" on="0"/>
        <pt x="462" y="516" on="0"/>
        <pt x="462" y="512" on="1"/>
        <pt x="462" y="510" on="0"/>
        <pt x="471" y="510" on="0"/>
        <pt x="473" y="511" on="1"/>
        <pt x="606" y="694" on="0"/>
        <pt x="629" y="726" on="1"/>
        <pt x="527" y="718" on="0"/>
        <pt x="331" y="604" on="0"/>
        <pt x="187" y="442" on="0"/>
        <pt x="76" y="259" on="0"/>
        <pt x="19" y="97" on="0"/>
        <pt x="19" y="-16" on="0"/>
        <pt x="56" y="-16" on="1"/>
        <pt x="67" y="-16" on="0"/>
        <pt x="73" y="-15" on="1"/>
        <pt x="218" y="161" on="0"/>
      </contour>
      <contour>
        <pt x="719" y="648" on="1"/>
        <pt x="707" y="560" on="0"/>
        <pt x="591" y="339" on="0"/>
        <pt x="424" y="140" on="0"/>
        <pt x="203" y="-8" on="0"/>
        <pt x="97" y="-22" on="1"/>
        <pt x="52" y="-77" on="0"/>
        <pt x="29" y="-104" on="1"/>
        <pt x="18" y="-115" on="0"/>
        <pt x="4" y="-115" on="0"/>
        <pt x="4" y="-99" on="1"/>
        <pt x="4" y="-95" on="1"/>
        <pt x="21" y="-78" on="0"/>
        <pt x="64" y="-25" on="1"/>
        <pt x="56" y="-26" on="0"/>
        <pt x="51" y="-26" on="1"/>
        <pt x="-17" y="-26" on="0"/>
        <pt x="-17" y="65" on="1"/>
        <pt x="-17" y="167" on="0"/>
        <pt x="68" y="324" on="1"/>
        <pt x="107" y="398" on="0"/>
        <pt x="228" y="542" on="0"/>
        <pt x="368" y="659" on="0"/>
        <pt x="546" y="734" on="0"/>
        <pt x="638" y="738" on="1"/>
        <pt x="686" y="805" on="1"/>
        <pt x="700" y="825" on="0"/>
        <pt x="718" y="825" on="0"/>
        <pt x="718" y="800" on="1"/>
        <pt x="718" y="796" on="0"/>
        <pt x="676" y="736" on="1"/>
        <pt x="692" y="730" on="0"/>
        <pt x="692" y="710" on="1"/>
        <pt x="692" y="664" on="0"/>
        <pt x="563" y="514" on="0"/>
        <pt x="494" y="490" on="1"/>
        <pt x="262" y="180" on="0"/>
        <pt x="110" y="-6" on="1"/>
        <pt x="203" y="22" on="0"/>
        <pt x="447" y="209" on="0"/>
        <pt x="663" y="482" on="0"/>
        <pt x="697" y="608" on="1"/>
        <pt x="709" y="656" on="0"/>
        <pt x="712" y="656" on="1"/>
        <pt x="719" y="656" on="0"/>
      </contour>
    </TTGlyph>
    <TTGlyph name="Otilde" xMin="-17" yMin="-26" xMax="743" yMax="817">
      <contour>
        <pt x="668" y="772" on="0"/>
        <pt x="618" y="794" on="0"/>
        <pt x="598" y="794" on="0"/>
        <pt x="588" y="784" on="0"/>
        <pt x="577" y="784" on="0"/>
        <pt x="577" y="791" on="0"/>
        <pt x="581" y="795" on="1"/>
        <pt x="603" y="817" on="0"/>
        <pt x="640" y="817" on="0"/>
        <pt x="688" y="792" on="0"/>
        <pt x="716" y="792" on="0"/>
        <pt x="734" y="813" on="1"/>
        <pt x="735" y="815" on="0"/>
        <pt x="743" y="815" on="0"/>
        <pt x="743" y="804" on="0"/>
        <pt x="742" y="803" on="1"/>
        <pt x="716" y="772" on="0"/>
        <pt x="684" y="772" on="1"/>
      </contour>
      <contour>
        <pt x="719" y="648" on="1"/>
        <pt x="707" y="555" on="0"/>
        <pt x="580" y="322" on="0"/>
        <pt x="399" y="116" on="0"/>
        <pt x="161" y="-26" on="0"/>
        <pt x="51" y="-26" on="1"/>
        <pt x="-17" y="-26" on="0"/>
        <pt x="-17" y="65" on="1"/>
        <pt x="-17" y="127" on="0"/>
        <pt x="47" y="299" on="0"/>
        <pt x="171" y="482" on="0"/>
        <pt x="331" y="638" on="0"/>
        <pt x="548" y="739" on="0"/>
        <pt x="660" y="739" on="1"/>
        <pt x="692" y="739" on="0"/>
        <pt x="692" y="710" on="1"/>
        <pt x="692" y="655" on="0"/>
        <pt x="526" y="483" on="0"/>
        <pt x="452" y="482" on="1"/>
        <pt x="434" y="486" on="0"/>
        <pt x="434" y="501" on="0"/>
        <pt x="459" y="531" on="0"/>
        <pt x="470" y="531" on="0"/>
        <pt x="470" y="524" on="0"/>
        <pt x="462" y="516" on="0"/>
        <pt x="462" y="512" on="1"/>
        <pt x="462" y="510" on="0"/>
        <pt x="466" y="510" on="1"/>
        <pt x="493" y="510" on="0"/>
        <pt x="596" y="590" on="0"/>
        <pt x="678" y="688" on="0"/>
        <pt x="678" y="712" on="1"/>
        <pt x="678" y="727" on="0"/>
        <pt x="660" y="727" on="1"/>
        <pt x="554" y="727" on="0"/>
        <pt x="348" y="619" on="0"/>
        <pt x="197" y="455" on="0"/>
        <pt x="79" y="266" on="0"/>
        <pt x="19" y="98" on="0"/>
        <pt x="19" y="-16" on="0"/>
        <pt x="56" y="-16" on="1"/>
        <pt x="115" y="-16" on="0"/>
        <pt x="308" y="97" on="0"/>
        <pt x="503" y="270" on="0"/>
        <pt x="669" y="502" on="0"/>
        <pt x="697" y="608" on="1"/>
        <pt x="709" y="656" on="0"/>
        <pt x="712" y="656" on="1"/>
        <pt x="719" y="656" on="0"/>
      </contour>
    </TTGlyph>
    <TTGlyph name="P" xMin="0" yMin="-21" xMax="928" yMax="768">
      <contour>
        <pt x="437" y="422" on="1"/>
        <pt x="441" y="432" on="0"/>
        <pt x="450" y="432" on="0"/>
        <pt x="449" y="417" on="0"/>
        <pt x="446" y="402" on="1"/>
        <pt x="437" y="367" on="0"/>
        <pt x="437" y="344" on="1"/>
        <pt x="437" y="302" on="0"/>
        <pt x="469" y="302" on="1"/>
        <pt x="521" y="302" on="0"/>
        <pt x="728" y="461" on="0"/>
        <pt x="895" y="662" on="0"/>
        <pt x="895" y="715" on="1"/>
        <pt x="895" y="756" on="0"/>
        <pt x="840" y="756" on="1"/>
        <pt x="762" y="756" on="0"/>
        <pt x="540" y="640" on="0"/>
        <pt x="322" y="459" on="0"/>
        <pt x="131" y="256" on="0"/>
        <pt x="12" y="61" on="0"/>
        <pt x="12" y="0" on="1"/>
        <pt x="12" y="-8" on="0"/>
        <pt x="19" y="-8" on="1"/>
        <pt x="48" y="-8" on="0"/>
        <pt x="244" y="225" on="0"/>
        <pt x="425" y="486" on="0"/>
        <pt x="442" y="530" on="1"/>
        <pt x="445" y="537" on="0"/>
        <pt x="448" y="537" on="1"/>
        <pt x="459" y="537" on="0"/>
        <pt x="459" y="482" on="0"/>
        <pt x="454" y="475" on="1"/>
        <pt x="443" y="445" on="0"/>
        <pt x="410" y="394" on="1"/>
        <pt x="333" y="273" on="0"/>
        <pt x="50" y="-21" on="0"/>
        <pt x="16" y="-21" on="1"/>
        <pt x="0" y="-21" on="0"/>
        <pt x="0" y="0" on="1"/>
        <pt x="0" y="78" on="0"/>
        <pt x="188" y="343" on="0"/>
        <pt x="449" y="588" on="0"/>
        <pt x="746" y="768" on="0"/>
        <pt x="844" y="768" on="1"/>
        <pt x="928" y="768" on="0"/>
        <pt x="928" y="708" on="1"/>
        <pt x="928" y="661" on="0"/>
        <pt x="824" y="514" on="0"/>
        <pt x="678" y="380" on="0"/>
        <pt x="506" y="284" on="0"/>
        <pt x="444" y="284" on="1"/>
        <pt x="410" y="284" on="0"/>
        <pt x="410" y="324" on="1"/>
        <pt x="410" y="358" on="0"/>
        <pt x="430" y="406" on="1"/>
      </contour>
    </TTGlyph>
    <TTGlyph name="Q" xMin="-225" yMin="-189" xMax="687" yMax="688">
      <contour>
        <pt x="77" y="6" on="1"/>
        <pt x="8" y="6" on="0"/>
        <pt x="-201" y="-119" on="0"/>
        <pt x="-201" y="-170" on="1"/>
        <pt x="-201" y="-174" on="0"/>
        <pt x="-197" y="-174" on="1"/>
        <pt x="-181" y="-174" on="0"/>
        <pt x="-10" y="-71" on="0"/>
        <pt x="96" y="5" on="1"/>
        <pt x="90" y="6" on="0"/>
      </contour>
      <contour>
        <pt x="158" y="214" on="1"/>
        <pt x="125" y="214" on="0"/>
        <pt x="125" y="259" on="1"/>
        <pt x="125" y="357" on="0"/>
        <pt x="280" y="560" on="0"/>
        <pt x="508" y="688" on="0"/>
        <pt x="610" y="688" on="1"/>
        <pt x="646" y="688" on="0"/>
        <pt x="686" y="650" on="0"/>
        <pt x="686" y="541" on="0"/>
        <pt x="597" y="394" on="0"/>
        <pt x="522" y="317" on="1"/>
        <pt x="372" y="164" on="0"/>
        <pt x="176" y="25" on="1"/>
        <pt x="214" y="17" on="0"/>
        <pt x="402" y="-68" on="0"/>
        <pt x="502" y="-68" on="0"/>
        <pt x="610" y="-27" on="0"/>
        <pt x="640" y="-6" on="1"/>
        <pt x="671" y="14" on="1"/>
        <pt x="676" y="18" on="0"/>
        <pt x="687" y="18" on="0"/>
        <pt x="687" y="11" on="0"/>
        <pt x="678" y="3" on="0"/>
        <pt x="661" y="-9" on="0"/>
        <pt x="605" y="-41" on="0"/>
        <pt x="576" y="-54" on="1"/>
        <pt x="502" y="-86" on="0"/>
        <pt x="354" y="-86" on="0"/>
        <pt x="178" y="-7" on="0"/>
        <pt x="140" y="0" on="1"/>
        <pt x="21" y="-83" on="0"/>
        <pt x="-174" y="-189" on="0"/>
        <pt x="-208" y="-189" on="1"/>
        <pt x="-225" y="-189" on="0"/>
        <pt x="-225" y="-171" on="1"/>
        <pt x="-225" y="-142" on="0"/>
        <pt x="-111" y="-46" on="0"/>
        <pt x="57" y="31" on="0"/>
        <pt x="122" y="31" on="1"/>
        <pt x="131" y="31" on="1"/>
        <pt x="329" y="175" on="0"/>
        <pt x="482" y="332" on="1"/>
        <pt x="562" y="414" on="0"/>
        <pt x="656" y="571" on="0"/>
        <pt x="656" y="632" on="1"/>
        <pt x="656" y="658" on="0"/>
        <pt x="636" y="678" on="0"/>
        <pt x="610" y="678" on="1"/>
        <pt x="533" y="678" on="0"/>
        <pt x="308" y="532" on="0"/>
        <pt x="139" y="327" on="0"/>
        <pt x="139" y="253" on="1"/>
        <pt x="139" y="225" on="0"/>
        <pt x="168" y="225" on="1"/>
        <pt x="220" y="225" on="0"/>
        <pt x="368" y="322" on="0"/>
        <pt x="416" y="370" on="1"/>
        <pt x="465" y="418" on="1"/>
        <pt x="469" y="422" on="0"/>
        <pt x="480" y="422" on="0"/>
        <pt x="480" y="415" on="0"/>
        <pt x="470" y="404" on="0"/>
        <pt x="445" y="377" on="0"/>
        <pt x="369" y="309" on="0"/>
        <pt x="296" y="257" on="0"/>
        <pt x="199" y="214" on="0"/>
      </contour>
    </TTGlyph>
    <TTGlyph name="R" xMin="-34" yMin="-58" xMax="894" yMax="738">
      <contour>
        <pt x="407" y="392" on="1"/>
        <pt x="403" y="285" on="1"/>
        <pt x="413" y="272" on="0"/>
        <pt x="435" y="272" on="1"/>
        <pt x="487" y="272" on="0"/>
        <pt x="694" y="431" on="0"/>
        <pt x="861" y="632" on="0"/>
        <pt x="861" y="685" on="1"/>
        <pt x="861" y="726" on="0"/>
        <pt x="806" y="726" on="1"/>
        <pt x="728" y="726" on="0"/>
        <pt x="506" y="610" on="0"/>
        <pt x="288" y="429" on="0"/>
        <pt x="97" y="226" on="0"/>
        <pt x="-22" y="31" on="0"/>
        <pt x="-22" y="-30" on="1"/>
        <pt x="-22" y="-38" on="0"/>
        <pt x="-15" y="-38" on="1"/>
        <pt x="14" y="-38" on="0"/>
        <pt x="210" y="195" on="0"/>
        <pt x="391" y="456" on="0"/>
        <pt x="408" y="500" on="1"/>
        <pt x="411" y="507" on="0"/>
        <pt x="414" y="507" on="1"/>
        <pt x="425" y="507" on="0"/>
        <pt x="425" y="452" on="0"/>
        <pt x="420" y="445" on="1"/>
        <pt x="409" y="415" on="0"/>
        <pt x="376" y="364" on="1"/>
        <pt x="299" y="243" on="0"/>
        <pt x="16" y="-51" on="0"/>
        <pt x="-18" y="-51" on="1"/>
        <pt x="-34" y="-51" on="0"/>
        <pt x="-34" y="-30" on="1"/>
        <pt x="-34" y="48" on="0"/>
        <pt x="154" y="313" on="0"/>
        <pt x="415" y="558" on="0"/>
        <pt x="712" y="738" on="0"/>
        <pt x="810" y="738" on="1"/>
        <pt x="894" y="738" on="0"/>
        <pt x="894" y="678" on="1"/>
        <pt x="894" y="631" on="0"/>
        <pt x="790" y="484" on="0"/>
        <pt x="644" y="350" on="0"/>
        <pt x="472" y="254" on="0"/>
        <pt x="410" y="254" on="1"/>
        <pt x="405" y="254" on="0"/>
        <pt x="402" y="255" on="1"/>
        <pt x="412" y="-41" on="0"/>
        <pt x="499" y="-41" on="1"/>
        <pt x="529" y="-41" on="0"/>
        <pt x="622" y="-4" on="0"/>
        <pt x="654" y="15" on="1"/>
        <pt x="686" y="34" on="1"/>
        <pt x="694" y="39" on="0"/>
        <pt x="702" y="39" on="0"/>
        <pt x="702" y="32" on="0"/>
        <pt x="695" y="26" on="1"/>
        <pt x="681" y="17" on="0"/>
        <pt x="637" y="-11" on="0"/>
        <pt x="527" y="-58" on="0"/>
        <pt x="456" y="-58" on="0"/>
        <pt x="408" y="-13" on="0"/>
        <pt x="396" y="26" on="1"/>
        <pt x="373" y="96" on="0"/>
        <pt x="373" y="287" on="0"/>
        <pt x="396" y="397" on="0"/>
        <pt x="405" y="397" on="1"/>
        <pt x="407" y="397" on="0"/>
      </contour>
    </TTGlyph>
    <TTGlyph name="S" xMin="-211" yMin="-82" xMax="700" yMax="721">
      <contour>
        <pt x="314" y="-49" on="1"/>
        <pt x="352" y="-49" on="0"/>
        <pt x="444" y="73" on="0"/>
        <pt x="522" y="252" on="0"/>
        <pt x="589" y="442" on="0"/>
        <pt x="627" y="591" on="0"/>
        <pt x="627" y="619" on="0"/>
        <pt x="625" y="619" on="1"/>
        <pt x="616" y="619" on="0"/>
        <pt x="406" y="398" on="0"/>
        <pt x="282" y="274" on="0"/>
        <pt x="199" y="198" on="1"/>
        <pt x="27" y="42" on="0"/>
        <pt x="-193" y="-79" on="1"/>
        <pt x="-199" y="-82" on="0"/>
        <pt x="-211" y="-82" on="0"/>
        <pt x="-211" y="-74" on="0"/>
        <pt x="-204" y="-71" on="1"/>
        <pt x="-56" y="5" on="0"/>
        <pt x="89" y="124" on="1"/>
        <pt x="238" y="247" on="0"/>
        <pt x="422" y="434" on="0"/>
        <pt x="518" y="536" on="0"/>
        <pt x="651" y="678" on="0"/>
        <pt x="686" y="715" on="1"/>
        <pt x="692" y="721" on="0"/>
        <pt x="700" y="721" on="0"/>
        <pt x="700" y="715" on="1"/>
        <pt x="700" y="684" on="0"/>
        <pt x="662" y="514" on="0"/>
        <pt x="588" y="289" on="0"/>
        <pt x="496" y="81" on="0"/>
        <pt x="370" y="-62" on="0"/>
        <pt x="307" y="-62" on="1"/>
        <pt x="268" y="-62" on="0"/>
        <pt x="223" y="19" on="0"/>
        <pt x="223" y="150" on="0"/>
        <pt x="255" y="205" on="1"/>
        <pt x="263" y="219" on="0"/>
        <pt x="269" y="219" on="1"/>
        <pt x="274" y="219" on="0"/>
        <pt x="276" y="211" on="1"/>
        <pt x="266" y="194" on="0"/>
        <pt x="250" y="111" on="0"/>
        <pt x="250" y="69" on="1"/>
        <pt x="250" y="-49" on="0"/>
      </contour>
    </TTGlyph>
    <TTGlyph name="Scaron" xMin="-211" yMin="-82" xMax="824" yMax="840">
      <contour>
        <pt x="708" y="798" on="1"/>
        <pt x="801" y="839" on="0"/>
        <pt x="824" y="839" on="0"/>
        <pt x="824" y="834" on="1"/>
        <pt x="824" y="833" on="1"/>
        <pt x="824" y="830" on="0"/>
        <pt x="791" y="814" on="0"/>
        <pt x="760" y="796" on="1"/>
        <pt x="677" y="747" on="0"/>
        <pt x="660" y="747" on="0"/>
        <pt x="656" y="766" on="0"/>
        <pt x="651" y="796" on="0"/>
        <pt x="650" y="802" on="1"/>
        <pt x="647" y="816" on="0"/>
        <pt x="634" y="835" on="1"/>
        <pt x="633" y="837" on="1"/>
        <pt x="633" y="840" on="0"/>
        <pt x="649" y="840" on="0"/>
        <pt x="671" y="804" on="0"/>
        <pt x="677" y="784" on="1"/>
      </contour>
      <contour>
        <pt x="314" y="-49" on="1"/>
        <pt x="352" y="-49" on="0"/>
        <pt x="444" y="73" on="0"/>
        <pt x="522" y="252" on="0"/>
        <pt x="589" y="442" on="0"/>
        <pt x="627" y="591" on="0"/>
        <pt x="627" y="619" on="0"/>
        <pt x="625" y="619" on="1"/>
        <pt x="616" y="619" on="0"/>
        <pt x="406" y="398" on="0"/>
        <pt x="282" y="274" on="0"/>
        <pt x="199" y="198" on="1"/>
        <pt x="27" y="42" on="0"/>
        <pt x="-193" y="-79" on="1"/>
        <pt x="-199" y="-82" on="0"/>
        <pt x="-211" y="-82" on="0"/>
        <pt x="-211" y="-74" on="0"/>
        <pt x="-204" y="-71" on="1"/>
        <pt x="-56" y="5" on="0"/>
        <pt x="89" y="124" on="1"/>
        <pt x="238" y="247" on="0"/>
        <pt x="422" y="434" on="0"/>
        <pt x="518" y="536" on="0"/>
        <pt x="651" y="678" on="0"/>
        <pt x="686" y="715" on="1"/>
        <pt x="692" y="721" on="0"/>
        <pt x="700" y="721" on="0"/>
        <pt x="700" y="715" on="1"/>
        <pt x="700" y="684" on="0"/>
        <pt x="662" y="514" on="0"/>
        <pt x="588" y="289" on="0"/>
        <pt x="496" y="81" on="0"/>
        <pt x="370" y="-62" on="0"/>
        <pt x="307" y="-62" on="1"/>
        <pt x="268" y="-62" on="0"/>
        <pt x="223" y="19" on="0"/>
        <pt x="223" y="150" on="0"/>
        <pt x="255" y="205" on="1"/>
        <pt x="263" y="219" on="0"/>
        <pt x="269" y="219" on="1"/>
        <pt x="274" y="219" on="0"/>
        <pt x="276" y="211" on="1"/>
        <pt x="266" y="194" on="0"/>
        <pt x="250" y="111" on="0"/>
        <pt x="250" y="69" on="1"/>
        <pt x="250" y="-49" on="0"/>
      </contour>
    </TTGlyph>
    <TTGlyph name="T" xMin="2" yMin="-126" xMax="802" yMax="756">
      <contour>
        <pt x="784" y="733" on="1"/>
        <pt x="784" y="742" on="0"/>
        <pt x="774" y="742" on="1"/>
        <pt x="735" y="742" on="0"/>
        <pt x="592" y="592" on="1"/>
        <pt x="660" y="604" on="0"/>
        <pt x="784" y="706" on="0"/>
      </contour>
      <contour>
        <pt x="196" y="645" on="1"/>
        <pt x="196" y="618" on="0"/>
        <pt x="85" y="501" on="0"/>
        <pt x="46" y="501" on="1"/>
        <pt x="18" y="501" on="0"/>
        <pt x="18" y="526" on="1"/>
        <pt x="18" y="575" on="0"/>
        <pt x="172" y="708" on="0"/>
        <pt x="266" y="708" on="1"/>
        <pt x="298" y="708" on="0"/>
        <pt x="394" y="655" on="0"/>
        <pt x="505" y="595" on="0"/>
        <pt x="550" y="590" on="1"/>
        <pt x="718" y="756" on="0"/>
        <pt x="778" y="756" on="1"/>
        <pt x="802" y="756" on="0"/>
        <pt x="802" y="738" on="1"/>
        <pt x="802" y="703" on="0"/>
        <pt x="663" y="594" on="0"/>
        <pt x="582" y="581" on="1"/>
        <pt x="428" y="417" on="0"/>
        <pt x="71" y="-42" on="0"/>
        <pt x="71" y="-72" on="1"/>
        <pt x="71" y="-75" on="0"/>
        <pt x="76" y="-75" on="0"/>
        <pt x="83" y="-71" on="0"/>
        <pt x="92" y="-66" on="0"/>
        <pt x="98" y="-62" on="0"/>
        <pt x="100" y="-62" on="0"/>
        <pt x="100" y="-65" on="1"/>
        <pt x="100" y="-76" on="0"/>
        <pt x="31" y="-126" on="0"/>
        <pt x="18" y="-126" on="1"/>
        <pt x="2" y="-126" on="0"/>
        <pt x="2" y="-108" on="1"/>
        <pt x="2" y="-61" on="0"/>
        <pt x="363" y="403" on="0"/>
        <pt x="537" y="578" on="1"/>
        <pt x="479" y="579" on="0"/>
        <pt x="386" y="614" on="0"/>
        <pt x="361" y="634" on="1"/>
        <pt x="293" y="688" on="0"/>
        <pt x="164" y="688" on="0"/>
        <pt x="48" y="568" on="0"/>
        <pt x="48" y="530" on="1"/>
        <pt x="48" y="518" on="0"/>
        <pt x="58" y="518" on="1"/>
        <pt x="86" y="518" on="0"/>
        <pt x="167" y="604" on="0"/>
        <pt x="183" y="642" on="1"/>
        <pt x="188" y="651" on="0"/>
        <pt x="190" y="651" on="1"/>
        <pt x="196" y="651" on="0"/>
      </contour>
    </TTGlyph>
    <TTGlyph name="Thorn" xMin="0" yMin="-21" xMax="849" yMax="762">
      <contour>
        <pt x="12" y="0" on="1"/>
        <pt x="12" y="-8" on="0"/>
        <pt x="19" y="-8" on="1"/>
        <pt x="47" y="-8" on="0"/>
        <pt x="298" y="322" on="0"/>
        <pt x="427" y="516" on="1"/>
        <pt x="261" y="402" on="0"/>
        <pt x="12" y="99" on="0"/>
      </contour>
      <contour>
        <pt x="358" y="318" on="1"/>
        <pt x="362" y="328" on="0"/>
        <pt x="371" y="328" on="0"/>
        <pt x="370" y="313" on="0"/>
        <pt x="366" y="298" on="1"/>
        <pt x="358" y="263" on="0"/>
        <pt x="358" y="240" on="1"/>
        <pt x="358" y="198" on="0"/>
        <pt x="390" y="198" on="1"/>
        <pt x="442" y="198" on="0"/>
        <pt x="649" y="357" on="0"/>
        <pt x="816" y="558" on="0"/>
        <pt x="816" y="611" on="1"/>
        <pt x="816" y="652" on="0"/>
        <pt x="761" y="652" on="1"/>
        <pt x="654" y="652" on="0"/>
        <pt x="505" y="565" on="1"/>
        <pt x="391" y="401" on="0"/>
        <pt x="44" y="-21" on="0"/>
        <pt x="16" y="-21" on="1"/>
        <pt x="0" y="-21" on="0"/>
        <pt x="0" y="0" on="1"/>
        <pt x="0" y="104" on="0"/>
        <pt x="267" y="421" on="0"/>
        <pt x="441" y="537" on="1"/>
        <pt x="555" y="708" on="0"/>
        <pt x="573" y="755" on="1"/>
        <pt x="576" y="762" on="0"/>
        <pt x="579" y="762" on="1"/>
        <pt x="590" y="762" on="0"/>
        <pt x="590" y="708" on="0"/>
        <pt x="585" y="700" on="1"/>
        <pt x="579" y="684" on="0"/>
        <pt x="532" y="604" on="0"/>
        <pt x="517" y="583" on="1"/>
        <pt x="661" y="664" on="0"/>
        <pt x="765" y="664" on="1"/>
        <pt x="849" y="664" on="0"/>
        <pt x="849" y="604" on="1"/>
        <pt x="849" y="557" on="0"/>
        <pt x="745" y="410" on="0"/>
        <pt x="599" y="276" on="0"/>
        <pt x="427" y="180" on="0"/>
        <pt x="365" y="180" on="1"/>
        <pt x="331" y="180" on="0"/>
        <pt x="331" y="220" on="1"/>
        <pt x="331" y="258" on="0"/>
        <pt x="351" y="302" on="1"/>
      </contour>
    </TTGlyph>
    <TTGlyph name="U" xMin="-2" yMin="-68" xMax="957" yMax="757">
      <contour>
        <pt x="419" y="-56" on="1"/>
        <pt x="466" y="-56" on="0"/>
        <pt x="713" y="110" on="1"/>
        <pt x="780" y="152" on="1"/>
        <pt x="787" y="156" on="0"/>
        <pt x="803" y="156" on="0"/>
        <pt x="803" y="152" on="0"/>
        <pt x="800" y="150" on="1"/>
        <pt x="728" y="106" on="1"/>
        <pt x="713" y="96" on="0"/>
        <pt x="623" y="35" on="0"/>
        <pt x="567" y="-1" on="0"/>
        <pt x="529" y="-24" on="1"/>
        <pt x="454" y="-68" on="0"/>
        <pt x="412" y="-68" on="1"/>
        <pt x="396" y="-66" on="0"/>
        <pt x="396" y="-12" on="0"/>
        <pt x="460" y="110" on="0"/>
        <pt x="549" y="238" on="0"/>
        <pt x="639" y="358" on="0"/>
        <pt x="697" y="435" on="0"/>
        <pt x="695" y="435" on="1"/>
        <pt x="690" y="435" on="0"/>
        <pt x="526" y="282" on="0"/>
        <pt x="328" y="100" on="0"/>
        <pt x="126" y="-53" on="0"/>
        <pt x="88" y="-53" on="1"/>
        <pt x="73" y="-53" on="0"/>
        <pt x="73" y="-37" on="1"/>
        <pt x="73" y="37" on="0"/>
        <pt x="241" y="241" on="1"/>
        <pt x="311" y="326" on="0"/>
        <pt x="451" y="498" on="0"/>
        <pt x="549" y="661" on="0"/>
        <pt x="549" y="711" on="1"/>
        <pt x="549" y="725" on="0"/>
        <pt x="533" y="741" on="0"/>
        <pt x="514" y="745" on="0"/>
        <pt x="496" y="746" on="1"/>
        <pt x="441" y="745" on="0"/>
        <pt x="305" y="662" on="0"/>
        <pt x="185" y="537" on="0"/>
        <pt x="84" y="401" on="0"/>
        <pt x="24" y="283" on="0"/>
        <pt x="24" y="230" on="0"/>
        <pt x="43" y="230" on="1"/>
        <pt x="81" y="230" on="0"/>
        <pt x="218" y="324" on="0"/>
        <pt x="268" y="371" on="1"/>
        <pt x="317" y="418" on="1"/>
        <pt x="323" y="424" on="0"/>
        <pt x="331" y="424" on="0"/>
        <pt x="331" y="419" on="0"/>
        <pt x="325" y="413" on="1"/>
        <pt x="306" y="394" on="1"/>
        <pt x="293" y="381" on="0"/>
        <pt x="217" y="315" on="0"/>
        <pt x="150" y="265" on="0"/>
        <pt x="72" y="223" on="0"/>
        <pt x="47" y="223" on="1"/>
        <pt x="-2" y="223" on="0"/>
        <pt x="-2" y="274" on="1"/>
        <pt x="-2" y="314" on="0"/>
        <pt x="57" y="436" on="0"/>
        <pt x="160" y="567" on="0"/>
        <pt x="284" y="683" on="0"/>
        <pt x="433" y="757" on="0"/>
        <pt x="562" y="757" on="0"/>
        <pt x="562" y="704" on="1"/>
        <pt x="562" y="633" on="0"/>
        <pt x="464" y="447" on="0"/>
        <pt x="325" y="274" on="0"/>
        <pt x="186" y="115" on="0"/>
        <pt x="88" y="-10" on="0"/>
        <pt x="88" y="-35" on="1"/>
        <pt x="88" y="-40" on="0"/>
        <pt x="93" y="-40" on="1"/>
        <pt x="135" y="-40" on="0"/>
        <pt x="437" y="207" on="0"/>
        <pt x="566" y="330" on="1"/>
        <pt x="696" y="453" on="1"/>
        <pt x="779" y="536" on="0"/>
        <pt x="897" y="675" on="0"/>
        <pt x="902" y="680" on="1"/>
        <pt x="915" y="699" on="0"/>
        <pt x="937" y="699" on="0"/>
        <pt x="957" y="692" on="0"/>
        <pt x="957" y="688" on="1"/>
        <pt x="957" y="678" on="0"/>
        <pt x="652" y="301" on="0"/>
        <pt x="644" y="290" on="0"/>
        <pt x="576" y="208" on="0"/>
        <pt x="516" y="131" on="0"/>
        <pt x="483" y="86" on="1"/>
        <pt x="410" y="-14" on="0"/>
        <pt x="410" y="-46" on="1"/>
        <pt x="410" y="-56" on="0"/>
      </contour>
    </TTGlyph>
    <TTGlyph name="Uacute" xMin="-2" yMin="-68" xMax="957" yMax="800">
      <contour>
        <pt x="858" y="800" on="0"/>
        <pt x="858" y="772" on="0"/>
        <pt x="720" y="726" on="0"/>
        <pt x="706" y="726" on="0"/>
        <pt x="706" y="728" on="1"/>
        <pt x="706" y="732" on="0"/>
        <pt x="720" y="737" on="0"/>
        <pt x="751" y="754" on="0"/>
        <pt x="801" y="783" on="0"/>
        <pt x="825" y="795" on="1"/>
        <pt x="838" y="800" on="0"/>
        <pt x="846" y="800" on="1"/>
      </contour>
      <contour>
        <pt x="419" y="-56" on="1"/>
        <pt x="466" y="-56" on="0"/>
        <pt x="713" y="110" on="1"/>
        <pt x="780" y="152" on="1"/>
        <pt x="787" y="156" on="0"/>
        <pt x="803" y="156" on="0"/>
        <pt x="803" y="152" on="0"/>
        <pt x="800" y="150" on="1"/>
        <pt x="728" y="106" on="1"/>
        <pt x="713" y="96" on="0"/>
        <pt x="623" y="35" on="0"/>
        <pt x="567" y="-1" on="0"/>
        <pt x="529" y="-24" on="1"/>
        <pt x="454" y="-68" on="0"/>
        <pt x="412" y="-68" on="1"/>
        <pt x="396" y="-66" on="0"/>
        <pt x="396" y="-12" on="0"/>
        <pt x="460" y="110" on="0"/>
        <pt x="549" y="238" on="0"/>
        <pt x="639" y="358" on="0"/>
        <pt x="697" y="435" on="0"/>
        <pt x="695" y="435" on="1"/>
        <pt x="690" y="435" on="0"/>
        <pt x="526" y="282" on="0"/>
        <pt x="328" y="100" on="0"/>
        <pt x="126" y="-53" on="0"/>
        <pt x="88" y="-53" on="1"/>
        <pt x="73" y="-53" on="0"/>
        <pt x="73" y="-37" on="1"/>
        <pt x="73" y="37" on="0"/>
        <pt x="241" y="241" on="1"/>
        <pt x="311" y="326" on="0"/>
        <pt x="451" y="498" on="0"/>
        <pt x="549" y="661" on="0"/>
        <pt x="549" y="711" on="1"/>
        <pt x="549" y="725" on="0"/>
        <pt x="533" y="741" on="0"/>
        <pt x="514" y="745" on="0"/>
        <pt x="496" y="746" on="1"/>
        <pt x="441" y="745" on="0"/>
        <pt x="305" y="662" on="0"/>
        <pt x="185" y="537" on="0"/>
        <pt x="84" y="401" on="0"/>
        <pt x="24" y="283" on="0"/>
        <pt x="24" y="230" on="0"/>
        <pt x="43" y="230" on="1"/>
        <pt x="81" y="230" on="0"/>
        <pt x="218" y="324" on="0"/>
        <pt x="268" y="371" on="1"/>
        <pt x="317" y="418" on="1"/>
        <pt x="323" y="424" on="0"/>
        <pt x="331" y="424" on="0"/>
        <pt x="331" y="419" on="0"/>
        <pt x="325" y="413" on="1"/>
        <pt x="306" y="394" on="1"/>
        <pt x="293" y="381" on="0"/>
        <pt x="217" y="315" on="0"/>
        <pt x="150" y="265" on="0"/>
        <pt x="72" y="223" on="0"/>
        <pt x="47" y="223" on="1"/>
        <pt x="-2" y="223" on="0"/>
        <pt x="-2" y="274" on="1"/>
        <pt x="-2" y="314" on="0"/>
        <pt x="57" y="436" on="0"/>
        <pt x="160" y="567" on="0"/>
        <pt x="284" y="683" on="0"/>
        <pt x="433" y="757" on="0"/>
        <pt x="562" y="757" on="0"/>
        <pt x="562" y="704" on="1"/>
        <pt x="562" y="633" on="0"/>
        <pt x="464" y="447" on="0"/>
        <pt x="325" y="274" on="0"/>
        <pt x="186" y="115" on="0"/>
        <pt x="88" y="-10" on="0"/>
        <pt x="88" y="-35" on="1"/>
        <pt x="88" y="-40" on="0"/>
        <pt x="93" y="-40" on="1"/>
        <pt x="135" y="-40" on="0"/>
        <pt x="437" y="207" on="0"/>
        <pt x="566" y="330" on="1"/>
        <pt x="696" y="453" on="1"/>
        <pt x="779" y="536" on="0"/>
        <pt x="897" y="675" on="0"/>
        <pt x="902" y="680" on="1"/>
        <pt x="915" y="699" on="0"/>
        <pt x="937" y="699" on="0"/>
        <pt x="957" y="692" on="0"/>
        <pt x="957" y="688" on="1"/>
        <pt x="957" y="678" on="0"/>
        <pt x="652" y="301" on="0"/>
        <pt x="644" y="290" on="0"/>
        <pt x="576" y="208" on="0"/>
        <pt x="516" y="131" on="0"/>
        <pt x="483" y="86" on="1"/>
        <pt x="410" y="-14" on="0"/>
        <pt x="410" y="-46" on="1"/>
        <pt x="410" y="-56" on="0"/>
      </contour>
    </TTGlyph>
    <TTGlyph name="Ucircumflex" xMin="-2" yMin="-68" xMax="957" yMax="823">
      <contour>
        <pt x="786" y="772" on="1"/>
        <pt x="693" y="731" on="0"/>
        <pt x="670" y="731" on="0"/>
        <pt x="670" y="736" on="1"/>
        <pt x="670" y="737" on="1"/>
        <pt x="670" y="740" on="0"/>
        <pt x="703" y="756" on="0"/>
        <pt x="734" y="774" on="1"/>
        <pt x="817" y="823" on="0"/>
        <pt x="834" y="823" on="0"/>
        <pt x="838" y="804" on="0"/>
        <pt x="843" y="774" on="0"/>
        <pt x="844" y="768" on="1"/>
        <pt x="847" y="754" on="0"/>
        <pt x="860" y="735" on="1"/>
        <pt x="861" y="733" on="1"/>
        <pt x="861" y="730" on="0"/>
        <pt x="845" y="730" on="0"/>
        <pt x="823" y="766" on="0"/>
        <pt x="817" y="786" on="1"/>
      </contour>
      <contour>
        <pt x="419" y="-56" on="1"/>
        <pt x="466" y="-56" on="0"/>
        <pt x="713" y="110" on="1"/>
        <pt x="780" y="152" on="1"/>
        <pt x="787" y="156" on="0"/>
        <pt x="803" y="156" on="0"/>
        <pt x="803" y="152" on="0"/>
        <pt x="800" y="150" on="1"/>
        <pt x="728" y="106" on="1"/>
        <pt x="713" y="96" on="0"/>
        <pt x="623" y="35" on="0"/>
        <pt x="567" y="-1" on="0"/>
        <pt x="529" y="-24" on="1"/>
        <pt x="454" y="-68" on="0"/>
        <pt x="412" y="-68" on="1"/>
        <pt x="396" y="-66" on="0"/>
        <pt x="396" y="-12" on="0"/>
        <pt x="460" y="110" on="0"/>
        <pt x="549" y="238" on="0"/>
        <pt x="639" y="358" on="0"/>
        <pt x="697" y="435" on="0"/>
        <pt x="695" y="435" on="1"/>
        <pt x="690" y="435" on="0"/>
        <pt x="526" y="282" on="0"/>
        <pt x="328" y="100" on="0"/>
        <pt x="126" y="-53" on="0"/>
        <pt x="88" y="-53" on="1"/>
        <pt x="73" y="-53" on="0"/>
        <pt x="73" y="-37" on="1"/>
        <pt x="73" y="37" on="0"/>
        <pt x="241" y="241" on="1"/>
        <pt x="311" y="326" on="0"/>
        <pt x="451" y="498" on="0"/>
        <pt x="549" y="661" on="0"/>
        <pt x="549" y="711" on="1"/>
        <pt x="549" y="725" on="0"/>
        <pt x="533" y="741" on="0"/>
        <pt x="514" y="745" on="0"/>
        <pt x="496" y="746" on="1"/>
        <pt x="441" y="745" on="0"/>
        <pt x="305" y="662" on="0"/>
        <pt x="185" y="537" on="0"/>
        <pt x="84" y="401" on="0"/>
        <pt x="24" y="283" on="0"/>
        <pt x="24" y="230" on="0"/>
        <pt x="43" y="230" on="1"/>
        <pt x="81" y="230" on="0"/>
        <pt x="218" y="324" on="0"/>
        <pt x="268" y="371" on="1"/>
        <pt x="317" y="418" on="1"/>
        <pt x="323" y="424" on="0"/>
        <pt x="331" y="424" on="0"/>
        <pt x="331" y="419" on="0"/>
        <pt x="325" y="413" on="1"/>
        <pt x="306" y="394" on="1"/>
        <pt x="293" y="381" on="0"/>
        <pt x="217" y="315" on="0"/>
        <pt x="150" y="265" on="0"/>
        <pt x="72" y="223" on="0"/>
        <pt x="47" y="223" on="1"/>
        <pt x="-2" y="223" on="0"/>
        <pt x="-2" y="274" on="1"/>
        <pt x="-2" y="314" on="0"/>
        <pt x="57" y="436" on="0"/>
        <pt x="160" y="567" on="0"/>
        <pt x="284" y="683" on="0"/>
        <pt x="433" y="757" on="0"/>
        <pt x="562" y="757" on="0"/>
        <pt x="562" y="704" on="1"/>
        <pt x="562" y="633" on="0"/>
        <pt x="464" y="447" on="0"/>
        <pt x="325" y="274" on="0"/>
        <pt x="186" y="115" on="0"/>
        <pt x="88" y="-10" on="0"/>
        <pt x="88" y="-35" on="1"/>
        <pt x="88" y="-40" on="0"/>
        <pt x="93" y="-40" on="1"/>
        <pt x="135" y="-40" on="0"/>
        <pt x="437" y="207" on="0"/>
        <pt x="566" y="330" on="1"/>
        <pt x="696" y="453" on="1"/>
        <pt x="779" y="536" on="0"/>
        <pt x="897" y="675" on="0"/>
        <pt x="902" y="680" on="1"/>
        <pt x="915" y="699" on="0"/>
        <pt x="937" y="699" on="0"/>
        <pt x="957" y="692" on="0"/>
        <pt x="957" y="688" on="1"/>
        <pt x="957" y="678" on="0"/>
        <pt x="652" y="301" on="0"/>
        <pt x="644" y="290" on="0"/>
        <pt x="576" y="208" on="0"/>
        <pt x="516" y="131" on="0"/>
        <pt x="483" y="86" on="1"/>
        <pt x="410" y="-14" on="0"/>
        <pt x="410" y="-46" on="1"/>
        <pt x="410" y="-56" on="0"/>
      </contour>
    </TTGlyph>
    <TTGlyph name="Udieresis" xMin="-2" yMin="-68" xMax="957" yMax="822">
      <contour>
        <pt x="699" y="763" on="0"/>
        <pt x="699" y="794" on="0"/>
        <pt x="729" y="822" on="0"/>
        <pt x="750" y="822" on="0"/>
        <pt x="761" y="810" on="0"/>
        <pt x="761" y="794" on="0"/>
        <pt x="733" y="763" on="0"/>
      </contour>
      <contour>
        <pt x="779" y="763" on="0"/>
        <pt x="779" y="794" on="0"/>
        <pt x="809" y="822" on="0"/>
        <pt x="830" y="822" on="0"/>
        <pt x="841" y="810" on="0"/>
        <pt x="841" y="794" on="0"/>
        <pt x="813" y="763" on="0"/>
      </contour>
      <contour>
        <pt x="419" y="-56" on="1"/>
        <pt x="410" y="-56" on="0"/>
        <pt x="410" y="-30" on="0"/>
        <pt x="450" y="41" on="0"/>
        <pt x="516" y="131" on="0"/>
        <pt x="576" y="208" on="0"/>
        <pt x="644" y="290" on="0"/>
        <pt x="652" y="301" on="0"/>
        <pt x="736" y="406" on="1"/>
        <pt x="957" y="678" on="0"/>
        <pt x="957" y="688" on="1"/>
        <pt x="957" y="692" on="0"/>
        <pt x="937" y="699" on="0"/>
        <pt x="915" y="699" on="0"/>
        <pt x="902" y="680" on="1"/>
        <pt x="897" y="675" on="0"/>
        <pt x="869" y="642" on="1"/>
        <pt x="779" y="536" on="0"/>
        <pt x="685" y="443" on="0"/>
        <pt x="648" y="407" on="0"/>
        <pt x="539" y="305" on="0"/>
        <pt x="437" y="212" on="0"/>
        <pt x="305" y="98" on="0"/>
        <pt x="254" y="57" on="1"/>
        <pt x="132" y="-40" on="0"/>
        <pt x="93" y="-40" on="1"/>
        <pt x="88" y="-40" on="0"/>
        <pt x="88" y="-35" on="1"/>
        <pt x="88" y="-10" on="0"/>
        <pt x="186" y="115" on="0"/>
        <pt x="325" y="274" on="0"/>
        <pt x="464" y="447" on="0"/>
        <pt x="562" y="633" on="0"/>
        <pt x="562" y="704" on="1"/>
        <pt x="562" y="757" on="0"/>
        <pt x="433" y="757" on="0"/>
        <pt x="284" y="683" on="0"/>
        <pt x="160" y="567" on="0"/>
        <pt x="57" y="436" on="0"/>
        <pt x="-2" y="314" on="0"/>
        <pt x="-2" y="274" on="1"/>
        <pt x="-2" y="223" on="0"/>
        <pt x="47" y="223" on="1"/>
        <pt x="87" y="223" on="0"/>
        <pt x="227" y="319" on="0"/>
        <pt x="277" y="367" on="1"/>
        <pt x="327" y="415" on="1"/>
        <pt x="331" y="419" on="0"/>
        <pt x="331" y="424" on="0"/>
        <pt x="323" y="424" on="0"/>
        <pt x="309" y="410" on="0"/>
        <pt x="283" y="385" on="0"/>
        <pt x="209" y="320" on="0"/>
        <pt x="176" y="296" on="1"/>
        <pt x="88" y="230" on="0"/>
        <pt x="43" y="230" on="1"/>
        <pt x="24" y="230" on="0"/>
        <pt x="24" y="283" on="0"/>
        <pt x="84" y="401" on="0"/>
        <pt x="185" y="537" on="0"/>
        <pt x="305" y="662" on="0"/>
        <pt x="441" y="745" on="0"/>
        <pt x="496" y="746" on="1"/>
        <pt x="514" y="745" on="0"/>
        <pt x="533" y="741" on="0"/>
        <pt x="549" y="725" on="0"/>
        <pt x="549" y="711" on="1"/>
        <pt x="549" y="661" on="0"/>
        <pt x="451" y="498" on="0"/>
        <pt x="311" y="326" on="0"/>
        <pt x="241" y="241" on="1"/>
        <pt x="73" y="37" on="0"/>
        <pt x="73" y="-37" on="1"/>
        <pt x="73" y="-53" on="0"/>
        <pt x="88" y="-53" on="1"/>
        <pt x="126" y="-53" on="0"/>
        <pt x="328" y="100" on="0"/>
        <pt x="526" y="282" on="0"/>
        <pt x="690" y="435" on="0"/>
        <pt x="695" y="435" on="1"/>
        <pt x="697" y="435" on="0"/>
        <pt x="639" y="358" on="0"/>
        <pt x="549" y="238" on="0"/>
        <pt x="460" y="110" on="0"/>
        <pt x="396" y="-12" on="0"/>
        <pt x="396" y="-66" on="0"/>
        <pt x="412" y="-68" on="1"/>
        <pt x="454" y="-68" on="0"/>
        <pt x="529" y="-24" on="1"/>
        <pt x="590" y="13" on="0"/>
        <pt x="651" y="54" on="1"/>
        <pt x="732" y="109" on="0"/>
        <pt x="803" y="152" on="0"/>
        <pt x="803" y="156" on="0"/>
        <pt x="787" y="156" on="0"/>
        <pt x="780" y="152" on="1"/>
        <pt x="713" y="110" on="1"/>
        <pt x="466" y="-56" on="0"/>
      </contour>
    </TTGlyph>
    <TTGlyph name="Ugrave" xMin="-2" yMin="-68" xMax="957" yMax="831">
      <contour>
        <pt x="680" y="820" on="1"/>
        <pt x="680" y="831" on="0"/>
        <pt x="704" y="831" on="0"/>
        <pt x="709" y="826" on="1"/>
        <pt x="797" y="756" on="0"/>
        <pt x="810" y="749" on="0"/>
        <pt x="810" y="745" on="0"/>
        <pt x="795" y="745" on="0"/>
        <pt x="680" y="804" on="0"/>
      </contour>
      <contour>
        <pt x="419" y="-56" on="1"/>
        <pt x="410" y="-56" on="0"/>
        <pt x="410" y="-30" on="0"/>
        <pt x="450" y="41" on="0"/>
        <pt x="516" y="131" on="0"/>
        <pt x="576" y="208" on="0"/>
        <pt x="644" y="290" on="0"/>
        <pt x="652" y="301" on="0"/>
        <pt x="736" y="406" on="1"/>
        <pt x="957" y="678" on="0"/>
        <pt x="957" y="688" on="1"/>
        <pt x="957" y="692" on="0"/>
        <pt x="937" y="699" on="0"/>
        <pt x="915" y="699" on="0"/>
        <pt x="902" y="680" on="1"/>
        <pt x="897" y="675" on="0"/>
        <pt x="869" y="642" on="1"/>
        <pt x="779" y="536" on="0"/>
        <pt x="685" y="443" on="0"/>
        <pt x="648" y="407" on="0"/>
        <pt x="539" y="305" on="0"/>
        <pt x="437" y="212" on="0"/>
        <pt x="305" y="98" on="0"/>
        <pt x="254" y="57" on="1"/>
        <pt x="132" y="-40" on="0"/>
        <pt x="93" y="-40" on="1"/>
        <pt x="88" y="-40" on="0"/>
        <pt x="88" y="-35" on="1"/>
        <pt x="88" y="-10" on="0"/>
        <pt x="186" y="115" on="0"/>
        <pt x="325" y="274" on="0"/>
        <pt x="464" y="447" on="0"/>
        <pt x="562" y="633" on="0"/>
        <pt x="562" y="704" on="1"/>
        <pt x="562" y="757" on="0"/>
        <pt x="433" y="757" on="0"/>
        <pt x="284" y="683" on="0"/>
        <pt x="160" y="567" on="0"/>
        <pt x="57" y="436" on="0"/>
        <pt x="-2" y="314" on="0"/>
        <pt x="-2" y="274" on="1"/>
        <pt x="-2" y="223" on="0"/>
        <pt x="47" y="223" on="1"/>
        <pt x="87" y="223" on="0"/>
        <pt x="227" y="319" on="0"/>
        <pt x="277" y="367" on="1"/>
        <pt x="327" y="415" on="1"/>
        <pt x="331" y="419" on="0"/>
        <pt x="331" y="424" on="0"/>
        <pt x="323" y="424" on="0"/>
        <pt x="309" y="410" on="0"/>
        <pt x="283" y="385" on="0"/>
        <pt x="209" y="320" on="0"/>
        <pt x="176" y="296" on="1"/>
        <pt x="88" y="230" on="0"/>
        <pt x="43" y="230" on="1"/>
        <pt x="24" y="230" on="0"/>
        <pt x="24" y="283" on="0"/>
        <pt x="84" y="401" on="0"/>
        <pt x="185" y="537" on="0"/>
        <pt x="305" y="662" on="0"/>
        <pt x="441" y="745" on="0"/>
        <pt x="496" y="746" on="1"/>
        <pt x="514" y="745" on="0"/>
        <pt x="533" y="741" on="0"/>
        <pt x="549" y="725" on="0"/>
        <pt x="549" y="711" on="1"/>
        <pt x="549" y="661" on="0"/>
        <pt x="451" y="498" on="0"/>
        <pt x="311" y="326" on="0"/>
        <pt x="241" y="241" on="1"/>
        <pt x="73" y="37" on="0"/>
        <pt x="73" y="-37" on="1"/>
        <pt x="73" y="-53" on="0"/>
        <pt x="88" y="-53" on="1"/>
        <pt x="126" y="-53" on="0"/>
        <pt x="328" y="100" on="0"/>
        <pt x="526" y="282" on="0"/>
        <pt x="690" y="435" on="0"/>
        <pt x="695" y="435" on="1"/>
        <pt x="697" y="435" on="0"/>
        <pt x="639" y="358" on="0"/>
        <pt x="549" y="238" on="0"/>
        <pt x="460" y="110" on="0"/>
        <pt x="396" y="-12" on="0"/>
        <pt x="396" y="-66" on="0"/>
        <pt x="412" y="-68" on="1"/>
        <pt x="454" y="-68" on="0"/>
        <pt x="529" y="-24" on="1"/>
        <pt x="590" y="13" on="0"/>
        <pt x="651" y="54" on="1"/>
        <pt x="732" y="109" on="0"/>
        <pt x="803" y="152" on="0"/>
        <pt x="803" y="156" on="0"/>
        <pt x="787" y="156" on="0"/>
        <pt x="780" y="152" on="1"/>
        <pt x="713" y="110" on="1"/>
        <pt x="466" y="-56" on="0"/>
      </contour>
    </TTGlyph>
    <TTGlyph name="V" xMin="0" yMin="-70" xMax="1162" yMax="776">
      <contour>
        <pt x="329" y="404" on="1"/>
        <pt x="286" y="343" on="0"/>
        <pt x="95" y="207" on="0"/>
        <pt x="32" y="207" on="1"/>
        <pt x="15" y="207" on="0"/>
        <pt x="0" y="226" on="0"/>
        <pt x="0" y="248" on="1"/>
        <pt x="0" y="303" on="0"/>
        <pt x="87" y="470" on="0"/>
        <pt x="221" y="630" on="0"/>
        <pt x="410" y="745" on="0"/>
        <pt x="499" y="745" on="1"/>
        <pt x="560" y="745" on="0"/>
        <pt x="560" y="670" on="1"/>
        <pt x="560" y="620" on="0"/>
        <pt x="456" y="418" on="0"/>
        <pt x="330" y="233" on="0"/>
        <pt x="226" y="82" on="0"/>
        <pt x="226" y="78" on="1"/>
        <pt x="250" y="106" on="0"/>
        <pt x="431" y="288" on="0"/>
        <pt x="572" y="420" on="0"/>
        <pt x="761" y="581" on="0"/>
        <pt x="923" y="697" on="0"/>
        <pt x="1087" y="776" on="0"/>
        <pt x="1143" y="776" on="1"/>
        <pt x="1162" y="776" on="0"/>
        <pt x="1162" y="768" on="1"/>
        <pt x="1162" y="758" on="0"/>
        <pt x="1051" y="687" on="0"/>
        <pt x="1043" y="687" on="0"/>
        <pt x="1043" y="693" on="0"/>
        <pt x="1058" y="709" on="0"/>
        <pt x="1058" y="713" on="0"/>
        <pt x="1055" y="713" on="1"/>
        <pt x="994" y="713" on="0"/>
        <pt x="658" y="477" on="0"/>
        <pt x="265" y="117" on="0"/>
        <pt x="132" y="-44" on="1"/>
        <pt x="111" y="-70" on="0"/>
        <pt x="65" y="-70" on="1"/>
        <pt x="57" y="-70" on="0"/>
        <pt x="57" y="-64" on="0"/>
        <pt x="81" y="-42" on="0"/>
        <pt x="191" y="102" on="0"/>
        <pt x="224" y="155" on="0"/>
        <pt x="346" y="333" on="0"/>
        <pt x="433" y="467" on="0"/>
        <pt x="526" y="647" on="0"/>
        <pt x="536" y="703" on="1"/>
        <pt x="534" y="737" on="0"/>
        <pt x="497" y="737" on="1"/>
        <pt x="443" y="737" on="0"/>
        <pt x="274" y="627" on="0"/>
        <pt x="122" y="475" on="0"/>
        <pt x="12" y="302" on="0"/>
        <pt x="12" y="246" on="1"/>
        <pt x="12" y="217" on="0"/>
        <pt x="37" y="217" on="1"/>
        <pt x="96" y="217" on="0"/>
        <pt x="251" y="330" on="0"/>
        <pt x="321" y="412" on="1"/>
        <pt x="326" y="418" on="0"/>
        <pt x="334" y="418" on="0"/>
        <pt x="334" y="410" on="0"/>
      </contour>
    </TTGlyph>
    <TTGlyph name="W" xMin="0" yMin="-84" xMax="1316" yMax="767">
      <contour>
        <pt x="350" y="-62" on="1"/>
        <pt x="648" y="457" on="1"/>
        <pt x="648" y="460" on="0"/>
        <pt x="645" y="460" on="1"/>
        <pt x="358" y="196" on="0"/>
        <pt x="254" y="74" on="1"/>
        <pt x="240" y="58" on="0"/>
        <pt x="129" y="-52" on="0"/>
        <pt x="106" y="-70" on="0"/>
        <pt x="77" y="-75" on="1"/>
        <pt x="71" y="-75" on="0"/>
        <pt x="71" y="-61" on="0"/>
        <pt x="230" y="130" on="0"/>
        <pt x="420" y="363" on="0"/>
        <pt x="579" y="627" on="0"/>
        <pt x="579" y="699" on="1"/>
        <pt x="579" y="741" on="0"/>
        <pt x="536" y="741" on="1"/>
        <pt x="463" y="741" on="0"/>
        <pt x="276" y="623" on="0"/>
        <pt x="127" y="465" on="0"/>
        <pt x="23" y="302" on="0"/>
        <pt x="23" y="257" on="1"/>
        <pt x="23" y="229" on="0"/>
        <pt x="89" y="229" on="0"/>
        <pt x="176" y="273" on="0"/>
        <pt x="215" y="305" on="1"/>
        <pt x="294" y="370" on="0"/>
        <pt x="344" y="423" on="1"/>
        <pt x="364" y="445" on="1"/>
        <pt x="368" y="448" on="0"/>
        <pt x="374" y="448" on="0"/>
        <pt x="374" y="442" on="1"/>
        <pt x="249" y="301" on="0"/>
        <pt x="130" y="240" on="1"/>
        <pt x="82" y="216" on="0"/>
        <pt x="45" y="216" on="1"/>
        <pt x="0" y="216" on="0"/>
        <pt x="0" y="266" on="1"/>
        <pt x="0" y="306" on="0"/>
        <pt x="57" y="428" on="0"/>
        <pt x="162" y="559" on="0"/>
        <pt x="291" y="674" on="0"/>
        <pt x="454" y="749" on="0"/>
        <pt x="532" y="749" on="1"/>
        <pt x="601" y="749" on="0"/>
        <pt x="601" y="681" on="1"/>
        <pt x="601" y="633" on="0"/>
        <pt x="535" y="483" on="0"/>
        <pt x="488" y="410" on="1"/>
        <pt x="395" y="265" on="0"/>
        <pt x="315" y="166" on="1"/>
        <pt x="282" y="126" on="1"/>
        <pt x="732" y="564" on="1"/>
        <pt x="759" y="589" on="0"/>
        <pt x="762" y="589" on="1"/>
        <pt x="769" y="589" on="0"/>
        <pt x="769" y="572" on="0"/>
        <pt x="750" y="552" on="1"/>
        <pt x="586" y="292" on="0"/>
        <pt x="468" y="79" on="1"/>
        <pt x="465" y="68" on="1"/>
        <pt x="540" y="157" on="0"/>
        <pt x="842" y="451" on="0"/>
        <pt x="1050" y="635" on="0"/>
        <pt x="1250" y="767" on="0"/>
        <pt x="1301" y="767" on="1"/>
        <pt x="1316" y="767" on="0"/>
        <pt x="1316" y="751" on="1"/>
        <pt x="1316" y="747" on="0"/>
        <pt x="1303" y="739" on="0"/>
        <pt x="1269" y="714" on="1"/>
        <pt x="1170" y="644" on="0"/>
        <pt x="1169" y="645" on="1"/>
        <pt x="1166" y="645" on="0"/>
        <pt x="1166" y="647" on="1"/>
        <pt x="1168" y="653" on="1"/>
        <pt x="1168" y="657" on="0"/>
        <pt x="1163" y="657" on="1"/>
        <pt x="1124" y="657" on="0"/>
        <pt x="897" y="479" on="0"/>
        <pt x="646" y="237" on="0"/>
        <pt x="415" y="-7" on="0"/>
        <pt x="366" y="-73" on="1"/>
        <pt x="357" y="-84" on="0"/>
        <pt x="343" y="-84" on="0"/>
        <pt x="343" y="-75" on="0"/>
      </contour>
    </TTGlyph>
    <TTGlyph name="X" xMin="-6" yMin="-92" xMax="941" yMax="773">
      <contour>
        <pt x="941" y="701" on="1"/>
        <pt x="941" y="695" on="0"/>
        <pt x="917" y="668" on="0"/>
        <pt x="869" y="615" on="0"/>
        <pt x="801" y="548" on="0"/>
        <pt x="759" y="506" on="0"/>
        <pt x="669" y="421" on="0"/>
        <pt x="641" y="395" on="0"/>
        <pt x="536" y="298" on="0"/>
        <pt x="531" y="293" on="1"/>
        <pt x="523" y="175" on="0"/>
        <pt x="523" y="88" on="1"/>
        <pt x="523" y="-13" on="0"/>
        <pt x="589" y="-13" on="1"/>
        <pt x="666" y="-13" on="0"/>
        <pt x="830" y="110" on="1"/>
        <pt x="897" y="152" on="1"/>
        <pt x="904" y="156" on="0"/>
        <pt x="920" y="156" on="0"/>
        <pt x="920" y="152" on="0"/>
        <pt x="917" y="150" on="1"/>
        <pt x="845" y="106" on="1"/>
        <pt x="776" y="57" on="0"/>
        <pt x="698" y="5" on="0"/>
        <pt x="603" y="-41" on="0"/>
        <pt x="572" y="-41" on="1"/>
        <pt x="482" y="-41" on="0"/>
        <pt x="482" y="146" on="1"/>
        <pt x="482" y="178" on="0"/>
        <pt x="484" y="250" on="1"/>
        <pt x="353" y="128" on="0"/>
        <pt x="240" y="32" on="1"/>
        <pt x="92" y="-92" on="0"/>
        <pt x="72" y="-92" on="1"/>
        <pt x="69" y="-92" on="0"/>
        <pt x="69" y="-90" on="1"/>
        <pt x="69" y="-79" on="0"/>
        <pt x="83" y="-71" on="1"/>
        <pt x="84" y="-70" on="0"/>
        <pt x="99" y="-60" on="1"/>
        <pt x="143" y="-29" on="0"/>
        <pt x="183" y="4" on="1"/>
        <pt x="337" y="129" on="0"/>
        <pt x="485" y="269" on="1"/>
        <pt x="487" y="302" on="0"/>
        <pt x="491" y="366" on="1"/>
        <pt x="499" y="494" on="0"/>
        <pt x="499" y="566" on="1"/>
        <pt x="499" y="753" on="0"/>
        <pt x="410" y="753" on="1"/>
        <pt x="361" y="753" on="0"/>
        <pt x="221" y="636" on="0"/>
        <pt x="103" y="480" on="0"/>
        <pt x="19" y="317" on="0"/>
        <pt x="19" y="273" on="1"/>
        <pt x="19" y="239" on="0"/>
        <pt x="51" y="239" on="1"/>
        <pt x="109" y="239" on="0"/>
        <pt x="321" y="423" on="0"/>
        <pt x="378" y="519" on="1"/>
        <pt x="384" y="529" on="0"/>
        <pt x="392" y="529" on="0"/>
        <pt x="392" y="515" on="0"/>
        <pt x="389" y="509" on="1"/>
        <pt x="348" y="450" on="0"/>
        <pt x="258" y="356" on="1"/>
        <pt x="208" y="303" on="0"/>
        <pt x="93" y="229" on="0"/>
        <pt x="49" y="229" on="1"/>
        <pt x="-6" y="229" on="0"/>
        <pt x="-6" y="288" on="1"/>
        <pt x="-6" y="371" on="0"/>
        <pt x="130" y="602" on="0"/>
        <pt x="326" y="773" on="0"/>
        <pt x="403" y="773" on="1"/>
        <pt x="538" y="773" on="0"/>
        <pt x="538" y="502" on="1"/>
        <pt x="538" y="440" on="0"/>
        <pt x="532" y="314" on="1"/>
        <pt x="695" y="472" on="0"/>
        <pt x="902" y="704" on="1"/>
        <pt x="912" y="715" on="0"/>
        <pt x="941" y="715" on="0"/>
      </contour>
    </TTGlyph>
    <TTGlyph name="Y" xMin="-151" yMin="-497" xMax="978" yMax="765">
      <contour>
        <pt x="-110" y="-466" on="1"/>
        <pt x="-40" y="-465" on="0"/>
        <pt x="342" y="11" on="1"/>
        <pt x="148" y="-124" on="0"/>
        <pt x="-112" y="-378" on="0"/>
        <pt x="-112" y="-463" on="1"/>
        <pt x="-112" y="-466" on="0"/>
      </contour>
      <contour>
        <pt x="33" y="405" on="1"/>
        <pt x="27" y="396" on="1"/>
        <pt x="27" y="392" on="0"/>
        <pt x="34" y="392" on="1"/>
        <pt x="87" y="392" on="0"/>
        <pt x="209" y="424" on="0"/>
        <pt x="258" y="446" on="1"/>
        <pt x="360" y="493" on="0"/>
        <pt x="412" y="530" on="1"/>
        <pt x="434" y="546" on="1"/>
        <pt x="446" y="558" on="1"/>
        <pt x="458" y="571" on="0"/>
        <pt x="492" y="607" on="0"/>
        <pt x="536" y="652" on="0"/>
        <pt x="556" y="672" on="1"/>
        <pt x="590" y="708" on="0"/>
        <pt x="656" y="765" on="0"/>
        <pt x="673" y="765" on="1"/>
        <pt x="679" y="765" on="0"/>
        <pt x="690" y="757" on="0"/>
        <pt x="690" y="742" on="0"/>
        <pt x="613" y="663" on="0"/>
        <pt x="506" y="560" on="0"/>
        <pt x="440" y="486" on="0"/>
        <pt x="341" y="348" on="0"/>
        <pt x="341" y="315" on="1"/>
        <pt x="341" y="308" on="0"/>
        <pt x="351" y="308" on="1"/>
        <pt x="451" y="308" on="0"/>
        <pt x="728" y="520" on="1"/>
        <pt x="812" y="632" on="0"/>
        <pt x="876" y="702" on="0"/>
        <pt x="927" y="746" on="0"/>
        <pt x="954" y="760" on="0"/>
        <pt x="968" y="760" on="0"/>
        <pt x="978" y="750" on="0"/>
        <pt x="978" y="742" on="0"/>
        <pt x="971" y="732" on="1"/>
        <pt x="948" y="696" on="0"/>
        <pt x="894" y="652" on="1"/>
        <pt x="886" y="644" on="0"/>
        <pt x="700" y="409" on="0"/>
        <pt x="681" y="385" on="1"/>
        <pt x="601" y="276" on="0"/>
        <pt x="467" y="109" on="1"/>
        <pt x="694" y="253" on="0"/>
        <pt x="710" y="253" on="1"/>
        <pt x="715" y="253" on="0"/>
        <pt x="715" y="243" on="0"/>
        <pt x="707" y="238" on="1"/>
        <pt x="610" y="189" on="0"/>
        <pt x="445" y="81" on="1"/>
        <pt x="323" y="-69" on="0"/>
        <pt x="112" y="-308" on="0"/>
        <pt x="-94" y="-497" on="0"/>
        <pt x="-136" y="-497" on="1"/>
        <pt x="-141" y="-497" on="0"/>
        <pt x="-151" y="-484" on="0"/>
        <pt x="-151" y="-479" on="1"/>
        <pt x="-151" y="-428" on="0"/>
        <pt x="-59" y="-293" on="0"/>
        <pt x="20" y="-222" on="1"/>
        <pt x="164" y="-92" on="0"/>
        <pt x="369" y="45" on="1"/>
        <pt x="557" y="282" on="0"/>
        <pt x="693" y="471" on="1"/>
        <pt x="430" y="293" on="0"/>
        <pt x="346" y="293" on="1"/>
        <pt x="320" y="293" on="0"/>
        <pt x="320" y="319" on="1"/>
        <pt x="320" y="365" on="0"/>
        <pt x="384" y="470" on="1"/>
        <pt x="406" y="505" on="1"/>
        <pt x="406" y="507" on="0"/>
        <pt x="403" y="507" on="1"/>
        <pt x="376" y="490" on="1"/>
        <pt x="358" y="480" on="0"/>
        <pt x="254" y="428" on="0"/>
        <pt x="155" y="389" on="0"/>
        <pt x="25" y="356" on="0"/>
        <pt x="-27" y="356" on="1"/>
        <pt x="-45" y="356" on="0"/>
        <pt x="-45" y="367" on="1"/>
        <pt x="-45" y="384" on="0"/>
        <pt x="13" y="410" on="0"/>
        <pt x="33" y="410" on="0"/>
      </contour>
    </TTGlyph>
    <TTGlyph name="Yacute" xMin="-151" yMin="-497" xMax="978" yMax="858">
      <contour>
        <pt x="930" y="858" on="0"/>
        <pt x="930" y="830" on="0"/>
        <pt x="792" y="784" on="0"/>
        <pt x="778" y="784" on="0"/>
        <pt x="778" y="786" on="1"/>
        <pt x="778" y="790" on="0"/>
        <pt x="792" y="795" on="0"/>
        <pt x="823" y="812" on="0"/>
        <pt x="873" y="841" on="0"/>
        <pt x="897" y="853" on="1"/>
        <pt x="910" y="858" on="0"/>
        <pt x="918" y="858" on="1"/>
      </contour>
      <contour>
        <pt x="-110" y="-466" on="1"/>
        <pt x="-40" y="-465" on="0"/>
        <pt x="342" y="11" on="1"/>
        <pt x="148" y="-124" on="0"/>
        <pt x="-112" y="-378" on="0"/>
        <pt x="-112" y="-463" on="1"/>
        <pt x="-112" y="-466" on="0"/>
      </contour>
      <contour>
        <pt x="33" y="405" on="1"/>
        <pt x="27" y="396" on="1"/>
        <pt x="27" y="392" on="0"/>
        <pt x="34" y="392" on="1"/>
        <pt x="87" y="392" on="0"/>
        <pt x="209" y="424" on="0"/>
        <pt x="258" y="446" on="1"/>
        <pt x="360" y="493" on="0"/>
        <pt x="412" y="530" on="1"/>
        <pt x="434" y="546" on="1"/>
        <pt x="446" y="558" on="1"/>
        <pt x="458" y="571" on="0"/>
        <pt x="492" y="607" on="0"/>
        <pt x="536" y="652" on="0"/>
        <pt x="556" y="672" on="1"/>
        <pt x="590" y="708" on="0"/>
        <pt x="656" y="765" on="0"/>
        <pt x="673" y="765" on="1"/>
        <pt x="679" y="765" on="0"/>
        <pt x="690" y="757" on="0"/>
        <pt x="690" y="742" on="0"/>
        <pt x="613" y="663" on="0"/>
        <pt x="506" y="560" on="0"/>
        <pt x="440" y="486" on="0"/>
        <pt x="341" y="348" on="0"/>
        <pt x="341" y="315" on="1"/>
        <pt x="341" y="308" on="0"/>
        <pt x="351" y="308" on="1"/>
        <pt x="451" y="308" on="0"/>
        <pt x="728" y="520" on="1"/>
        <pt x="812" y="632" on="0"/>
        <pt x="876" y="702" on="0"/>
        <pt x="927" y="746" on="0"/>
        <pt x="954" y="760" on="0"/>
        <pt x="968" y="760" on="0"/>
        <pt x="978" y="750" on="0"/>
        <pt x="978" y="742" on="0"/>
        <pt x="971" y="732" on="1"/>
        <pt x="948" y="696" on="0"/>
        <pt x="894" y="652" on="1"/>
        <pt x="886" y="644" on="0"/>
        <pt x="700" y="409" on="0"/>
        <pt x="681" y="385" on="1"/>
        <pt x="601" y="276" on="0"/>
        <pt x="467" y="109" on="1"/>
        <pt x="694" y="253" on="0"/>
        <pt x="710" y="253" on="1"/>
        <pt x="715" y="253" on="0"/>
        <pt x="715" y="243" on="0"/>
        <pt x="707" y="238" on="1"/>
        <pt x="610" y="189" on="0"/>
        <pt x="445" y="81" on="1"/>
        <pt x="323" y="-69" on="0"/>
        <pt x="112" y="-308" on="0"/>
        <pt x="-94" y="-497" on="0"/>
        <pt x="-136" y="-497" on="1"/>
        <pt x="-141" y="-497" on="0"/>
        <pt x="-151" y="-484" on="0"/>
        <pt x="-151" y="-479" on="1"/>
        <pt x="-151" y="-428" on="0"/>
        <pt x="-59" y="-293" on="0"/>
        <pt x="20" y="-222" on="1"/>
        <pt x="164" y="-92" on="0"/>
        <pt x="369" y="45" on="1"/>
        <pt x="557" y="282" on="0"/>
        <pt x="693" y="471" on="1"/>
        <pt x="430" y="293" on="0"/>
        <pt x="346" y="293" on="1"/>
        <pt x="320" y="293" on="0"/>
        <pt x="320" y="319" on="1"/>
        <pt x="320" y="365" on="0"/>
        <pt x="384" y="470" on="1"/>
        <pt x="406" y="505" on="1"/>
        <pt x="406" y="507" on="0"/>
        <pt x="403" y="507" on="1"/>
        <pt x="376" y="490" on="1"/>
        <pt x="358" y="480" on="0"/>
        <pt x="254" y="428" on="0"/>
        <pt x="155" y="389" on="0"/>
        <pt x="25" y="356" on="0"/>
        <pt x="-27" y="356" on="1"/>
        <pt x="-45" y="356" on="0"/>
        <pt x="-45" y="367" on="1"/>
        <pt x="-45" y="384" on="0"/>
        <pt x="13" y="410" on="0"/>
        <pt x="33" y="410" on="0"/>
      </contour>
    </TTGlyph>
    <TTGlyph name="Ydieresis" xMin="1" yMin="-497" xMax="1130" yMax="848">
      <contour>
        <pt x="988" y="789" on="0"/>
        <pt x="988" y="820" on="0"/>
        <pt x="1018" y="848" on="0"/>
        <pt x="1039" y="848" on="0"/>
        <pt x="1050" y="836" on="0"/>
        <pt x="1050" y="820" on="0"/>
        <pt x="1022" y="789" on="0"/>
      </contour>
      <contour>
        <pt x="908" y="789" on="0"/>
        <pt x="908" y="820" on="0"/>
        <pt x="938" y="848" on="0"/>
        <pt x="959" y="848" on="0"/>
        <pt x="970" y="836" on="0"/>
        <pt x="970" y="820" on="0"/>
        <pt x="942" y="789" on="0"/>
      </contour>
      <contour>
        <pt x="42" y="-466" on="1"/>
        <pt x="40" y="-466" on="0"/>
        <pt x="40" y="-463" on="1"/>
        <pt x="40" y="-378" on="0"/>
        <pt x="300" y="-124" on="0"/>
        <pt x="494" y="11" on="1"/>
        <pt x="112" y="-465" on="0"/>
      </contour>
      <contour>
        <pt x="179" y="396" on="1"/>
        <pt x="185" y="405" on="1"/>
        <pt x="185" y="410" on="0"/>
        <pt x="165" y="410" on="0"/>
        <pt x="107" y="384" on="0"/>
        <pt x="107" y="367" on="1"/>
        <pt x="107" y="356" on="0"/>
        <pt x="125" y="356" on="1"/>
        <pt x="208" y="356" on="0"/>
        <pt x="423" y="432" on="0"/>
        <pt x="489" y="470" on="1"/>
        <pt x="555" y="507" on="1"/>
        <pt x="558" y="507" on="0"/>
        <pt x="558" y="505" on="1"/>
        <pt x="536" y="470" on="1"/>
        <pt x="472" y="365" on="0"/>
        <pt x="472" y="320" on="1"/>
        <pt x="472" y="293" on="0"/>
        <pt x="498" y="293" on="1"/>
        <pt x="582" y="293" on="0"/>
        <pt x="845" y="471" on="1"/>
        <pt x="709" y="282" on="0"/>
        <pt x="521" y="45" on="1"/>
        <pt x="316" y="-92" on="0"/>
        <pt x="172" y="-222" on="1"/>
        <pt x="93" y="-293" on="0"/>
        <pt x="1" y="-428" on="0"/>
        <pt x="1" y="-479" on="1"/>
        <pt x="1" y="-484" on="0"/>
        <pt x="11" y="-497" on="0"/>
        <pt x="16" y="-497" on="1"/>
        <pt x="58" y="-497" on="0"/>
        <pt x="264" y="-308" on="0"/>
        <pt x="475" y="-69" on="0"/>
        <pt x="597" y="81" on="1"/>
        <pt x="762" y="189" on="0"/>
        <pt x="859" y="238" on="1"/>
        <pt x="867" y="243" on="0"/>
        <pt x="867" y="253" on="0"/>
        <pt x="863" y="253" on="1"/>
        <pt x="846" y="253" on="0"/>
        <pt x="619" y="109" on="1"/>
        <pt x="753" y="276" on="0"/>
        <pt x="833" y="385" on="1"/>
        <pt x="852" y="409" on="0"/>
        <pt x="1038" y="644" on="0"/>
        <pt x="1046" y="652" on="1"/>
        <pt x="1100" y="696" on="0"/>
        <pt x="1123" y="732" on="1"/>
        <pt x="1130" y="742" on="0"/>
        <pt x="1130" y="750" on="0"/>
        <pt x="1120" y="760" on="0"/>
        <pt x="1106" y="760" on="0"/>
        <pt x="1092" y="753" on="1"/>
        <pt x="1040" y="726" on="0"/>
        <pt x="954" y="616" on="1"/>
        <pt x="924" y="578" on="0"/>
        <pt x="902" y="549" on="1"/>
        <pt x="880" y="520" on="1"/>
        <pt x="603" y="308" on="0"/>
        <pt x="503" y="308" on="1"/>
        <pt x="493" y="308" on="0"/>
        <pt x="493" y="315" on="1"/>
        <pt x="493" y="348" on="0"/>
        <pt x="592" y="486" on="0"/>
        <pt x="658" y="560" on="0"/>
        <pt x="712" y="612" on="1"/>
        <pt x="842" y="737" on="0"/>
        <pt x="842" y="752" on="1"/>
        <pt x="842" y="757" on="0"/>
        <pt x="831" y="765" on="0"/>
        <pt x="825" y="765" on="1"/>
        <pt x="808" y="765" on="0"/>
        <pt x="766" y="729" on="0"/>
        <pt x="728" y="693" on="0"/>
        <pt x="688" y="652" on="0"/>
        <pt x="644" y="607" on="0"/>
        <pt x="610" y="571" on="0"/>
        <pt x="598" y="558" on="1"/>
        <pt x="586" y="546" on="1"/>
        <pt x="577" y="540" on="0"/>
        <pt x="547" y="519" on="0"/>
        <pt x="454" y="466" on="0"/>
        <pt x="363" y="425" on="0"/>
        <pt x="239" y="392" on="0"/>
        <pt x="186" y="392" on="1"/>
        <pt x="179" y="392" on="0"/>
      </contour>
    </TTGlyph>
    <TTGlyph name="Z" xMin="0" yMin="-123" xMax="876" yMax="694">
      <contour>
        <pt x="56" y="-102" on="1"/>
        <pt x="61" y="-102" on="0"/>
        <pt x="147" y="-18" on="1"/>
        <pt x="80" y="21" on="0"/>
        <pt x="35" y="108" on="1"/>
        <pt x="24" y="108" on="0"/>
        <pt x="24" y="42" on="1"/>
        <pt x="24" y="-102" on="0"/>
      </contour>
      <contour>
        <pt x="46" y="176" on="1"/>
        <pt x="51" y="187" on="0"/>
        <pt x="62" y="187" on="0"/>
        <pt x="62" y="151" on="0"/>
        <pt x="117" y="43" on="0"/>
        <pt x="173" y="7" on="1"/>
        <pt x="334" y="166" on="0"/>
        <pt x="764" y="607" on="0"/>
        <pt x="764" y="616" on="1"/>
        <pt x="764" y="617" on="0"/>
        <pt x="763" y="617" on="1"/>
        <pt x="690" y="576" on="0"/>
        <pt x="607" y="576" on="0"/>
        <pt x="547" y="606" on="0"/>
        <pt x="530" y="624" on="1"/>
        <pt x="471" y="668" on="0"/>
        <pt x="440" y="673" on="1"/>
        <pt x="396" y="673" on="0"/>
        <pt x="313" y="621" on="0"/>
        <pt x="260" y="549" on="0"/>
        <pt x="228" y="479" on="0"/>
        <pt x="228" y="444" on="0"/>
        <pt x="238" y="444" on="1"/>
        <pt x="260" y="444" on="0"/>
        <pt x="375" y="543" on="0"/>
        <pt x="398" y="596" on="1"/>
        <pt x="402" y="606" on="0"/>
        <pt x="412" y="606" on="0"/>
        <pt x="412" y="593" on="0"/>
        <pt x="411" y="591" on="1"/>
        <pt x="394" y="546" on="0"/>
        <pt x="258" y="426" on="0"/>
        <pt x="213" y="426" on="1"/>
        <pt x="196" y="426" on="0"/>
        <pt x="196" y="476" on="0"/>
        <pt x="236" y="556" on="0"/>
        <pt x="304" y="637" on="0"/>
        <pt x="414" y="694" on="0"/>
        <pt x="474" y="694" on="1"/>
        <pt x="519" y="694" on="0"/>
        <pt x="568" y="646" on="1"/>
        <pt x="586" y="629" on="0"/>
        <pt x="642" y="599" on="0"/>
        <pt x="699" y="599" on="0"/>
        <pt x="740" y="620" on="1"/>
        <pt x="805" y="654" on="0"/>
        <pt x="837" y="686" on="1"/>
        <pt x="842" y="691" on="0"/>
        <pt x="854" y="691" on="0"/>
        <pt x="876" y="680" on="0"/>
        <pt x="876" y="666" on="0"/>
        <pt x="870" y="660" on="1"/>
        <pt x="449" y="231" on="0"/>
        <pt x="191" y="-3" on="1"/>
        <pt x="246" y="-32" on="0"/>
        <pt x="319" y="-32" on="1"/>
        <pt x="480" y="-32" on="0"/>
        <pt x="707" y="110" on="1"/>
        <pt x="774" y="152" on="1"/>
        <pt x="781" y="156" on="0"/>
        <pt x="797" y="156" on="0"/>
        <pt x="797" y="152" on="0"/>
        <pt x="794" y="150" on="1"/>
        <pt x="722" y="106" on="1"/>
        <pt x="470" y="-57" on="0"/>
        <pt x="295" y="-57" on="1"/>
        <pt x="221" y="-57" on="0"/>
        <pt x="164" y="-28" on="1"/>
        <pt x="58" y="-123" on="0"/>
        <pt x="46" y="-123" on="1"/>
        <pt x="23" y="-123" on="0"/>
        <pt x="0" y="-60" on="0"/>
        <pt x="0" y="42" on="0"/>
        <pt x="26" y="150" on="0"/>
      </contour>
    </TTGlyph>
    <TTGlyph name="Zcaron" xMin="0" yMin="-123" xMax="876" yMax="792">
      <contour>
        <pt x="720" y="750" on="1"/>
        <pt x="812" y="791" on="0"/>
        <pt x="835" y="791" on="0"/>
        <pt x="835" y="786" on="1"/>
        <pt x="835" y="785" on="1"/>
        <pt x="835" y="782" on="0"/>
        <pt x="802" y="766" on="0"/>
        <pt x="770" y="748" on="1"/>
        <pt x="688" y="699" on="0"/>
        <pt x="671" y="699" on="0"/>
        <pt x="667" y="718" on="0"/>
        <pt x="662" y="748" on="0"/>
        <pt x="661" y="754" on="1"/>
        <pt x="658" y="768" on="0"/>
        <pt x="645" y="787" on="1"/>
        <pt x="644" y="789" on="1"/>
        <pt x="644" y="792" on="0"/>
        <pt x="660" y="792" on="0"/>
        <pt x="682" y="756" on="0"/>
        <pt x="688" y="736" on="1"/>
      </contour>
      <contour>
        <pt x="56" y="-102" on="1"/>
        <pt x="61" y="-102" on="0"/>
        <pt x="147" y="-18" on="1"/>
        <pt x="80" y="21" on="0"/>
        <pt x="35" y="108" on="1"/>
        <pt x="24" y="108" on="0"/>
        <pt x="24" y="42" on="1"/>
        <pt x="24" y="-102" on="0"/>
      </contour>
      <contour>
        <pt x="46" y="176" on="1"/>
        <pt x="51" y="187" on="0"/>
        <pt x="62" y="187" on="0"/>
        <pt x="62" y="151" on="0"/>
        <pt x="117" y="43" on="0"/>
        <pt x="173" y="7" on="1"/>
        <pt x="334" y="166" on="0"/>
        <pt x="764" y="607" on="0"/>
        <pt x="764" y="616" on="1"/>
        <pt x="764" y="617" on="0"/>
        <pt x="763" y="617" on="1"/>
        <pt x="690" y="576" on="0"/>
        <pt x="607" y="576" on="0"/>
        <pt x="547" y="606" on="0"/>
        <pt x="530" y="624" on="1"/>
        <pt x="471" y="668" on="0"/>
        <pt x="440" y="673" on="1"/>
        <pt x="396" y="673" on="0"/>
        <pt x="313" y="621" on="0"/>
        <pt x="260" y="549" on="0"/>
        <pt x="228" y="479" on="0"/>
        <pt x="228" y="444" on="0"/>
        <pt x="238" y="444" on="1"/>
        <pt x="260" y="444" on="0"/>
        <pt x="375" y="543" on="0"/>
        <pt x="398" y="596" on="1"/>
        <pt x="402" y="606" on="0"/>
        <pt x="412" y="606" on="0"/>
        <pt x="412" y="593" on="0"/>
        <pt x="411" y="591" on="1"/>
        <pt x="394" y="546" on="0"/>
        <pt x="258" y="426" on="0"/>
        <pt x="213" y="426" on="1"/>
        <pt x="196" y="426" on="0"/>
        <pt x="196" y="476" on="0"/>
        <pt x="236" y="556" on="0"/>
        <pt x="304" y="637" on="0"/>
        <pt x="414" y="694" on="0"/>
        <pt x="474" y="694" on="1"/>
        <pt x="519" y="694" on="0"/>
        <pt x="568" y="646" on="1"/>
        <pt x="586" y="629" on="0"/>
        <pt x="642" y="599" on="0"/>
        <pt x="699" y="599" on="0"/>
        <pt x="740" y="620" on="1"/>
        <pt x="805" y="654" on="0"/>
        <pt x="837" y="686" on="1"/>
        <pt x="842" y="691" on="0"/>
        <pt x="854" y="691" on="0"/>
        <pt x="876" y="680" on="0"/>
        <pt x="876" y="666" on="0"/>
        <pt x="870" y="660" on="1"/>
        <pt x="449" y="231" on="0"/>
        <pt x="191" y="-3" on="1"/>
        <pt x="246" y="-32" on="0"/>
        <pt x="319" y="-32" on="1"/>
        <pt x="480" y="-32" on="0"/>
        <pt x="707" y="110" on="1"/>
        <pt x="774" y="152" on="1"/>
        <pt x="781" y="156" on="0"/>
        <pt x="797" y="156" on="0"/>
        <pt x="797" y="152" on="0"/>
        <pt x="794" y="150" on="1"/>
        <pt x="722" y="106" on="1"/>
        <pt x="470" y="-57" on="0"/>
        <pt x="295" y="-57" on="1"/>
        <pt x="221" y="-57" on="0"/>
        <pt x="164" y="-28" on="1"/>
        <pt x="58" y="-123" on="0"/>
        <pt x="46" y="-123" on="1"/>
        <pt x="23" y="-123" on="0"/>
        <pt x="0" y="-60" on="0"/>
        <pt x="0" y="42" on="0"/>
        <pt x="26" y="150" on="0"/>
      </contour>
    </TTGlyph>
    <TTGlyph name="a" xMin="0" yMin="-1" xMax="334" yMax="273">
      <contour>
        <pt x="329" y="119" on="1"/>
        <pt x="330" y="106" on="1"/>
        <pt x="169" y="-1" on="0"/>
        <pt x="134" y="-1" on="1"/>
        <pt x="128" y="-1" on="0"/>
        <pt x="128" y="6" on="1"/>
        <pt x="128" y="27" on="0"/>
        <pt x="144" y="66" on="1"/>
        <pt x="149" y="80" on="1"/>
        <pt x="149" y="82" on="0"/>
        <pt x="142" y="82" on="0"/>
        <pt x="87" y="42" on="1"/>
        <pt x="33" y="2" on="0"/>
        <pt x="0" y="2" on="0"/>
        <pt x="0" y="32" on="1"/>
        <pt x="0" y="115" on="0"/>
        <pt x="189" y="273" on="0"/>
        <pt x="322" y="273" on="1"/>
        <pt x="334" y="273" on="0"/>
        <pt x="334" y="253" on="0"/>
        <pt x="146" y="40" on="0"/>
        <pt x="146" y="18" on="1"/>
        <pt x="146" y="14" on="0"/>
        <pt x="158" y="14" on="0"/>
        <pt x="248" y="66" on="0"/>
        <pt x="288" y="92" on="1"/>
      </contour>
      <contour>
        <pt x="170" y="118" on="1"/>
        <pt x="187" y="131" on="0"/>
        <pt x="285" y="243" on="0"/>
        <pt x="285" y="252" on="1"/>
        <pt x="285" y="256" on="0"/>
        <pt x="277" y="256" on="1"/>
        <pt x="231" y="256" on="0"/>
        <pt x="109" y="171" on="0"/>
        <pt x="24" y="63" on="0"/>
        <pt x="24" y="30" on="1"/>
        <pt x="24" y="24" on="0"/>
        <pt x="36" y="24" on="0"/>
        <pt x="63" y="39" on="0"/>
        <pt x="102" y="66" on="0"/>
        <pt x="116" y="76" on="1"/>
        <pt x="164" y="112" on="0"/>
      </contour>
    </TTGlyph>
    <TTGlyph name="aacute" xMin="-4" yMin="-1" xMax="388" yMax="376">
      <contour>
        <pt x="388" y="376" on="0"/>
        <pt x="388" y="348" on="0"/>
        <pt x="250" y="302" on="0"/>
        <pt x="236" y="302" on="0"/>
        <pt x="236" y="304" on="1"/>
        <pt x="236" y="308" on="0"/>
        <pt x="250" y="313" on="0"/>
        <pt x="281" y="330" on="0"/>
        <pt x="331" y="359" on="0"/>
        <pt x="355" y="371" on="1"/>
        <pt x="368" y="376" on="0"/>
        <pt x="376" y="376" on="1"/>
      </contour>
      <contour>
        <pt x="325" y="119" on="1"/>
        <pt x="326" y="106" on="1"/>
        <pt x="165" y="-1" on="0"/>
        <pt x="130" y="-1" on="1"/>
        <pt x="124" y="-1" on="0"/>
        <pt x="124" y="6" on="1"/>
        <pt x="124" y="27" on="0"/>
        <pt x="140" y="66" on="1"/>
        <pt x="145" y="80" on="1"/>
        <pt x="145" y="82" on="0"/>
        <pt x="138" y="82" on="0"/>
        <pt x="83" y="42" on="1"/>
        <pt x="29" y="2" on="0"/>
        <pt x="-4" y="2" on="0"/>
        <pt x="-4" y="32" on="1"/>
        <pt x="-4" y="115" on="0"/>
        <pt x="185" y="273" on="0"/>
        <pt x="318" y="273" on="1"/>
        <pt x="330" y="273" on="0"/>
        <pt x="330" y="253" on="0"/>
        <pt x="142" y="40" on="0"/>
        <pt x="142" y="18" on="1"/>
        <pt x="142" y="14" on="0"/>
        <pt x="154" y="14" on="0"/>
        <pt x="244" y="66" on="0"/>
        <pt x="284" y="92" on="1"/>
      </contour>
      <contour>
        <pt x="166" y="118" on="1"/>
        <pt x="183" y="131" on="0"/>
        <pt x="281" y="243" on="0"/>
        <pt x="281" y="252" on="1"/>
        <pt x="281" y="256" on="0"/>
        <pt x="273" y="256" on="1"/>
        <pt x="227" y="256" on="0"/>
        <pt x="105" y="171" on="0"/>
        <pt x="20" y="63" on="0"/>
        <pt x="20" y="30" on="1"/>
        <pt x="20" y="24" on="0"/>
        <pt x="32" y="24" on="0"/>
        <pt x="59" y="39" on="0"/>
        <pt x="98" y="66" on="0"/>
        <pt x="112" y="76" on="1"/>
        <pt x="160" y="112" on="0"/>
      </contour>
    </TTGlyph>
    <TTGlyph name="acircumflex" xMin="-4" yMin="-1" xMax="378" yMax="390">
      <contour>
        <pt x="302" y="340" on="1"/>
        <pt x="206" y="298" on="0"/>
        <pt x="187" y="298" on="0"/>
        <pt x="187" y="302" on="1"/>
        <pt x="187" y="304" on="1"/>
        <pt x="187" y="307" on="0"/>
        <pt x="220" y="323" on="0"/>
        <pt x="252" y="342" on="1"/>
        <pt x="334" y="390" on="0"/>
        <pt x="351" y="390" on="0"/>
        <pt x="355" y="371" on="0"/>
        <pt x="360" y="341" on="0"/>
        <pt x="361" y="336" on="1"/>
        <pt x="364" y="321" on="0"/>
        <pt x="377" y="302" on="1"/>
        <pt x="378" y="300" on="1"/>
        <pt x="378" y="297" on="0"/>
        <pt x="362" y="297" on="0"/>
        <pt x="340" y="333" on="0"/>
        <pt x="334" y="353" on="1"/>
      </contour>
      <contour>
        <pt x="325" y="119" on="1"/>
        <pt x="326" y="106" on="1"/>
        <pt x="165" y="-1" on="0"/>
        <pt x="130" y="-1" on="1"/>
        <pt x="124" y="-1" on="0"/>
        <pt x="124" y="6" on="1"/>
        <pt x="124" y="27" on="0"/>
        <pt x="140" y="66" on="1"/>
        <pt x="145" y="80" on="1"/>
        <pt x="145" y="82" on="0"/>
        <pt x="138" y="82" on="0"/>
        <pt x="83" y="42" on="1"/>
        <pt x="29" y="2" on="0"/>
        <pt x="-4" y="2" on="0"/>
        <pt x="-4" y="32" on="1"/>
        <pt x="-4" y="115" on="0"/>
        <pt x="185" y="273" on="0"/>
        <pt x="318" y="273" on="1"/>
        <pt x="330" y="273" on="0"/>
        <pt x="330" y="253" on="0"/>
        <pt x="142" y="40" on="0"/>
        <pt x="142" y="18" on="1"/>
        <pt x="142" y="14" on="0"/>
        <pt x="154" y="14" on="0"/>
        <pt x="244" y="66" on="0"/>
        <pt x="284" y="92" on="1"/>
      </contour>
      <contour>
        <pt x="166" y="118" on="1"/>
        <pt x="183" y="131" on="0"/>
        <pt x="281" y="243" on="0"/>
        <pt x="281" y="252" on="1"/>
        <pt x="281" y="256" on="0"/>
        <pt x="273" y="256" on="1"/>
        <pt x="227" y="256" on="0"/>
        <pt x="105" y="171" on="0"/>
        <pt x="20" y="63" on="0"/>
        <pt x="20" y="30" on="1"/>
        <pt x="20" y="24" on="0"/>
        <pt x="32" y="24" on="0"/>
        <pt x="59" y="39" on="0"/>
        <pt x="98" y="66" on="0"/>
        <pt x="112" y="76" on="1"/>
        <pt x="160" y="112" on="0"/>
      </contour>
    </TTGlyph>
    <TTGlyph name="acute" xMin="114" yMin="302" xMax="266" yMax="376">
      <contour>
        <pt x="266" y="376" on="0"/>
        <pt x="266" y="348" on="0"/>
        <pt x="128" y="302" on="0"/>
        <pt x="114" y="302" on="0"/>
        <pt x="114" y="304" on="1"/>
        <pt x="114" y="308" on="0"/>
        <pt x="128" y="313" on="0"/>
        <pt x="159" y="330" on="0"/>
        <pt x="209" y="359" on="0"/>
        <pt x="233" y="371" on="1"/>
        <pt x="246" y="376" on="0"/>
        <pt x="254" y="376" on="1"/>
      </contour>
    </TTGlyph>
</ttFont>
